<svg width="348" height="222" viewBox="0 0 348 222" fill="none" xmlns="http://www.w3.org/2000/svg">
<g clip-path="url(#clip0_4_1073)">
<path d="M191.506 42.76C191.506 42.76 168.282 35.8447 129.312 57.0487C90.3416 78.2527 99.84 110.858 58.3434 121.739C16.8468 132.62 0 155.885 0 176.57C0 197.255 23.6394 219.084 69.6101 217.029L310.82 219.486C310.82 219.486 345.513 193.032 347.921 145.35C350.33 97.6693 312.606 79.1744 286.754 74.0075C260.903 68.8405 255.986 37.1629 191.506 42.76Z" fill="#D6E9E9"/>
<path d="M73.3489 48.614C77.7975 53.0413 80.8268 58.6817 82.0539 64.8221C83.281 70.9624 82.6507 77.327 80.2427 83.1109C77.8347 88.8949 73.7572 93.8384 68.5257 97.3165C63.2942 100.795 57.1437 102.651 50.8519 102.651C44.5601 102.651 38.4096 100.795 33.1781 97.3165C27.9466 93.8384 23.8691 88.8949 21.4611 83.1109C19.0531 77.327 18.4228 70.9624 19.6498 64.8221C20.8769 58.6817 23.9063 53.0413 28.3549 48.614C34.327 42.6873 42.4173 39.359 50.8519 39.359C59.2865 39.359 67.3768 42.6873 73.3489 48.614ZM73.7306 48.2342C69.2061 43.732 63.4416 40.666 57.1659 39.4238C50.8903 38.1816 44.3853 38.819 38.4737 41.2555C32.5622 43.692 27.5094 47.818 23.9545 53.1119C20.3996 58.4058 18.5022 64.6297 18.5022 70.9967C18.5022 77.3636 20.3996 83.5875 23.9545 88.8814C27.5094 94.1753 32.5622 98.3013 38.4737 100.738C44.3853 103.174 50.8903 103.812 57.1659 102.57C63.4416 101.327 69.2061 98.2613 73.7306 93.7592C79.7948 87.7207 83.2013 79.5333 83.2013 70.9967C83.2013 62.46 79.7948 54.2727 73.7306 48.2342Z" fill="#64B8BA"/>
<path d="M67.3367 54.5965C70.5973 57.8407 72.8179 61.9743 73.7176 66.4743C74.6174 70.9744 74.1558 75.6389 72.3913 79.8779C70.6268 84.1169 67.6386 87.7401 63.8046 90.2892C59.9706 92.8383 55.4631 94.1989 50.852 94.1989C46.2409 94.1989 41.7333 92.8383 37.8993 90.2892C34.0654 87.7401 31.0772 84.1169 29.3127 79.8779C27.5482 75.6389 27.0866 70.9744 27.9863 66.4743C28.886 61.9743 31.1066 57.8407 34.3673 54.5965C36.5318 52.4419 39.1017 50.7327 41.9301 49.5665C44.7586 48.4004 47.7903 47.8002 50.852 47.8002C53.9136 47.8002 56.9453 48.4004 59.7738 49.5665C62.6023 50.7327 65.1722 52.4419 67.3367 54.5965ZM67.7521 54.1775C64.409 50.8514 60.1499 48.5864 55.5132 47.6688C50.8765 46.7512 46.0705 47.2224 41.7029 49.0227C37.3352 50.8229 33.6022 53.8715 30.9758 57.7828C28.3494 61.6941 26.9475 66.2926 26.9475 70.9967C26.9475 75.7007 28.3494 80.2992 30.9758 84.2105C33.6022 88.1218 37.3352 91.1704 41.7029 92.9707C46.0705 94.7709 50.8765 95.2421 55.5132 94.3245C60.1499 93.407 64.409 91.1419 67.7521 87.8158C72.2298 83.3523 74.7447 77.3033 74.7447 70.9967C74.7447 64.69 72.2298 58.641 67.7521 54.1775Z" fill="#64B8BA"/>
<path d="M66.4888 55.44C68.5432 57.4828 70.1729 59.9084 71.2848 62.5781C72.3966 65.2479 72.9689 68.1095 72.9689 70.9995C72.9689 73.8894 72.3966 76.751 71.2848 79.4208C70.1729 82.0905 68.5432 84.5161 66.4888 86.5589L74.6905 94.7199C81.0129 88.4289 84.5648 79.8964 84.5648 70.9995C84.5648 62.1025 81.0129 53.57 74.6905 47.279C71.56 44.1639 67.8435 41.693 63.7532 40.0072C59.663 38.3213 55.2791 37.4536 50.8518 37.4536C41.9106 37.4536 33.3356 40.9879 27.0132 47.279L35.2148 55.44C37.2678 53.3958 39.7055 51.7742 42.3886 50.6678C45.0716 49.5615 47.9475 48.992 50.8518 48.992C53.7562 48.992 56.632 49.5615 59.3151 50.6678C61.9982 51.7742 64.4359 53.3958 66.4888 55.44Z" fill="#9DD1D2"/>
<path d="M49.4456 87.7767V83.6208C47.2104 83.6144 45.0213 82.9876 43.1245 81.8109L44.1181 79.0571C45.8896 80.2037 47.9554 80.8184 50.0687 80.8278C52.999 80.8278 54.9863 79.1521 54.9863 76.7948C54.9863 74.5604 53.3752 73.136 50.3157 71.9072C46.0998 70.2593 43.495 68.3657 43.495 64.7907C43.495 61.3777 45.937 58.7859 49.7375 58.1714V54.0211H52.2973V58.0095C54.1819 58.0237 56.0314 58.5179 57.6697 59.445L56.6367 62.1598C55.0631 61.2296 53.2631 60.7466 51.4328 60.7633C48.2498 60.7633 47.0485 62.6513 47.0485 64.2992C47.0485 66.4386 48.581 67.5055 52.1738 68.9857C56.429 70.7118 58.5791 72.8512 58.5791 76.5099C58.5791 79.7553 56.3055 82.7996 52.0503 83.4979V87.7767H49.4456Z" fill="#9DD1D2"/>
<path d="M75.9647 204.499L78.5695 216.973H73.3599L68.2739 209.974L75.9647 204.499Z" fill="#DFE3E8"/>
<path d="M36.6631 204.499L34.0583 216.973H39.2679L44.3539 209.974L36.6631 204.499Z" fill="#DFE3E8"/>
<path d="M89.3951 186.81C93.9331 167.678 82.0251 148.508 62.7979 143.992C43.5706 139.477 24.305 151.326 19.7669 170.458C15.2289 189.59 27.1368 208.76 46.3641 213.275C65.5914 217.791 84.857 205.942 89.3951 186.81Z" fill="#DFE3E8"/>
<path d="M54.5821 206.326C69.9475 206.326 82.4037 193.932 82.4037 178.642C82.4037 163.353 69.9475 150.959 54.5821 150.959C39.2166 150.959 26.7605 163.353 26.7605 178.642C26.7605 193.932 39.2166 206.326 54.5821 206.326Z" fill="#BACECD"/>
<path d="M77.08 146.626L73.7551 144.704L70.9206 149.558L74.2454 151.48L77.08 146.626Z" fill="#DFE3E8"/>
<path d="M83.7623 135.201L84.363 134.179C84.5774 133.808 84.6352 133.368 84.5236 132.956C84.412 132.543 84.1402 132.191 83.7679 131.978C83.3957 131.764 82.9536 131.707 82.5388 131.818C82.124 131.929 81.7705 132.2 81.5562 132.57L81.0004 133.581C77.8058 132.176 74.2024 131.992 70.8804 133.066C67.5585 134.14 64.7515 136.396 62.9972 139.401L62.5649 140.144L87.1025 154.333L87.5348 153.584C89.2785 150.592 89.8577 147.067 89.1623 143.679C88.4669 140.29 86.5453 137.273 83.7623 135.201Z" fill="#DFE3E8"/>
<path d="M32.3339 153.078L35.6587 151.156L32.8242 146.302L29.4993 148.224L32.3339 153.078Z" fill="#DFE3E8"/>
<path d="M22.8367 136.771L22.2416 135.748C22.0265 135.378 21.968 134.938 22.0791 134.524C22.1901 134.111 22.4616 133.759 22.8339 133.545C23.2061 133.331 23.6485 133.272 24.0638 133.383C24.4791 133.493 24.8333 133.764 25.0485 134.134L25.6098 135.145C28.8046 133.741 32.4076 133.558 35.7292 134.632C39.0508 135.706 41.8578 137.961 43.613 140.966L44.0509 141.714L19.5133 155.919L19.0811 155.204C17.3211 152.209 16.7312 148.674 17.424 145.274C18.1167 141.874 20.0435 138.847 22.8367 136.771Z" fill="#DFE3E8"/>
<path d="M56.3953 179.134C56.3953 179.641 56.2442 180.137 55.9611 180.558C55.6779 180.98 55.2755 181.309 54.8047 181.503C54.3339 181.697 53.8158 181.747 53.316 181.649C52.8161 181.55 52.357 181.305 51.9966 180.947C51.6363 180.588 51.3909 180.131 51.2915 179.634C51.192 179.137 51.2431 178.621 51.4381 178.153C51.6331 177.684 51.9634 177.284 52.3871 177.002C52.8108 176.72 53.309 176.57 53.8186 176.57C54.502 176.57 55.1574 176.84 55.6406 177.321C56.1239 177.802 56.3953 178.454 56.3953 179.134Z" fill="#F3F3F4"/>
<path d="M53.8186 159.002V179.134H71.9285" stroke="#F3F3F4" stroke-width="4" stroke-miterlimit="10"/>
<path d="M57.6361 159.511H49.9958L53.8132 155.712L57.6361 159.511Z" fill="#F3F3F4"/>
<path d="M71.4177 175.33V182.932L75.2351 179.134L71.4177 175.33Z" fill="#F3F3F4"/>
<path d="M293.339 67.8518C293.339 68.5025 293.145 69.1386 292.782 69.6797C292.419 70.2207 291.902 70.6424 291.298 70.8914C290.694 71.1405 290.029 71.2056 289.388 71.0787C288.746 70.9517 288.157 70.6384 287.695 70.1782C287.232 69.7181 286.917 69.1319 286.79 68.4937C286.662 67.8555 286.728 67.1939 286.978 66.5927C287.228 65.9916 287.652 65.4777 288.196 65.1162C288.74 64.7547 289.379 64.5617 290.033 64.5617C290.91 64.5617 291.751 64.9083 292.371 65.5254C292.991 66.1424 293.339 66.9792 293.339 67.8518Z" stroke="#B8CCCC" stroke-miterlimit="10"/>
<g opacity="0.15">
<path d="M124.967 45.5641C124.71 42.5438 123.734 39.6277 122.121 37.0568L118.438 38.9001C117.692 37.7665 116.795 36.7386 115.772 35.8447L118.135 32.4931C115.802 30.5469 113.043 29.1731 110.079 28.4825L108.783 32.3926C107.449 32.1163 106.084 32.0187 104.724 32.1021L104.016 28.0244C100.983 28.2895 98.0546 29.2596 95.4668 30.8565L97.3249 34.5264C96.1837 35.2684 95.1489 36.161 94.2486 37.1797L90.8804 34.8224C88.9249 37.1465 87.5427 39.8934 86.8441 42.8438L90.7737 44.1341C90.4932 45.4591 90.395 46.8158 90.4818 48.1671L86.4175 48.8877C86.6816 51.9065 87.6567 54.821 89.2636 57.395L92.9462 55.5517C93.6952 56.6831 94.5919 57.7106 95.6128 58.6072L93.2494 61.9587C95.583 63.9077 98.3444 65.2834 101.311 65.9749L102.602 62.0648C103.935 62.3457 105.3 62.4453 106.661 62.3609L107.385 66.3995C108.896 66.2696 110.386 65.964 111.825 65.489C113.267 65.0128 114.646 64.3678 115.934 63.5674L114.076 59.9031C115.218 59.161 116.252 58.2685 117.153 57.2498L120.521 59.6015C122.476 57.2794 123.859 54.5343 124.557 51.5857L120.627 50.2954C120.908 48.9685 121.006 47.6099 120.919 46.2568L124.967 45.5641ZM108.272 54.9931C106.727 55.506 105.065 55.5516 103.494 55.1241C101.924 54.6966 100.516 53.8152 99.4494 52.5915C98.3825 51.3677 97.7044 49.8565 97.5009 48.2492C97.2973 46.6418 97.5775 45.0106 98.3059 43.5617C99.0344 42.1128 100.178 40.9115 101.593 40.1097C103.008 39.308 104.63 38.9418 106.254 39.0575C107.878 39.1732 109.431 39.7656 110.716 40.7597C112.002 41.7539 112.962 43.1051 113.476 44.6424C114.164 46.7017 114.002 48.9485 113.026 50.8892C112.05 52.83 110.34 54.306 108.272 54.9931Z" fill="#9DD1D2"/>
</g>
<path d="M49.3782 130.66C54.3295 130.66 58.3433 126.666 58.3433 121.739C58.3433 116.812 54.3295 112.818 49.3782 112.818C44.4269 112.818 40.4131 116.812 40.4131 121.739C40.4131 126.666 44.4269 130.66 49.3782 130.66Z" stroke="#CEDEDE" stroke-miterlimit="10" stroke-dasharray="3.86 3.86"/>
<path d="M240.258 72.2229C247.776 51.748 237.189 29.0856 216.612 21.605C196.036 14.1244 173.26 24.6584 165.742 45.1332C158.225 65.6081 168.811 88.2705 189.388 95.7511C209.965 103.232 232.74 92.6977 240.258 72.2229Z" fill="#18989B"/>
<path d="M230.633 66.3562C234.897 51.1674 225.98 35.4142 210.716 31.1706C195.451 26.9269 179.62 35.7997 175.355 50.9886C171.09 66.1774 180.007 81.9306 195.272 86.1742C210.536 90.4179 226.368 81.545 230.633 66.3562Z" fill="white"/>
<path d="M222.719 58.6854C222.72 62.5658 221.564 66.3595 219.398 69.5864C217.232 72.8134 214.153 75.3287 210.551 76.8142C206.948 78.2997 202.983 78.6887 199.158 77.9319C195.333 77.1751 191.82 75.3066 189.062 72.5627C186.305 69.8188 184.427 66.3228 183.666 62.5168C182.906 58.7108 183.297 54.7659 184.79 51.181C186.283 47.5961 188.81 44.5323 192.053 42.3771C195.296 40.222 199.109 39.0722 203.009 39.0733C208.236 39.0733 213.249 41.1396 216.946 44.8175C220.642 48.4955 222.719 53.4839 222.719 58.6854Z" fill="#18989B"/>
<path d="M213.333 58.6854C213.334 60.7186 212.729 62.7066 211.594 64.3976C210.46 66.0887 208.846 67.4069 206.959 68.1855C205.071 68.9641 202.994 69.1682 200.99 68.7718C198.985 68.3754 197.144 67.3963 195.699 65.9586C194.255 64.5209 193.271 62.689 192.872 60.6947C192.474 58.7004 192.679 56.6334 193.461 54.7551C194.244 52.8768 195.569 51.2717 197.268 50.1427C198.968 49.0138 200.966 48.4118 203.009 48.4129C205.747 48.4129 208.373 49.4952 210.309 51.4216C212.245 53.3481 213.333 55.9609 213.333 58.6854Z" fill="white"/>
<path d="M204.603 60.2717H198.119L204.603 53.82V60.2717Z" fill="#243956"/>
<path d="M162.556 18.439H155.141V16.5789H160.687V11.0545H162.556V18.439Z" fill="#243956"/>
<path d="M159.16 15.0596H151.744V13.1995H157.291V7.67502H159.16V15.0596Z" fill="#243956"/>
<path d="M158.583 13.1671L157.261 14.4824L202.125 59.1233L203.447 57.808L158.583 13.1671Z" fill="#243956"/>
<path d="M309.515 105.395C315.502 99.438 315.502 89.779 309.515 83.8215C303.527 77.8641 293.82 77.8641 287.833 83.8215C281.846 89.779 281.846 99.438 287.833 105.395C293.82 111.353 303.527 111.353 309.515 105.395Z" fill="#DFE3E8"/>
<path d="M298.672 105.188C304.547 105.188 309.31 100.449 309.31 94.6026C309.31 88.7565 304.547 84.0174 298.672 84.0174C292.797 84.0174 288.034 88.7565 288.034 94.6026C288.034 100.449 292.797 105.188 298.672 105.188Z" fill="#BACECD"/>
<path d="M298.043 101.736V99.9036C297.051 99.898 296.08 99.6196 295.237 99.0993L295.68 97.8648C296.475 98.376 297.4 98.6494 298.347 98.6524C299.66 98.6524 300.547 97.8983 300.547 96.8481C300.547 95.798 299.823 95.2115 298.453 94.6585C296.567 93.9267 295.405 93.0777 295.405 91.4745C295.405 89.8714 296.494 88.7877 298.212 88.514V86.6539H299.335V88.4414C300.178 88.4468 301.005 88.668 301.737 89.0838L301.277 90.2959C300.57 89.8809 299.763 89.6647 298.942 89.6703C297.521 89.6703 296.982 90.5193 296.982 91.2567C296.982 92.2119 297.667 92.6922 299.278 93.3514C301.182 94.1278 302.141 95.083 302.141 96.7029C302.141 98.1608 301.125 99.5238 299.222 99.8366V101.747L298.043 101.736Z" fill="#F3F3F4"/>
<path d="M334.921 77.8418C336.39 71.7048 332.582 65.5444 326.414 64.0824C320.246 62.6203 314.055 66.4102 312.586 72.5473C311.117 78.6843 314.925 84.8447 321.093 86.3067C327.261 87.7688 333.452 83.9789 334.921 77.8418Z" fill="#DFE3E8"/>
<path d="M330.702 79.0707C332.855 75.2531 331.491 70.4216 327.654 68.2793C323.817 66.137 318.962 67.495 316.809 71.3126C314.656 75.1302 316.021 79.9617 319.857 82.104C323.694 84.2463 328.549 82.8883 330.702 79.0707Z" fill="#BACECD"/>
<path d="M323.294 80.5429V79.1521C322.545 79.1486 321.813 78.9378 321.178 78.5432L321.509 77.6215C322.103 78.0045 322.794 78.2099 323.502 78.2136C324.49 78.2136 325.152 77.655 325.152 76.8618C325.152 76.0686 324.591 75.6329 323.586 75.2196C322.171 74.661 321.301 74.0354 321.301 72.8344C321.306 72.269 321.524 71.726 321.912 71.3124C322.299 70.8988 322.829 70.6447 323.395 70.6V69.2092H324.254V70.5442C324.885 70.5497 325.504 70.7171 326.05 71.0302L325.708 71.9407C325.181 71.627 324.576 71.4646 323.962 71.4715C322.896 71.4715 322.491 72.1027 322.491 72.6557C322.491 73.3707 323.008 73.7281 324.209 74.2253C325.635 74.7839 326.359 75.5212 326.359 76.7501C326.348 77.34 326.118 77.905 325.714 78.3368C325.31 78.7687 324.76 79.0371 324.17 79.0906V80.5262L323.294 80.5429Z" fill="#F3F3F4"/>
<path d="M339.143 103.353C340.034 97.9178 336.329 92.7928 330.867 91.9058C325.405 91.0187 320.255 94.7054 319.363 100.14C318.472 105.575 322.177 110.7 327.639 111.587C333.101 112.474 338.251 108.787 339.143 103.353Z" fill="#DFE3E8"/>
<path d="M335.991 103.322C336.878 99.6033 334.567 95.873 330.83 94.9904C327.092 94.1079 323.343 96.4073 322.456 100.126C321.569 103.845 323.88 107.576 327.618 108.458C331.355 109.341 335.104 107.041 335.991 103.322Z" fill="#BACECD"/>
<path d="M328.846 106.406V105.188C328.193 105.186 327.554 105.004 326.999 104.663L327.285 103.853C327.803 104.189 328.407 104.369 329.026 104.372C329.884 104.372 330.468 103.881 330.468 103.194C330.468 102.507 329.997 102.121 329.099 101.764C327.869 101.278 327.106 100.725 327.106 99.6802C327.114 99.1894 327.305 98.7192 327.642 98.3609C327.979 98.0027 328.439 97.782 328.93 97.7419V96.5521H329.688V97.7195C330.239 97.7248 330.78 97.8689 331.26 98.1385L330.957 98.9317C330.497 98.6596 329.97 98.5185 329.435 98.5239C328.503 98.5239 328.15 99.0825 328.15 99.5573C328.15 100.183 328.599 100.496 329.649 100.931C330.895 101.434 331.524 102.049 331.524 103.132C331.515 103.647 331.315 104.141 330.963 104.518C330.61 104.895 330.13 105.13 329.615 105.177V106.428L328.846 106.406Z" fill="#F3F3F4"/>
<path opacity="0.15" d="M301.339 25.0862H273.371C272.047 25.0862 270.974 26.1541 270.974 27.4714V55.3003C270.974 56.6176 272.047 57.6855 273.371 57.6855H301.339C302.663 57.6855 303.736 56.6176 303.736 55.3003V27.4714C303.736 26.1541 302.663 25.0862 301.339 25.0862Z" fill="#18989B"/>
<path d="M266.988 37.3193H248.811C247.949 37.3193 247.25 38.0146 247.25 38.8722V56.9593C247.25 57.817 247.949 58.5122 248.811 58.5122H266.988C267.85 58.5122 268.549 57.817 268.549 56.9593V38.8722C268.549 38.0146 267.85 37.3193 266.988 37.3193Z" fill="#D6EAEA"/>
<path opacity="0.15" d="M300.789 37.3193H274.685V39.1068H300.789V37.3193Z" fill="#18989B"/>
<path opacity="0.15" d="M300.789 40.9725H274.685V42.76H300.789V40.9725Z" fill="#18989B"/>
<path opacity="0.15" d="M300.789 44.6201H274.685V46.4076H300.789V44.6201Z" fill="#18989B"/>
<path opacity="0.15" d="M300.789 48.2733H274.685V50.0607H300.789V48.2733Z" fill="#18989B"/>
<path opacity="0.15" d="M300.789 51.9208H274.685V53.7083H300.789V51.9208Z" fill="#18989B"/>
<path d="M265.748 39.738H249.238V41.5255H265.748V39.738Z" fill="#F3F3F4"/>
<path d="M265.748 43.3856H249.238V45.1731H265.748V43.3856Z" fill="#F3F3F4"/>
<path d="M265.748 47.0388H249.238V48.8263H265.748V47.0388Z" fill="#F3F3F4"/>
<path d="M265.748 50.692H249.238V52.4794H265.748V50.692Z" fill="#F3F3F4"/>
<path d="M276.307 20.288C276.223 20.2882 276.141 20.2585 276.077 20.2042L274.314 18.7183C274.242 18.6557 274.197 18.5673 274.19 18.4722C274.183 18.3771 274.213 18.2829 274.275 18.21C274.337 18.1384 274.425 18.094 274.52 18.0867C274.614 18.0794 274.708 18.1097 274.78 18.1709L276.274 19.4333L278.906 16.5007C278.975 16.4355 279.067 16.3991 279.162 16.3991C279.257 16.3991 279.348 16.4355 279.417 16.5007C279.484 16.5686 279.522 16.6598 279.522 16.7549C279.522 16.8499 279.484 16.9412 279.417 17.009L276.549 20.1986C276.482 20.257 276.396 20.2889 276.307 20.288Z" fill="#BACECD"/>
<path opacity="0.15" d="M280.04 22.5056H273.686C273.463 22.5056 273.25 22.4181 273.092 22.2621C272.934 22.1062 272.845 21.8945 272.844 21.6733V15.3444C272.844 15.1222 272.932 14.9091 273.09 14.752C273.248 14.5948 273.462 14.5066 273.686 14.5066H280.04C280.264 14.5066 280.478 14.5948 280.636 14.752C280.794 14.9091 280.882 15.1222 280.882 15.3444V21.7012C280.874 21.9175 280.781 22.1222 280.624 22.2721C280.467 22.4221 280.258 22.5057 280.04 22.5056ZM273.82 21.5336H279.906V15.4785H273.82V21.5336Z" fill="#18989B"/>
<path d="M286.805 20.2879C286.719 20.2872 286.636 20.2577 286.569 20.2042L284.812 18.7183C284.74 18.6557 284.695 18.5673 284.688 18.4722C284.68 18.377 284.711 18.2829 284.773 18.21C284.835 18.1384 284.923 18.094 285.017 18.0867C285.112 18.0794 285.206 18.1096 285.278 18.1709L286.771 19.4333L289.404 16.5007C289.468 16.4266 289.559 16.3809 289.657 16.3736C289.755 16.3662 289.852 16.3979 289.926 16.4616C290.001 16.5253 290.046 16.6158 290.054 16.7133C290.061 16.8107 290.029 16.907 289.965 16.9811L287.097 20.1706C287.06 20.211 287.015 20.2425 286.964 20.2628C286.914 20.2831 286.859 20.2917 286.805 20.2879Z" fill="#BACECD"/>
<path opacity="0.15" d="M290.538 22.5056H284.183C283.961 22.5056 283.748 22.4181 283.59 22.2621C283.432 22.1062 283.343 21.8945 283.341 21.6733V15.3444C283.341 15.1222 283.43 14.9091 283.588 14.752C283.746 14.5948 283.96 14.5066 284.183 14.5066H290.538C290.761 14.5066 290.976 14.5948 291.134 14.752C291.291 14.9091 291.38 15.1222 291.38 15.3444V21.7012C291.371 21.9175 291.279 22.1222 291.122 22.2721C290.965 22.4221 290.756 22.5057 290.538 22.5056ZM284.318 21.5336H290.392V15.4785H284.318V21.5336Z" fill="#18989B"/>
<path d="M297.302 20.2879C297.216 20.2881 297.133 20.2585 297.067 20.2042L295.31 18.7183C295.237 18.6557 295.193 18.5673 295.185 18.4722C295.178 18.377 295.208 18.2829 295.27 18.21C295.332 18.1384 295.42 18.094 295.515 18.0867C295.609 18.0794 295.703 18.1096 295.775 18.1709L297.269 19.4333L299.902 16.5007C299.966 16.4266 300.057 16.3809 300.154 16.3736C300.252 16.3662 300.349 16.3979 300.424 16.4616C300.498 16.5253 300.544 16.6158 300.551 16.7133C300.559 16.8107 300.527 16.907 300.463 16.9811L297.594 20.1706C297.558 20.211 297.513 20.2425 297.462 20.2628C297.411 20.2831 297.357 20.2917 297.302 20.2879Z" fill="#BACECD"/>
<path opacity="0.15" d="M301.058 22.5056H294.681C294.459 22.5056 294.245 22.4181 294.087 22.2621C293.93 22.1062 293.84 21.8945 293.839 21.6733V15.3444C293.839 15.1222 293.928 14.9091 294.085 14.752C294.243 14.5948 294.458 14.5066 294.681 14.5066H301.058C301.281 14.5066 301.496 14.5948 301.654 14.752C301.811 14.9091 301.9 15.1222 301.9 15.3444V21.7012C301.891 21.9175 301.799 22.1222 301.642 22.2721C301.485 22.4221 301.276 22.5057 301.058 22.5056ZM294.816 21.5336H300.901V15.4785H294.816V21.5336Z" fill="#18989B"/>
<path d="M199.961 112.025C199.961 112.742 199.747 113.443 199.346 114.04C198.946 114.636 198.376 115.101 197.71 115.375C197.044 115.649 196.311 115.721 195.605 115.58C194.898 115.44 194.248 115.094 193.739 114.586C193.23 114.079 192.883 113.432 192.743 112.729C192.603 112.025 192.676 111.296 192.953 110.634C193.23 109.971 193.697 109.406 194.297 109.008C194.897 108.61 195.602 108.399 196.323 108.4C196.801 108.4 197.275 108.494 197.716 108.676C198.158 108.858 198.559 109.125 198.897 109.462C199.235 109.799 199.503 110.198 199.685 110.638C199.868 111.078 199.961 111.549 199.961 112.025Z" stroke="#CEDEDE" stroke-miterlimit="10" stroke-dasharray="4.07 4.07"/>
<path opacity="0.15" d="M28.3587 119.962C31.9526 118.369 33.5683 114.178 31.9674 110.602C30.3666 107.026 26.1553 105.419 22.5614 107.011C18.9674 108.604 17.3517 112.795 18.9526 116.371C20.5535 119.947 24.7647 121.555 28.3587 119.962Z" fill="#9DD1D2"/>
<path opacity="0.15" d="M157.257 39.0621C159.737 39.0621 161.748 37.0614 161.748 34.5934C161.748 32.1254 159.737 30.1247 157.257 30.1247C154.777 30.1247 152.766 32.1254 152.766 34.5934C152.766 37.0614 154.777 39.0621 157.257 39.0621Z" fill="#9DD1D2"/>
<path d="M324.31 216.973H21.9666V222H324.31V216.973Z" fill="#DFE3E8"/>
<path d="M115.474 65.2152C117.13 63.5898 121.155 58.0932 121.61 58.2273C122.065 58.3614 120.678 60.3164 121.077 60.3611C121.475 60.4058 123.81 57.5402 124.232 57.7972C124.793 58.1435 122.244 60.9476 122.244 60.9476C122.244 60.9476 125.197 58.015 125.612 58.4619C125.899 58.7747 123.749 61.1152 123.041 62.1095C123.945 61.1264 125.601 59.7076 125.893 60.0427C126.185 60.3779 124.77 61.9922 123.726 63.2937C124.445 62.5396 125.826 61.2437 126.112 61.5397C126.398 61.8358 122.935 67.0754 119.763 70.8961" fill="#FC7F4F"/>
<path d="M94.3835 85.2965C102.765 78.1997 110.643 70.5343 117.961 62.3553L123.255 65.8688C123.255 65.8688 114.368 79.5766 102.737 91.374" fill="#FFB573"/>
<path d="M90.1731 89.2904C93.081 85.654 97.892 82.1349 97.892 82.1349L106.43 89.0056L98.9642 97.7642" fill="#BCB0A6"/>
<path d="M104.881 151.618L100.39 210.828L105.74 214.219C105.74 214.219 91.0377 214.979 90.583 214.504C90.1283 214.029 91.1893 210.739 91.1893 210.739L88.7305 151.456L104.881 151.618Z" fill="#FFB573"/>
<path d="M92.8733 214.481L90.684 212.342L90.9983 211.225L94.3666 214.498H95.9833L101.687 211.705L107.862 215.565C108.018 215.66 108.139 215.804 108.205 215.974C108.271 216.144 108.279 216.331 108.228 216.506C108.177 216.681 108.07 216.835 107.922 216.944C107.775 217.052 107.596 217.109 107.413 217.107L99.0877 217.079L96.4324 215.241H95.6746V217.073H90.2517V214.515L92.8733 214.481Z" fill="#30394D"/>
<path d="M93.008 151.294L79.6754 210.839L85.0253 214.23C85.0253 214.23 70.3285 214.99 69.8682 214.515C69.4079 214.04 70.4689 210.75 70.4689 210.75L74.348 151.294H93.008Z" fill="#FFB573"/>
<path d="M72.1924 214.481L70.0031 212.342L70.3118 211.225L73.6801 214.498H75.3024L81.0059 211.705L87.1754 215.532C87.3316 215.627 87.4521 215.771 87.5182 215.941C87.5843 216.111 87.5925 216.298 87.5415 216.473C87.4905 216.648 87.3831 216.801 87.2358 216.91C87.0886 217.018 86.9095 217.076 86.7263 217.073L78.4012 217.045L75.7459 215.208H74.9937V217.04H69.5764V214.47L72.1924 214.481Z" fill="#30394D"/>
<path d="M78.9907 120.571C71.6592 133.419 71.6929 157.31 71.6929 157.31H105.701C105.701 157.31 105.235 136.324 101.434 124.498L78.9907 120.571Z" fill="#548282"/>
<path d="M90.3528 121.739L91.2005 157.327" stroke="#313D77" stroke-width="0.75" stroke-miterlimit="10"/>
<path d="M97.8808 123.236C97.8808 123.236 96.1574 127.571 90.3528 129.073" stroke="#313D77" stroke-width="0.75" stroke-miterlimit="10"/>
<path d="M87.9445 85.8719C87.9445 85.8719 88.5059 87.3019 91.5541 87.3019C93.6873 87.3019 94.4901 86.1847 94.4901 86.1847C94.4901 86.1847 95.276 86.8885 103.674 97.8592C105.454 100.183 105.072 105.193 102.097 109.523C101.35 114.483 101.119 119.507 101.406 124.515H77.0988C77.0988 124.515 76.6721 107.132 78.3563 97.6525C78.857 95.0555 79.9941 92.6216 81.6667 90.5666C83.3392 88.5116 85.4956 86.899 87.9445 85.8719Z" fill="#D2C8BE"/>
<path fill-rule="evenodd" clip-rule="evenodd" d="M96.4099 75.1582C98.094 77.9511 98.7957 80.7441 96.4099 82.1405C94.0241 83.537 90.2348 84.2743 87.8097 80.3195C86.1256 77.5266 86.6869 74.1304 89.0391 72.706C91.3912 71.2816 94.7202 72.3764 96.4099 75.1582Z" fill="#FFB573"/>
<path d="M94.4395 75.8843C94.5181 76.1692 94.7426 76.4987 95.0009 76.4876C95.0378 76.4877 95.0737 76.4757 95.1031 76.4535C95.1326 76.4313 95.1538 76.4001 95.1637 76.3647C95.3489 75.8843 94.2767 75.281 94.4395 75.8843Z" fill="#13133B"/>
<path d="M93.3506 75.6274C93.5333 75.3644 93.7718 75.1446 94.0492 74.9834C94.3266 74.8223 94.6362 74.7236 94.9561 74.6945" stroke="#13133B" stroke-width="0.5" stroke-miterlimit="10" stroke-linecap="round"/>
<path d="M97.0499 78.3253L95.4836 79.1018C95.4836 79.1018 96.045 80.448 96.8871 80.219C97.5944 79.9899 97.0499 78.3253 97.0499 78.3253Z" fill="white"/>
<path fill-rule="evenodd" clip-rule="evenodd" d="M94.5968 86.6036C93.6516 87.0703 92.6094 87.3094 91.5542 87.3019C89.1066 87.2404 87.9446 86.2629 87.9446 86.2629L89.5557 79.409L95.4838 79.8391L94.5968 86.6036Z" fill="#FFB573"/>
<path fill-rule="evenodd" clip-rule="evenodd" d="M95.8374 75.281C95.8374 75.281 97.864 76.6328 97.9369 76.9903C98.0099 77.3478 97.151 77.8673 97.151 77.8673" fill="#FFB573"/>
<path d="M90.1733 70.79C89.9543 70.9017 89.1965 70.695 88.9214 70.695C88.5448 70.6936 88.1689 70.7273 87.7987 70.7956C85.5532 71.2033 83.8691 73.0634 82.7912 74.9738C82.0895 76.2306 81.5057 77.6271 80.2314 78.4259C77.4245 80.1743 73.7756 79.5431 70.6487 80.5988C67.5219 81.6545 65.035 84.8776 65.8771 88.3129C66.1578 89.4301 66.7472 90.4579 67.0953 91.5583C67.8419 93.9156 67.4938 96.6582 68.9141 98.6803C69.3075 99.216 69.7807 99.6888 70.3175 100.082C71.5105 100.98 72.895 101.592 74.3638 101.872C75.8327 102.152 77.3466 102.093 78.7885 101.697C80.2304 101.302 81.5616 100.582 82.6791 99.5929C83.7966 98.6039 84.6705 97.3723 85.2332 95.9935C86.4963 92.8598 86.0977 89.1229 87.9446 86.2852C88.8035 84.9614 90.0891 83.9503 90.9423 82.6265C91.7283 81.4088 92.1381 79.1241 92.2335 77.6662C92.2335 77.3255 91.6721 74.5214 91.8293 74.5214C93.3891 74.4216 94.8691 73.7995 96.0284 72.7562C95.7822 72.237 95.4332 71.7726 95.0024 71.3908C94.5716 71.0089 94.0678 70.7175 93.5211 70.5339C92.9744 70.3503 92.3962 70.2784 91.8209 70.3224C91.2457 70.3664 90.6853 70.5254 90.1733 70.79Z" fill="#1E303C"/>
<path d="M91.7506 78.0069C91.6432 77.9271 91.5207 77.87 91.3903 77.839C91.26 77.8081 91.1247 77.804 90.9927 77.827C90.8607 77.85 90.7349 77.8997 90.6229 77.9729C90.5109 78.0461 90.4151 78.1413 90.3415 78.2527C89.623 79.3252 91.3576 80.6826 92.194 80.744C93.0305 80.8055 93.008 79.9006 93.008 79.9006" fill="#FFB573"/>
<path d="M143.105 18.1821H115.519V217.001H143.105V18.1821Z" fill="#18989B"/>
<path d="M129.469 0L108.463 19.154H128.998H130.311H150.841L129.469 0Z" fill="#18989B"/>
<path d="M127.942 108.098C130.188 108.746 136.958 109.562 137.065 110.025C137.171 110.489 134.78 110.232 134.931 110.584C135.083 110.936 138.738 111.589 138.721 112.081C138.693 112.746 134.988 111.885 134.988 111.885C134.988 111.885 138.996 113.003 138.805 113.595C138.67 114.002 135.571 113.271 134.353 113.137C135.656 113.449 137.721 114.198 137.559 114.617C137.396 115.036 135.313 114.572 133.629 114.315C134.64 114.572 136.436 115.142 136.329 115.527C136.223 115.913 130.979 115.175 126.079 114.287" fill="#FFB573"/>
<path d="M104.017 93.3849C120.218 106.031 131.451 108.774 131.451 108.774L130.115 114.986C130.115 114.986 110.658 112.533 97.8809 101.842" fill="#FFB573"/>
<path fill-rule="evenodd" clip-rule="evenodd" d="M94.5969 86.6036C98.751 87.3019 105.128 93.3905 105.128 93.3905L98.358 103.255C98.358 103.255 95.4838 101.278 91.6216 97.9486" fill="#D2C8BE"/>
<path d="M98.3579 102.903C93.3055 99.831 91.0095 97.5799 91.0095 97.5799" stroke="#BCB0A6" stroke-width="0.75" stroke-miterlimit="10"/>
<path opacity="0.6" d="M178.96 101.557H150.599V217.001H178.96V101.557Z" fill="#18989B"/>
<path opacity="0.3" d="M214.158 131.995H185.724V216.973H214.158V131.995Z" fill="#18989B"/>
<path d="M242.586 200.818H201.532C200.512 200.818 199.686 201.641 199.686 202.656V206.89C199.686 207.905 200.512 208.728 201.532 208.728H242.586C243.606 208.728 244.433 207.905 244.433 206.89V202.656C244.433 201.641 243.606 200.818 242.586 200.818Z" fill="#64B8BA"/>
<path opacity="0.3" d="M246.813 192.909H205.76C204.739 192.909 203.913 193.731 203.913 194.746V198.981C203.913 199.996 204.739 200.818 205.76 200.818H246.813C247.833 200.818 248.66 199.996 248.66 198.981V194.746C248.66 193.731 247.833 192.909 246.813 192.909Z" fill="#18989B"/>
<path d="M244.668 208.845H203.615C202.595 208.845 201.768 209.668 201.768 210.683V214.917C201.768 215.932 202.595 216.755 203.615 216.755H244.668C245.688 216.755 246.515 215.932 246.515 214.917V210.683C246.515 209.668 245.688 208.845 244.668 208.845Z" fill="#18989B"/>
<path d="M256.94 103.903C253.05 107.6 248.811 110.915 244.281 113.801C234.698 119.851 221.748 123.571 221.748 123.571C221.748 123.571 215.752 116.276 219.946 114.494C225.335 112.718 232.857 108.282 238.785 104.043C242.502 101.401 251.018 92.4911 251.018 92.4911" fill="#FFB573"/>
<path d="M222.466 113.706C219.3 114.924 209.554 116.946 209.453 117.616C209.352 118.287 212.822 117.616 212.619 118.175C212.417 118.734 207.213 120.108 207.309 120.817C207.432 121.778 212.704 120.074 212.704 120.074C212.704 120.074 207.023 122.23 207.371 123.029C207.618 123.588 212.03 122.158 213.787 121.817C211.929 122.426 209.044 123.772 209.296 124.353C209.549 124.934 212.586 124.018 214.938 123.437C213.506 123.934 210.941 124.984 211.166 125.537C211.39 126.09 218.851 124.621 226.21 122.108" fill="#FFB573"/>
<path d="M254.515 86.4137C253.179 90.6255 246.044 97.0269 237.64 103.456L245.112 113.813C245.112 113.813 255.475 109.428 259.567 104.155" fill="#1E303C"/>
<path d="M259.96 192.037L263.643 209.387L263.053 215.085L241.351 214.973C241.088 214.97 240.836 214.864 240.651 214.678C240.466 214.492 240.363 214.24 240.363 213.979C240.365 213.783 240.427 213.592 240.539 213.431C240.651 213.27 240.808 213.146 240.991 213.074L250.669 208.644L246.1 190.546" fill="#FFB573"/>
<path d="M239.386 214.744C239.61 214.029 240.031 213.225 240.458 213.068L250.72 208.672C256.379 210.951 263.704 209.231 263.704 209.231L264.266 216.922C264.263 217.044 264.213 217.16 264.126 217.245C264.039 217.331 263.922 217.379 263.8 217.38L239.554 217.207C239.055 217.207 239.375 214.766 239.386 214.744Z" fill="#1A405C"/>
<path d="M248.502 209.085C249.077 209.831 249.561 210.641 249.945 211.499" stroke="#5A65A5" stroke-width="0.75" stroke-miterlimit="10"/>
<path d="M247.206 209.851C247.681 210.488 248.08 211.178 248.396 211.906" stroke="#5A65A5" stroke-width="0.75" stroke-miterlimit="10"/>
<path d="M246.117 210.415C246.536 211.015 246.911 211.644 247.239 212.297" stroke="#5A65A5" stroke-width="0.75" stroke-miterlimit="10"/>
<path d="M264.131 215.666L239.273 215.537" stroke="#5A65A5" stroke-width="0.75" stroke-miterlimit="10"/>
<path d="M263.907 211.99C263.907 211.99 258.152 212.029 257.636 215.632" stroke="#5A65A5" stroke-width="0.75" stroke-miterlimit="10"/>
<path d="M242.563 212.141C242.563 212.141 244.219 214.487 244.545 215.565" stroke="#5A65A5" stroke-width="0.75" stroke-miterlimit="10"/>
<path d="M252.18 128.95C252.18 128.95 238.297 159.846 239.027 170.789C239.711 180.983 247.475 206.79 247.475 206.79L264.126 203.801C264.126 203.801 256.148 171.9 256.575 168.61C257.002 165.32 267.157 142.625 267.157 142.625C267.157 142.625 271.087 137.273 269.739 128.101" fill="#18989B"/>
<path d="M261.341 204.282C261.341 204.282 253.577 172.107 253.993 168.806C254.408 165.504 264.008 143.239 264.008 143.239" stroke="#2A3C83" stroke-width="0.75" stroke-linejoin="round"/>
<path d="M263.368 200.729L246.672 204.075" stroke="#2A3C83" stroke-width="0.75" stroke-linejoin="round"/>
<path d="M284.026 183.921L291.795 200.087L293.687 205.494L273.983 214.548C273.745 214.657 273.473 214.667 273.227 214.577C272.981 214.487 272.78 214.304 272.669 214.068C272.583 213.885 272.555 213.68 272.588 213.481C272.621 213.281 272.714 213.097 272.855 212.951L279.726 204.868L270.856 188.412" fill="#FFB573"/>
<path d="M272.102 215.163C272.001 214.414 272.041 213.487 272.349 213.169L279.771 204.851C285.867 204.533 291.75 199.863 291.75 199.863L295.54 206.566C295.565 206.621 295.58 206.68 295.582 206.74C295.585 206.8 295.575 206.86 295.554 206.917C295.534 206.974 295.502 207.025 295.461 207.07C295.42 207.114 295.37 207.15 295.315 207.175L273.304 217.291C272.849 217.526 272.102 215.185 272.102 215.163Z" fill="#1A405C"/>
<path d="M277.947 206.186C278.785 206.623 279.57 207.153 280.287 207.767" stroke="#5A65A5" stroke-width="0.75" stroke-miterlimit="10"/>
<path d="M277.104 207.432C277.803 207.813 278.458 208.268 279.058 208.789" stroke="#5A65A5" stroke-width="0.75" stroke-miterlimit="10"/>
<path d="M276.358 208.398C276.991 208.768 277.597 209.182 278.171 209.638" stroke="#5A65A5" stroke-width="0.75" stroke-miterlimit="10"/>
<path d="M294.906 205.555L272.338 215.923" stroke="#5A65A5" stroke-width="0.75" stroke-miterlimit="10"/>
<path d="M293.137 202.315C293.137 202.315 287.939 204.784 289.011 208.264" stroke="#5A65A5" stroke-width="0.75" stroke-miterlimit="10"/>
<path d="M273.871 211.465C273.871 211.465 276.369 212.884 277.127 213.699" stroke="#5A65A5" stroke-width="0.75" stroke-miterlimit="10"/>
<path d="M263.16 129.911C263.16 129.911 257.866 159.086 260.353 169.766C263.16 181.72 275.19 201.963 275.19 201.963L290.196 194.551C290.196 194.551 277.25 169.934 277.284 164.622C277.284 161.298 280.254 140.82 280.254 140.82C280.254 140.82 283.218 134.888 280.315 126.057" fill="#18989B"/>
<path d="M286.754 196.255C286.754 196.255 273.843 172.196 273.843 165.348C273.843 161.996 275.892 146.535 276.807 141.552C277.722 136.569 279.501 130.805 276.874 126.783" stroke="#2A3C83" stroke-width="0.75" stroke-linejoin="round"/>
<path d="M259.724 159.857C260.516 151.657 261.448 140.653 262.7 130.849" stroke="#2A3C83" stroke-width="0.75" stroke-linejoin="round"/>
<path d="M271.513 130.849C271.513 130.849 272.529 133.358 278.036 134.821" stroke="#2A3C83" stroke-width="0.75" stroke-linejoin="round"/>
<path d="M260.297 131.447C260.297 131.447 259.472 137.458 259.955 138.251C260.179 138.614 261.919 138.943 261.919 138.943" stroke="#2A3C83" stroke-width="0.75" stroke-linejoin="round"/>
<path d="M250.097 133.804C250.097 133.804 253.42 133.888 255.329 131.771" stroke="#2A3C83" stroke-width="0.75" stroke-linejoin="round"/>
<path d="M288.859 191.948L273.652 199.277" stroke="#2A3C83" stroke-width="0.75" stroke-linejoin="round"/>
<path d="M256.805 85.1736C256.805 85.1736 250.495 86.9779 249.586 99.0043C248.733 103.942 250.793 131.402 250.793 131.358C266.073 133.983 282.359 129.274 282.359 129.274C282.359 129.274 279.507 112.081 278.429 105.624C275.701 89.4245 264.434 85.9668 264.434 85.9668L256.805 85.1736Z" fill="#1E303C"/>
<path d="M254.829 72.4657C254.829 72.4657 252.275 79.5095 254.548 81.7942C255.733 82.984 259.219 83.1962 260.724 82.012C261.846 81.1406 263.452 75.7223 262.829 74.7504C260.426 71.1475 254.829 72.4657 254.829 72.4657Z" fill="#FFB573"/>
<path d="M256.261 75.7838C256.261 75.7838 254.891 77.4595 254.941 77.9567C254.992 78.4538 256.182 78.6605 256.182 78.6605" stroke="#AF3586" stroke-width="0.5" stroke-linejoin="round"/>
<path d="M254.812 79.1297L258.012 79.9397C257.785 80.3857 257.404 80.7358 256.94 80.9264C256.475 81.1171 255.957 81.1356 255.48 80.9786C254.245 80.5764 254.812 79.1297 254.812 79.1297Z" fill="white"/>
<path d="M255.025 75.0576L254.924 75.2531C254.883 75.3344 254.848 75.4183 254.818 75.5045C254.805 75.5306 254.799 75.5593 254.799 75.5882C254.799 75.6172 254.805 75.6458 254.818 75.672C254.843 75.7118 254.881 75.743 254.924 75.7614C254.972 75.778 255.023 75.778 255.07 75.7614C255.127 75.7466 255.175 75.7105 255.205 75.6609C255.205 75.6106 255.244 75.5603 255.261 75.51L255.301 75.4039C255.301 75.3369 255.345 75.2643 255.362 75.1916C255.382 75.145 255.382 75.0926 255.362 75.046C255.343 74.9993 255.305 74.9623 255.258 74.9431C255.212 74.9238 255.159 74.9239 255.112 74.9433C255.065 74.9626 255.028 74.9997 255.009 75.0464L255.025 75.0576Z" fill="#182B6D"/>
<path d="M256.148 74.4264C256.089 74.3273 256.011 74.2411 255.917 74.1732C255.823 74.1054 255.717 74.0572 255.604 74.0315C255.491 74.0059 255.374 74.0035 255.26 74.0243C255.146 74.0451 255.038 74.0888 254.941 74.1527" stroke="#182B6D" stroke-width="0.5" stroke-linecap="round" stroke-linejoin="round"/>
<path d="M258.618 76.3256C258.579 76.4038 258.546 76.4876 258.512 76.5714C258.478 76.6378 258.45 76.7069 258.428 76.7781C258.408 76.8341 258.408 76.8952 258.428 76.9512C258.458 77.0009 258.506 77.0369 258.562 77.0518C258.617 77.0709 258.676 77.0709 258.731 77.0518L258.776 77.0182C258.805 76.9918 258.825 76.9565 258.832 76.9177C258.832 76.8507 258.877 76.778 258.899 76.711L258.95 76.4932C258.966 76.4461 258.966 76.395 258.95 76.3479C258.93 76.3122 258.898 76.2845 258.86 76.2697C258.817 76.2511 258.769 76.2487 258.724 76.2631C258.68 76.2775 258.642 76.3077 258.618 76.3479V76.3256Z" fill="#182B6D"/>
<path d="M258.585 75.0744C258.585 75.0744 259.41 74.89 260.134 75.9178" stroke="#182B6D" stroke-width="0.5" stroke-linecap="round" stroke-linejoin="round"/>
<path d="M263.031 78.9063L264.429 85.9668C264.429 85.9668 259.073 89.9663 256.109 85.7099L256.019 81.0959L263.031 78.9063Z" fill="#FFB573"/>
<path d="M265.585 77.6886C265.645 77.4336 265.718 77.1819 265.804 76.9345C266.023 76.3424 266.365 75.8173 266.584 75.2252C266.808 74.6332 266.84 73.9865 266.676 73.3755C266.512 72.7646 266.16 72.2199 265.669 71.8178C265.483 71.6932 265.303 71.559 265.13 71.4156C264.83 71.0106 264.602 70.5571 264.457 70.075C264.311 69.6864 264.038 69.3578 263.682 69.1421C262.84 68.6953 261.728 69.2986 260.875 68.8517C260.7 68.7445 260.533 68.6251 260.376 68.4942C259.174 67.5893 257.816 67.8015 256.502 68.2707C256.013 68.4713 255.565 68.7611 255.183 69.1254C254.621 69.5611 253.852 69.5276 253.291 69.9521C253.025 70.2068 252.82 70.5178 252.692 70.8621C252.564 71.2064 252.515 71.5751 252.55 71.9407C252.534 72.2072 252.576 72.474 252.673 72.7227C252.837 73.0275 253.103 73.2649 253.426 73.393C254.198 73.6415 255.02 73.6934 255.817 73.5438C256.597 73.4824 257.501 72.9405 258.259 73.2198C259.017 73.4991 259.191 74.4041 260.106 74.4711C260.465 74.499 260.903 74.4376 261.116 74.7224C261.33 75.0073 261.234 75.5883 261.425 75.9625C261.645 76.314 261.889 76.6499 262.155 76.968C262.615 77.6215 263.278 78.0852 263.036 78.9174C262.874 79.5096 262.217 80.4592 262.475 81.0848C262.655 81.4981 263.57 81.4926 264.26 80.9675C264.951 80.4424 265.186 79.4034 265.383 78.5823C265.456 78.2695 265.512 77.979 265.585 77.6886Z" fill="#262739"/>
<path d="M262.323 77.8338C263.003 76.7166 263.659 76.8283 264.075 77.3367C264.636 78.0125 263.867 79.6436 263.463 79.9564C262.643 80.5821 261.919 80.61 261.779 79.9062" fill="#FFB573"/>
<path d="M256.294 82.8555C257.921 82.8767 259.526 82.4927 260.965 81.7383" stroke="#AF3586" stroke-width="0.75" stroke-linejoin="round"/>
<path d="M255.424 86.9667C255.424 86.9667 256.682 89.1452 260.089 89.0726C263.946 88.9888 265.54 86.4137 265.54 86.4137" stroke="#5A65A5" stroke-width="0.75" stroke-miterlimit="10"/>
<path d="M249.839 146.339L248.368 146.54L248.025 144.06L245.999 144.339C243.411 136.312 233.688 106.177 230.634 97.5631L234.979 96.971L234.289 91.9437L231.324 92.3459L230.971 89.7597H230.887C231.93 88.2972 232.521 86.5629 232.587 84.7704C232.653 82.9779 232.19 81.2054 231.256 79.6713C230.322 78.1372 228.957 76.9085 227.33 76.1366C225.702 75.3646 223.884 75.0831 222.098 75.3267C220.312 75.5703 218.637 76.3285 217.278 77.5077C215.92 78.6869 214.938 80.2357 214.453 81.9633C213.968 83.691 214.002 85.522 214.55 87.2308C215.098 88.9397 216.136 90.4517 217.537 91.5807H217.453L217.807 94.1669L214.854 94.5747L215.55 99.602L220.041 98.9931C219.429 108.109 218.216 139.737 217.902 148.149L215.353 148.495L215.696 150.981L213.709 151.249C212.94 151.356 212.244 151.761 211.775 152.377C211.306 152.993 211.101 153.768 211.205 154.534L211.671 157.885L253.628 152.165L253.162 148.786C253.044 148.024 252.629 147.34 252.006 146.882C251.384 146.424 250.605 146.229 249.839 146.339Z" fill="#F6DFAD"/>
<path d="M271.036 105.328C271.036 105.328 265.366 116.544 259.354 122.75C251.495 130.883 238.897 136.609 238.897 136.609C238.897 136.609 231.341 130.922 234.968 128.23C239.784 125.236 247.408 119.292 252.185 113.768C255.166 110.321 259.938 99.5461 259.938 99.5461" fill="#FFB573"/>
<path d="M237.224 126.861C234.418 128.783 225.436 133.045 225.514 133.732C225.593 134.419 228.77 132.961 228.725 133.536C228.68 134.112 223.931 136.687 224.184 137.351C224.532 138.256 229.236 135.363 229.236 135.363C229.236 135.363 224.229 138.793 224.745 139.491C225.121 139.982 229.062 137.547 230.69 136.798C229.034 137.832 226.542 139.815 226.946 140.318C227.35 140.82 230.061 139.2 232.211 138.083C230.937 138.904 228.697 140.524 229.045 141.01C229.393 141.496 236.281 138.05 242.636 134.558" fill="#FFB573"/>
<path d="M259.719 96.6303C258.141 101.909 253.976 110.656 253.976 110.656L265.287 116.589C265.287 116.589 271.126 109.5 273.332 100.987" fill="#1E303C"/>
<path d="M265.288 116.589C265.288 116.589 271.625 107.785 272.726 103.026" stroke="#5A65A5" stroke-width="0.75" stroke-miterlimit="10"/>
<path d="M253.976 110.656C253.976 110.656 258.186 102.54 259.067 98.6077" stroke="#5A65A5" stroke-width="0.75" stroke-miterlimit="10"/>
<path d="M296.292 175.71L301.457 217.325H319.05L324.181 175.71H296.292Z" fill="#CED2D6"/>
<path d="M308.575 170.247C309.484 158.282 308.468 146.546 313.066 135.206C314.368 131.989 317.332 126.911 321.43 126.738C327.757 126.47 323.884 139.122 322.738 143.853C321.946 146.912 320.95 149.914 319.757 152.841C317.731 158.002 314.705 165.219 312.387 170.247" fill="#BACECD"/>
<path d="M305.285 170.247C303.298 165.175 301.356 160.086 299.374 155.003C297.628 150.501 295.59 146.093 294.181 141.463C293.103 137.938 290.325 129.861 294.395 127.381C301.636 122.962 307.424 140.066 308.187 146.138C309.198 154.148 308.979 162.197 309.103 170.247" fill="#A0BDBB"/>
<path d="M299.531 170.247C299.531 170.247 295.298 164.868 293.39 162.343C289.123 156.707 283.846 150.612 284.655 144.25C284.834 142.792 285.368 141.172 286.844 140.306C287.775 139.815 288.835 139.62 289.881 139.748C293.35 140.077 296.455 145.082 298.01 147.652C301.064 152.679 305.79 170.263 305.79 170.263" fill="#BACECD"/>
<path d="M296.292 130.928C301.462 141.323 306.503 160.578 306.627 170.247" stroke="white" stroke-miterlimit="10"/>
<path d="M288.264 142.865C292.806 151.556 302.052 170.236 302.052 170.236" stroke="white" stroke-miterlimit="10"/>
<path d="M321.15 129.509C317.439 137.742 312.353 155.589 310.31 170.286" stroke="white" stroke-miterlimit="10"/>
<path d="M312.549 170.247C312.549 170.247 314.66 160.874 316.125 155.545C317.72 149.758 322.929 140.898 328.402 138.379C329.666 137.821 331.181 137.402 332.399 138.066C333.136 138.505 333.682 139.199 333.932 140.016C334.864 142.725 330.3 151.277 328.734 153.679C325.663 158.377 321.267 165.845 317.781 170.247" fill="#A0BDBB"/>
<path d="M331.372 140.267C324.9 145.853 316.243 163.689 313.818 170.247" stroke="white" stroke-miterlimit="10"/>
<path d="M298.448 170.286H323.148C324.276 170.286 325.359 170.732 326.157 171.526C326.955 172.32 327.403 173.397 327.403 174.52V176.838H294.192V174.52C294.192 173.397 294.641 172.32 295.439 171.526C296.237 170.732 297.319 170.286 298.448 170.286Z" fill="#DFE3E8"/>
</g>
<defs>
<clipPath id="clip0_4_1073">
<rect width="348" height="222" fill="white"/>
</clipPath>
</defs>
</svg>
