<svg width="427" height="227" viewBox="0 0 427 227" fill="none" xmlns="http://www.w3.org/2000/svg">
<g clip-path="url(#clip0_4_1221)">
<g style="mix-blend-mode:multiply" opacity="0.15">
<path d="M35.5445 225.618C35.5445 225.618 17.124 200.718 31.4636 173.02C47.6853 141.688 90.7281 136.56 111.879 117.738C133.03 98.9159 133.036 58.8576 170.08 41.8229C197.522 29.2053 217.765 31.9607 250.388 49.2942C283.01 66.6278 296 55.0561 332.488 65.6296C372.042 77.0876 388.771 115.586 378.22 155.089C369.323 188.387 395.642 195.135 394.447 225.618H35.5445Z" fill="#18989B"/>
</g>
<path d="M47.9613 160.552C44.7111 160.552 41.5337 159.588 38.8311 157.781C36.1285 155.975 34.0221 153.407 32.7781 150.402C31.5342 147.398 31.2086 144.092 31.8426 140.902C32.4767 137.713 34.0418 134.783 36.34 132.484C38.6383 130.184 41.5665 128.618 44.7543 127.984C47.9421 127.349 51.2463 127.675 54.2491 128.92C57.2519 130.164 59.8183 132.272 61.6238 134.976C63.4294 137.68 64.393 140.859 64.3927 144.111C64.3879 148.47 62.6552 152.649 59.5747 155.731C56.4943 158.813 52.3177 160.547 47.9613 160.552ZM76.6326 139.619H72.1568C71.5366 136.227 70.2028 133.005 68.2437 130.168L71.4096 127.002C71.6008 126.81 71.7082 126.551 71.7082 126.28C71.7082 126.009 71.6008 125.75 71.4096 125.558L66.5042 120.649C66.3128 120.457 66.0533 120.35 65.7827 120.35C65.5122 120.35 65.2527 120.457 65.0612 120.649L61.8954 123.816C59.0602 121.856 55.8407 120.522 52.4507 119.903V115.423C52.4507 115.152 52.3431 114.892 52.1517 114.7C51.9602 114.509 51.7005 114.401 51.4297 114.401H44.4929C44.2221 114.401 43.9625 114.509 43.771 114.7C43.5795 114.892 43.4719 115.152 43.4719 115.423V119.903C40.0814 120.522 36.8613 121.856 34.0258 123.816L30.8614 120.649C30.67 120.457 30.4105 120.35 30.1399 120.35C29.8693 120.35 29.6098 120.457 29.4184 120.649L24.513 125.558C24.4182 125.653 24.3429 125.765 24.2916 125.889C24.2402 126.013 24.2138 126.146 24.2138 126.28C24.2138 126.414 24.2402 126.547 24.2916 126.671C24.3429 126.795 24.4182 126.907 24.513 127.002L27.6774 130.168C25.7188 133.006 24.3855 136.227 23.7658 139.619H19.2885C19.0181 139.619 18.7588 139.727 18.5676 139.918C18.3765 140.109 18.269 140.369 18.269 140.639V147.582C18.269 147.852 18.3765 148.112 18.5676 148.303C18.7588 148.494 19.0181 148.602 19.2885 148.602H23.7658C24.3855 151.994 25.7188 155.215 27.6774 158.053L24.513 161.221C24.4182 161.315 24.3429 161.428 24.2916 161.552C24.2402 161.676 24.2138 161.808 24.2138 161.942C24.2138 162.077 24.2402 162.209 24.2916 162.333C24.3429 162.457 24.4182 162.57 24.513 162.664L29.4184 167.572C29.6098 167.764 29.8693 167.871 30.1399 167.871C30.4105 167.871 30.67 167.764 30.8614 167.572L34.0258 164.405C36.8616 166.365 40.0815 167.699 43.4719 168.32V172.798C43.4719 173.069 43.5795 173.329 43.771 173.521C43.9625 173.712 44.2221 173.82 44.4929 173.82H51.4297C51.7005 173.82 51.9602 173.712 52.1517 173.521C52.3431 173.329 52.4507 173.069 52.4507 172.798V168.32C55.8406 167.699 59.0599 166.365 61.8954 164.405L65.0612 167.572C65.2527 167.764 65.5122 167.871 65.7827 167.871C66.0533 167.871 66.3128 167.764 66.5042 167.572L71.4096 162.664C71.6008 162.473 71.7082 162.213 71.7082 161.942C71.7082 161.672 71.6008 161.412 71.4096 161.221L68.2437 158.053C70.202 155.217 71.5358 151.998 72.1568 148.608H76.6326C76.9031 148.608 77.1626 148.5 77.354 148.309C77.5454 148.118 77.6532 147.858 77.6536 147.588V140.646C77.6542 140.511 77.6282 140.378 77.5772 140.253C77.5261 140.129 77.451 140.016 77.3562 139.92C77.2613 139.825 77.1485 139.749 77.0244 139.698C76.9002 139.646 76.7671 139.619 76.6326 139.619Z" fill="#97CECF"/>
<path d="M53.7631 149.915C56.9665 146.71 56.9665 141.513 53.7631 138.308C50.5597 135.103 45.366 135.103 42.1626 138.308C38.9592 141.513 38.9592 146.71 42.1626 149.915C45.366 153.12 50.5597 153.12 53.7631 149.915Z" fill="#97CECF"/>
<path opacity="0.33" d="M208 160.552V187.126H181.439C181.439 192.382 182.996 197.52 185.915 201.891C188.833 206.261 192.981 209.668 197.835 211.68C202.688 213.691 208.029 214.218 213.181 213.193C218.334 212.167 223.066 209.636 226.781 205.92C230.496 202.203 233.026 197.468 234.051 192.313C235.076 187.157 234.55 181.814 232.54 176.958C230.529 172.101 227.125 167.951 222.757 165.031C218.389 162.11 213.254 160.552 208 160.552Z" fill="#18989B"/>
<path d="M204.444 157.258C197.4 157.258 190.645 160.058 185.664 165.042C180.683 170.025 177.885 176.785 177.885 183.833H204.444V157.258Z" fill="#18989B"/>
<path d="M301.707 41.996H140.873C134.871 41.996 130.006 46.8638 130.006 52.8684V136.045C130.006 142.049 134.871 146.917 140.873 146.917H301.707C307.708 146.917 312.574 142.049 312.574 136.045V52.8684C312.574 46.8638 307.708 41.996 301.707 41.996Z" fill="#D1D1D1"/>
<path d="M297.248 18.491H123.219C117.718 18.491 113.259 22.9529 113.259 28.4569V131.621C113.259 137.125 117.718 141.587 123.219 141.587H297.248C302.749 141.587 307.208 137.125 307.208 131.621V28.4569C307.208 22.9529 302.749 18.491 297.248 18.491Z" fill="white"/>
<path d="M307.207 33.8099H113.259V34.1292H307.207V33.8099Z" fill="#373660"/>
<path d="M128.844 27.6322C129.184 26.2027 128.301 24.768 126.873 24.4278C125.444 24.0875 124.01 24.9704 123.67 26.3999C123.33 27.8294 124.212 29.264 125.641 29.6043C127.07 29.9446 128.504 29.0616 128.844 27.6322Z" fill="#1E303C"/>
<path d="M136.9 29.4041C138.217 28.7526 138.756 27.1567 138.105 25.8397C137.454 24.5226 135.859 23.983 134.542 24.6345C133.226 25.2861 132.687 26.8819 133.338 28.199C133.989 29.5161 135.584 30.0556 136.9 29.4041Z" fill="#18989B"/>
<path d="M147.075 28.8888C148.113 27.8498 148.113 26.1651 147.075 25.1261C146.037 24.0871 144.353 24.0871 143.314 25.1261C142.276 26.1652 142.276 27.8497 143.314 28.8888C144.353 29.9278 146.037 29.9278 147.075 28.8888Z" fill="white"/>
<path d="M221.29 57.1166H199.487V78.9311H221.29V57.1166Z" fill="#F2F2F2"/>
<path d="M289.723 57.1166H226.903V60.7277H289.723V57.1166Z" fill="#F2F2F2"/>
<path d="M289.723 66.2184H226.903V69.8294H289.723V66.2184Z" fill="#F2F2F2"/>
<path d="M264.018 75.3201H226.903V78.9311H264.018V75.3201Z" fill="#F2F2F2"/>
<path d="M209.806 66.8933L224.731 51.9604L228.844 56.0754L213.919 71.0083L209.806 75.1218L205.695 71.0083L200 65.3088L204.111 61.1953L209.806 66.8933Z" fill="#18989B"/>
<path d="M221.29 92.6503H199.487V114.465H221.29V92.6503Z" fill="#F2F2F2"/>
<path d="M289.723 92.6503H226.903V96.2614H289.723V92.6503Z" fill="#F2F2F2"/>
<path d="M289.723 101.752H226.903V105.363H289.723V101.752Z" fill="#F2F2F2"/>
<path d="M264.018 110.854H226.903V114.465H264.018V110.854Z" fill="#F2F2F2"/>
<path d="M209.806 101.912L224.731 86.9795L228.844 91.093L213.919 106.026L209.806 110.139L205.695 106.026L200 100.326L204.111 96.2129L209.806 101.912Z" fill="#18989B"/>
<path d="M211.901 121.206H199.487V133.626H211.901V121.206Z" fill="#18989B"/>
<path opacity="0.7" d="M229.293 121.206H216.879V133.626H229.293V121.206Z" fill="#18989B"/>
<path opacity="0.5" d="M246.686 121.206H234.272V133.626H246.686V121.206Z" fill="#18989B"/>
<path opacity="0.3" d="M264.08 121.206H251.666V133.626H264.08V121.206Z" fill="#18989B"/>
<path d="M186.244 55.2309H137.982C135.264 55.2309 133.062 57.4351 133.062 60.1541V126.3C133.062 129.019 135.264 131.223 137.982 131.223H186.244C188.962 131.223 191.165 129.019 191.165 126.3V60.1541C191.165 57.4351 188.962 55.2309 186.244 55.2309Z" fill="#F2F2F2"/>
<path opacity="0.57" d="M238.983 75.1218C238.983 75.1218 235.151 100.348 263.033 107.126C263.033 107.126 283.255 111.791 295.764 94.4558L290.966 91.4093C290.966 91.4093 281.086 102.651 266.625 101.843C252.165 101.035 239.88 82.076 238.983 75.1218Z" fill="#D1D1D1"/>
<path d="M334.329 178.864L334.695 215.522L332.768 216.445C332.768 216.445 336.887 220.356 343.648 218.476L347.375 178.864H334.329Z" fill="#FFD1C1"/>
<mask id="mask0_4_1221" style="mask-type:luminance" maskUnits="userSpaceOnUse" x="332" y="178" width="16" height="41">
<path d="M334.329 178.864L334.695 215.522L332.768 216.445C332.768 216.445 336.887 220.356 343.648 218.476L347.375 178.864H334.329Z" fill="white"/>
</mask>
<g mask="url(#mask0_4_1221)">
<path d="M330.085 187.366C330.085 187.366 350.647 184.391 351.31 181.845L350.758 173.882L330.245 175.547L330.085 187.366Z" fill="#FFB2A0"/>
</g>
<path d="M343.597 218.442V224.15H320.477C320.477 223.297 320.733 222.464 321.212 221.759C321.691 221.053 322.371 220.508 323.163 220.194L332.717 216.411C332.717 216.411 337.203 220.365 343.597 218.442Z" fill="#4F5285"/>
<path d="M331.566 216.863L332.346 218.442C332.387 218.524 332.41 218.614 332.415 218.706C332.42 218.797 332.407 218.889 332.375 218.975C332.343 219.062 332.295 219.141 332.232 219.208C332.169 219.275 332.093 219.328 332.009 219.365C331.853 219.433 331.677 219.439 331.516 219.383C331.355 219.327 331.221 219.213 331.141 219.062L330.233 217.387L331.566 216.863Z" fill="#373660"/>
<path d="M329.235 217.794L330.014 219.372C330.054 219.455 330.078 219.544 330.083 219.636C330.088 219.728 330.074 219.819 330.043 219.906C330.012 219.992 329.963 220.071 329.9 220.138C329.838 220.205 329.762 220.259 329.678 220.296C329.521 220.363 329.345 220.37 329.184 220.314C329.023 220.258 328.889 220.143 328.808 219.993L327.908 218.317L329.235 217.794Z" fill="#373660"/>
<path d="M326.598 218.831L327.379 220.409C327.42 220.491 327.443 220.581 327.448 220.673C327.453 220.765 327.439 220.857 327.408 220.943C327.376 221.029 327.327 221.108 327.265 221.175C327.202 221.242 327.126 221.295 327.042 221.332C326.885 221.4 326.709 221.407 326.548 221.351C326.387 221.295 326.254 221.18 326.173 221.03L325.266 219.354L326.598 218.831Z" fill="#373660"/>
<path d="M343.597 224.15H320.477V225.866H343.597V224.15Z" fill="#373660"/>
<path d="M354.405 175.27L368.006 209.311L366.542 210.87C366.542 210.87 371.796 213.024 377.42 208.824L366.567 170.552L354.405 175.27Z" fill="#FFD1C1"/>
<mask id="mask1_4_1221" style="mask-type:luminance" maskUnits="userSpaceOnUse" x="354" y="170" width="24" height="42">
<path d="M354.405 175.27L368.006 209.311L366.542 210.87C366.542 210.87 371.796 213.024 377.42 208.824L366.567 170.552L354.405 175.27Z" fill="white"/>
</mask>
<g mask="url(#mask1_4_1221)">
<path d="M356.838 181.361C356.849 181.387 366.015 177.794 368.953 175.568L367.086 168.701L351.824 173.522L356.838 181.361Z" fill="#FFB2A0"/>
</g>
<path d="M377.354 208.812L379.418 214.133L357.865 222.504C357.557 221.709 357.494 220.839 357.685 220.008C357.877 219.177 358.314 218.423 358.939 217.844L366.476 210.858C366.476 210.858 372.094 212.918 377.354 208.812Z" fill="#4F5285"/>
<path d="M365.567 211.699L366.867 212.889C366.934 212.951 366.988 213.026 367.026 213.11C367.063 213.193 367.084 213.283 367.086 213.375C367.087 213.467 367.071 213.558 367.037 213.643C367.002 213.728 366.951 213.805 366.886 213.87C366.766 213.99 366.604 214.061 366.433 214.067C366.263 214.074 366.096 214.015 365.967 213.904L364.522 212.669L365.567 211.699Z" fill="#373660"/>
<path d="M363.73 213.408L365.035 214.593C365.103 214.655 365.157 214.73 365.195 214.814C365.233 214.897 365.253 214.988 365.255 215.08C365.257 215.171 365.241 215.263 365.206 215.348C365.172 215.433 365.121 215.51 365.056 215.575C364.935 215.695 364.773 215.765 364.603 215.771C364.433 215.778 364.266 215.72 364.136 215.61L362.692 214.374L363.73 213.408Z" fill="#373660"/>
<path d="M361.65 215.335L362.948 216.524C363.015 216.586 363.07 216.661 363.108 216.745C363.145 216.828 363.166 216.918 363.168 217.01C363.17 217.102 363.153 217.193 363.118 217.278C363.084 217.363 363.032 217.44 362.967 217.505C362.847 217.625 362.685 217.696 362.515 217.702C362.345 217.709 362.178 217.651 362.049 217.54L360.603 216.305L361.65 215.335Z" fill="#373660"/>
<path d="M379.426 214.101L357.873 222.474L358.494 224.074L380.046 215.701L379.426 214.101Z" fill="#373660"/>
<path d="M331.929 131.022C331.929 131.022 328.914 154.934 330.244 163.427C331.573 171.92 332.361 180.421 332.361 180.421C332.361 180.421 356.714 181.015 378.901 170.343C378.901 170.343 364.446 145.643 363.81 144.853C363.173 144.063 362.078 127.42 362.078 127.42L331.929 131.022Z" fill="#1E303C"/>
<path d="M340.768 68.6202C340.768 68.6202 337.486 68.2418 335.825 71.414C334.703 73.557 336.718 77.9928 337.91 80.9712C338.776 83.1385 341.133 84.3613 343.381 83.7332C343.541 83.6891 343.698 83.6345 343.851 83.5698L340.768 68.6202Z" fill="#1E303C"/>
<path d="M347.27 76.9334C347.949 77.062 348.651 76.3628 348.837 75.3746C349.023 74.3863 348.622 73.4797 347.941 73.3526C347.533 73.2754 347.118 73.504 346.81 73.9005C346.122 71.0522 344.355 69.0242 342.284 69.0242C339.613 69.0242 337.444 72.3931 337.444 76.549C337.444 80.7048 339.608 84.0737 342.284 84.0737V89.6734L348.453 89.6931L347.512 84.5368C347.25 83.1079 347.118 81.6581 347.118 80.2054V76.8895C347.167 76.9089 347.218 76.9236 347.27 76.9334Z" fill="#FFD1C1"/>
<mask id="mask2_4_1221" style="mask-type:luminance" maskUnits="userSpaceOnUse" x="337" y="69" width="12" height="21">
<path d="M347.27 76.9334C347.949 77.062 348.651 76.3628 348.837 75.3746C349.023 74.3863 348.622 73.4797 347.941 73.3526C347.533 73.2754 347.118 73.504 346.81 73.9005C346.122 71.0522 344.355 69.0242 342.284 69.0242C339.613 69.0242 337.444 72.3931 337.444 76.549C337.444 80.7048 339.608 84.0737 342.284 84.0737V89.6734L348.453 89.6931L347.512 84.5368C347.25 83.1079 347.118 81.6581 347.118 80.2054V76.8895C347.167 76.9089 347.218 76.9236 347.27 76.9334Z" fill="white"/>
</mask>
<g mask="url(#mask2_4_1221)">
<path d="M344.19 69.0242C344.19 69.0242 344.788 73.6901 342.284 75.5577C340.236 77.0832 336.715 76.2675 336.715 76.2675C336.715 76.2675 338.613 69.0197 340.167 68.549C341.72 68.0783 344.19 69.0242 344.19 69.0242Z" fill="#FFB2A0"/>
</g>
<path d="M342.284 84.0737C342.284 84.0737 344.212 83.7832 345.418 81.2194C345.418 81.2194 345.028 84.8017 342.284 85.0272V84.0737Z" fill="#FFB2A0"/>
<path d="M340.277 69.7023C340.277 69.7023 339.427 74.969 346.81 73.9005C346.81 73.9005 347.881 72.6898 348.648 73.9005C349.414 75.1112 348.318 76.9137 347.118 76.8819C347.118 76.8819 346.816 82.692 347.63 85.1801C348.149 83.6678 348.86 82.2288 349.747 80.8986C351.789 77.8036 351.812 73.7507 349.625 70.7586C348.579 69.3112 347.108 68.2265 345.417 67.6561C338.743 65.3693 340.277 69.7023 340.277 69.7023Z" fill="#1E303C"/>
<path d="M347.035 68.605C347.035 68.605 347.54 63.2823 354.412 64.4038C361.284 65.5252 355.066 81.6477 362.099 86.1199C362.099 86.1199 350.177 87.0385 350.687 76.944L351.452 70.686C351.482 70.4446 351.454 70.1996 351.372 69.9708C351.29 69.742 351.155 69.5357 350.978 69.3687C350.801 69.2017 350.588 69.0785 350.355 69.0092C350.122 68.9399 349.876 68.9264 349.637 68.9698L348.194 69.224L347.035 68.605Z" fill="#1E303C"/>
<path d="M338.13 88.9318L318.535 101.442L288.231 105.256L289.128 110.027C289.128 110.027 318.45 111.763 322.148 111.763C325.847 111.763 337.184 101.852 337.184 101.852L338.13 88.9318Z" fill="#FFD1C1"/>
<mask id="mask3_4_1221" style="mask-type:luminance" maskUnits="userSpaceOnUse" x="288" y="88" width="51" height="24">
<path d="M338.13 88.9318L318.535 101.442L288.231 105.256L289.128 110.027C289.128 110.027 318.45 111.763 322.148 111.763C325.847 111.763 337.184 101.852 337.184 101.852L338.13 88.9318Z" fill="white"/>
</mask>
<g mask="url(#mask3_4_1221)">
<path d="M296.72 110.469C296.72 110.469 318.157 108.615 320.184 107.842C322.21 107.069 335.007 96.4233 335.007 96.4233L335.446 108.304C335.446 108.304 323.551 114.615 318.768 114.389C313.985 114.164 296.726 110.469 296.726 110.469" fill="#FFB2A0"/>
</g>
<path d="M289.128 105.271C289.128 105.271 283.411 103.474 282.863 103.688C282.316 103.901 285.415 105.543 284.96 105.726C284.504 105.909 277.583 107.641 277.534 108.096C277.486 108.552 278.763 112.095 281.405 112.012C284.048 111.928 289.128 110.027 289.128 110.027V105.271Z" fill="#FFD1C1"/>
<path d="M330.245 131.223L333.889 94.2016C334.103 92.2642 335.024 90.474 336.475 89.174C337.927 87.874 339.807 87.1556 341.755 87.1566H350.528C352.403 87.1566 354.218 87.8235 355.648 89.0382C357.077 90.253 358.029 91.9366 358.333 93.7884L363.813 127.208L330.245 131.223Z" fill="#FE6D60"/>
<mask id="mask4_4_1221" style="mask-type:luminance" maskUnits="userSpaceOnUse" x="330" y="87" width="34" height="45">
<path d="M330.245 131.223L333.889 94.2016C334.103 92.2642 335.024 90.474 336.475 89.174C337.927 87.874 339.807 87.1556 341.755 87.1566H350.528C352.403 87.1566 354.218 87.8235 355.648 89.0382C357.077 90.253 358.029 91.9366 358.333 93.7884L363.813 127.208L330.245 131.223Z" fill="white"/>
</mask>
<g mask="url(#mask4_4_1221)">
<path d="M331.868 98.6722C331.868 98.6722 336.73 123.827 359.287 123.223H364.466L365.667 128.565L329.276 132.968L331.868 98.6722Z" fill="#E63E36"/>
</g>
<path d="M294.339 89.7854C290.333 95.5798 284.442 99.805 277.672 101.741C270.901 103.677 263.668 103.205 257.207 100.404C250.745 97.6028 245.454 92.6468 242.235 86.3803C239.016 80.1137 238.069 72.9242 239.554 66.0369C241.039 59.1496 244.864 52.9905 250.379 48.609C255.894 44.2276 262.757 41.8949 269.798 42.0084C276.839 42.1219 283.622 44.6746 288.993 49.2315C294.364 53.7884 297.99 60.0677 299.252 66.9993C299.98 70.9337 299.92 74.9735 299.077 78.8847C298.233 82.796 296.623 86.501 294.339 89.7854ZM246.768 56.8593C243.16 62.0767 241.473 68.3842 241.992 74.7071C242.512 81.0299 245.206 86.977 249.617 91.5349C254.027 96.0928 259.881 98.9795 266.18 99.7033C272.48 100.427 278.835 98.9429 284.163 95.5039C289.491 92.0649 293.463 86.8837 295.402 80.8432C297.34 74.8027 297.125 68.2766 294.793 62.3769C292.462 56.4772 288.158 51.569 282.614 48.4885C277.071 45.4079 270.632 44.3458 264.394 45.4829C260.85 46.1189 257.468 47.4519 254.442 49.4046C251.417 51.3574 248.808 53.8912 246.768 56.8593Z" fill="#1E303C"/>
<path d="M360.39 131.657L356.797 136.854C356.318 137.546 355.584 138.019 354.757 138.17C353.929 138.321 353.076 138.137 352.384 137.66L293.347 96.7971C292.656 96.3173 292.184 95.583 292.033 94.7551C291.882 93.9273 292.066 93.0734 292.544 92.3809L296.136 87.1838C296.616 86.4925 297.35 86.0197 298.177 85.8691C299.005 85.7184 299.858 85.9022 300.55 86.3802L359.587 127.243C360.277 127.722 360.749 128.456 360.9 129.284C361.05 130.111 360.867 130.965 360.39 131.657Z" fill="#1E303C"/>
<path d="M364.931 107.701L359.637 93.5614C358.94 91.7021 357.698 90.0965 356.074 88.9549C354.45 87.8132 352.52 87.1885 350.535 87.1626C350.535 87.1626 353.668 106.254 354.693 109.949L330.021 114.766C329.206 114.407 325.732 113.629 324.667 113.546C323.07 113.424 321.651 115.38 320.943 116.573C320.886 116.669 320.854 116.777 320.849 116.888C320.845 116.999 320.867 117.11 320.916 117.21C320.964 117.31 321.037 117.396 321.127 117.462C321.217 117.527 321.321 117.569 321.431 117.584C323.227 117.829 327.108 118.319 329.5 118.327C329.5 118.327 361.915 120.791 365.272 117.702C368.01 115.161 364.931 107.701 364.931 107.701Z" fill="#FFD1C1"/>
<mask id="mask5_4_1221" style="mask-type:luminance" maskUnits="userSpaceOnUse" x="320" y="87" width="47" height="33">
<path d="M364.931 107.701L359.637 93.5614C358.94 91.7021 357.698 90.0965 356.074 88.9549C354.45 87.8132 352.52 87.1885 350.535 87.1626C350.535 87.1626 353.668 106.254 354.693 109.949L330.021 114.766C329.206 114.407 325.732 113.629 324.667 113.546C323.07 113.424 321.651 115.38 320.943 116.573C320.886 116.669 320.854 116.777 320.849 116.888C320.845 116.999 320.867 117.11 320.916 117.21C320.964 117.31 321.037 117.396 321.127 117.462C321.217 117.527 321.321 117.569 321.431 117.584C323.227 117.829 327.108 118.319 329.5 118.327C329.5 118.327 361.915 120.791 365.272 117.702C368.01 115.161 364.931 107.701 364.931 107.701Z" fill="white"/>
</mask>
<g mask="url(#mask5_4_1221)">
<path d="M354.686 109.943L360.55 109.051C360.55 109.051 356.295 108.114 356.003 107.182C355.711 106.25 352.113 87.6696 350.528 87.1566C350.528 87.1566 353.604 108.908 354.686 109.943Z" fill="#FFB2A0"/>
</g>
<path d="M155.286 75.6606C155.286 75.6606 157.336 70.2622 158.212 69.9338C159.087 69.6054 169.7 69.2225 169.754 70.2622C169.809 71.302 162.521 72.0678 162.521 72.0678C162.521 72.0678 164.502 72.8971 164.831 74.3712C165.159 75.8453 164.065 78.1442 163.135 78.1986C162.205 78.2531 159.161 78.9311 159.161 78.9311L155.286 75.6606Z" fill="#FFD1C1"/>
<path d="M158.547 72.2675C158.547 72.2675 162.116 73.6432 162.19 74.5725C162.264 75.5017 158.547 76.0223 158.547 76.0223L159.624 77.734C159.624 77.734 163.416 75.986 163.006 74.7586C162.597 73.5312 158.547 72.2675 158.547 72.2675Z" fill="#FFB2A0"/>
<path d="M90.606 206.879L90.7996 217.44H102.233V206.879H90.606Z" fill="#FFD1C1"/>
<mask id="mask6_4_1221" style="mask-type:luminance" maskUnits="userSpaceOnUse" x="90" y="206" width="13" height="12">
<path d="M90.606 206.879L90.7996 217.44H102.233V206.879H90.606Z" fill="white"/>
</mask>
<g mask="url(#mask6_4_1221)">
<path d="M89.1235 212.159L103.159 211.507L103.316 206.256L89.6076 206.1L89.1235 212.159Z" fill="#FFA18A"/>
</g>
<path d="M121.977 204.297L119.5 214.566L108.338 212.085L110.627 201.774L121.977 204.297Z" fill="#FFA18A"/>
<path d="M120.686 209.652L133.708 217.647C134.596 218.274 135.276 219.153 135.659 220.172C136.042 221.19 136.11 222.3 135.854 223.357L107.19 216.423L108.854 209.541C108.854 209.541 112.144 212.386 120.686 209.652Z" fill="#4F5285"/>
<path d="M107.185 216.406L106.671 218.534L135.335 225.467L135.849 223.339L107.185 216.406Z" fill="#373660"/>
<path d="M102.233 215.739V223.295H72.7378C72.7379 222.207 73.0647 221.144 73.6759 220.245C74.2871 219.345 75.1544 218.65 76.1653 218.249L90.6 213.264C90.6 213.264 94.6583 218.031 102.233 215.739Z" fill="#4F5285"/>
<path d="M102.233 223.297H72.7439V225.487H102.233V223.297Z" fill="#373660"/>
<path d="M123.655 211.507L122.334 213.323C122.266 213.418 122.217 213.526 122.191 213.64C122.165 213.754 122.163 213.872 122.184 213.987C122.205 214.103 122.249 214.212 122.313 214.31C122.378 214.407 122.462 214.491 122.56 214.555C122.741 214.675 122.961 214.722 123.176 214.686C123.39 214.651 123.583 214.536 123.717 214.364L125.208 212.453L123.655 211.507Z" fill="#373660"/>
<path d="M126.387 213.175L125.068 214.991C124.999 215.086 124.95 215.193 124.923 215.307C124.897 215.421 124.895 215.54 124.916 215.655C124.936 215.77 124.981 215.88 125.045 215.978C125.11 216.075 125.194 216.159 125.291 216.223C125.473 216.343 125.693 216.39 125.907 216.354C126.122 216.319 126.315 216.204 126.449 216.032L127.942 214.119L126.387 213.175Z" fill="#373660"/>
<path d="M129.477 215.047L128.162 216.863C128.093 216.958 128.044 217.065 128.018 217.179C127.992 217.294 127.989 217.412 128.01 217.527C128.031 217.642 128.075 217.752 128.14 217.85C128.205 217.947 128.288 218.031 128.386 218.095C128.568 218.215 128.788 218.262 129.002 218.226C129.217 218.191 129.41 218.076 129.543 217.904L131.036 215.991L129.477 215.047Z" fill="#373660"/>
<path d="M87.7321 214.28L88.6063 216.349C88.6518 216.456 88.675 216.572 88.6745 216.69C88.6739 216.807 88.6496 216.922 88.6031 217.03C88.5566 217.137 88.4888 217.234 88.4039 217.315C88.3189 217.396 88.2185 217.458 88.1087 217.499C87.904 217.574 87.6786 217.568 87.4775 217.484C87.2765 217.4 87.1146 217.243 87.0242 217.045L86.0032 214.843L87.7321 214.28Z" fill="#373660"/>
<path d="M84.6932 215.335L85.5675 217.403C85.613 217.511 85.6361 217.627 85.6355 217.744C85.635 217.861 85.6107 217.977 85.5642 218.084C85.5177 218.192 85.4499 218.288 85.3649 218.369C85.2799 218.449 85.1796 218.512 85.0698 218.552C84.8651 218.627 84.6398 218.621 84.4389 218.537C84.2379 218.453 84.076 218.296 83.9853 218.098L82.9658 215.898L84.6932 215.335Z" fill="#373660"/>
<path d="M81.3187 216.504L82.193 218.573C82.2387 218.681 82.262 218.797 82.2615 218.914C82.2611 219.031 82.2368 219.147 82.1903 219.254C82.1437 219.362 82.0759 219.459 81.9908 219.539C81.9057 219.619 81.8052 219.682 81.6953 219.722C81.4906 219.797 81.2652 219.792 81.0642 219.708C80.8631 219.623 80.7012 219.466 80.6108 219.268L79.5913 217.067L81.3187 216.504Z" fill="#373660"/>
<path d="M124.131 120.155H94.1409L83.6919 210.369H104.678L109.748 130.999L117.311 168.869L108.65 205.815L127.503 210.364L134.482 174.424C134.993 171.783 134.958 169.066 134.378 166.44L124.131 120.155Z" fill="#1E303C"/>
<path d="M105.289 206.171H83.2171C82.8829 206.171 82.6121 206.442 82.6121 206.776V209.764C82.6121 210.098 82.8829 210.369 83.2171 210.369H105.289C105.623 210.369 105.894 210.098 105.894 209.764V206.776C105.894 206.442 105.623 206.171 105.289 206.171Z" fill="#304F64"/>
<path d="M128.616 210.769L107.137 205.664C107.059 205.646 106.986 205.613 106.921 205.567C106.856 205.52 106.801 205.461 106.759 205.394C106.716 205.326 106.688 205.25 106.675 205.171C106.662 205.093 106.665 205.012 106.683 204.934L107.375 202.029C107.393 201.951 107.426 201.877 107.472 201.812C107.518 201.747 107.577 201.692 107.645 201.65C107.713 201.607 107.788 201.579 107.867 201.566C107.946 201.553 108.026 201.556 108.104 201.574L129.575 206.687C129.653 206.705 129.726 206.738 129.791 206.784C129.856 206.83 129.912 206.889 129.954 206.957C129.996 207.025 130.024 207.1 130.037 207.179C130.05 207.258 130.047 207.339 130.029 207.416L129.338 210.322C129.3 210.476 129.203 210.61 129.068 210.693C128.933 210.777 128.771 210.804 128.616 210.769Z" fill="#304F64"/>
<path d="M106.684 57.2165C103.445 57.9641 101.762 62.6648 102.923 67.6985L103.946 72.1328C104.351 73.895 104.597 75.6901 104.681 77.4964L104.983 84.0147L112.462 82.2637L110.889 75.4729C114.127 74.7253 115.811 70.0246 114.649 64.991C113.487 59.9573 109.919 56.4689 106.684 57.2165Z" fill="#FFD1C1"/>
<mask id="mask7_4_1221" style="mask-type:luminance" maskUnits="userSpaceOnUse" x="102" y="57" width="14" height="28">
<path d="M106.684 57.2165C103.445 57.9641 101.762 62.6648 102.923 67.6985L103.946 72.1328C104.351 73.895 104.597 75.6901 104.681 77.4964L104.983 84.0147L112.462 82.2637L110.889 75.4729C114.127 74.7253 115.811 70.0246 114.649 64.991C113.487 59.9573 109.919 56.4689 106.684 57.2165Z" fill="white"/>
</mask>
<g mask="url(#mask7_4_1221)">
<path d="M114.927 66.2002C114.927 66.2002 110.01 62.6906 105.977 63.6274L105.543 60.9743L114.77 61.8355C114.77 61.8355 115.753 65.4253 114.93 66.2063" fill="#FFB2A0"/>
</g>
<path d="M110.888 75.473C110.888 75.473 108.468 75.6591 106.287 72.8865C106.287 72.8865 107.763 77.1241 111.155 76.6277L110.888 75.473Z" fill="#FFB2A0"/>
<path d="M111.345 54.0186C109.043 52.935 107.715 53.5646 106.995 54.3607C106.218 55.2112 103.828 53.4405 101.273 55.1295C99.3066 56.4341 97.7093 58.6997 98.8846 61.9006C99.5577 63.7333 103.968 72.2524 103.968 72.2524L104.331 67.7969C104.006 67.4846 103.783 67.0817 103.69 66.6406C103.471 65.6841 103.82 64.7882 104.471 64.6368C105.121 64.4855 105.832 65.1408 106.05 66.0958C106.068 66.1775 106.081 66.2562 106.092 66.3349L106.137 66.3031C106.756 65.8612 106.525 61.8763 106.525 61.8763L111.235 62.6331C111.822 62.7283 112.423 62.6665 112.978 62.4539C113.533 62.2414 114.022 61.8857 114.396 61.4229C114.769 60.9601 115.013 60.4067 115.104 59.8189C115.194 59.2311 115.127 58.6298 114.911 58.0761C114.274 56.4598 113.188 54.8828 111.345 54.0186Z" fill="#1E303C"/>
<path d="M91.8252 120.155L97.6729 83.5304C97.8764 82.2584 98.5263 81.1006 99.506 80.2646C100.486 79.4287 101.731 78.9693 103.018 78.969H115.522C116.818 78.9692 118.071 79.4352 119.054 80.282C120.036 81.1289 120.681 82.3004 120.873 83.5834L126.337 120.155H91.8252Z" fill="white"/>
<path d="M116.488 78.975H101.967C102.016 79.5365 102.385 80.2493 102.846 80.9425C103.07 81.2737 103.364 81.5511 103.708 81.7544C104.052 81.9576 104.437 82.0817 104.835 82.1177C105.232 82.1536 105.633 82.1005 106.008 81.9621C106.383 81.8238 106.722 81.6037 107.001 81.3178L109.226 79.0476L111.453 81.3178C111.732 81.6037 112.071 81.8238 112.446 81.9621C112.821 82.1005 113.222 82.1536 113.619 82.1177C114.017 82.0817 114.402 81.9576 114.746 81.7544C115.09 81.5511 115.384 81.2737 115.608 80.9425C116.072 80.2493 116.441 79.5365 116.488 78.975Z" fill="#E8E8E8"/>
<path d="M110.108 82.7707L111.456 81.3178L109.231 79.0461L107.004 81.3178L108.064 82.6254L106.32 109.696L109.082 113.366L111.844 109.696L110.108 82.7707Z" fill="#373660"/>
<path d="M101.97 78.975L99.7285 122.713L88.623 120.594L94.2378 85.6341C94.5349 83.79 95.4738 82.1103 96.8887 80.8918C98.3036 79.6733 100.103 78.9944 101.97 78.975Z" fill="#FFC967"/>
<path d="M115.986 79.0461L118.229 122.784L129.335 120.665L123.72 85.7052C123.422 83.861 122.483 82.1813 121.068 80.9628C119.653 79.7443 117.853 79.0655 115.986 79.0461Z" fill="#FFC967"/>
<path d="M96.6111 81.1453L76.6267 98.5148L87.1014 108.375L98.0148 98.1743L96.6111 81.1453Z" fill="#FFC967"/>
<path d="M90.7769 101.863L96.1798 92.8925L94.159 100.847L100.766 102.483C100.766 102.483 100.854 104.246 100.766 104.226L90.7769 101.863Z" fill="#FFA648"/>
<path d="M89.6622 114.127L99.907 115.663L97.7425 118.277L89.219 116.897L89.6622 114.127Z" fill="#FFA648"/>
<path d="M110.726 67.8559C110.311 67.8559 109.905 67.7326 109.559 67.5016C109.214 67.2706 108.944 66.9423 108.785 66.5582C108.626 66.1741 108.585 65.7514 108.666 65.3436C108.747 64.9358 108.947 64.5613 109.241 64.2673C109.535 63.9733 109.909 63.7731 110.317 63.692C110.724 63.6109 111.147 63.6525 111.531 63.8116C111.914 63.9707 112.243 64.2401 112.473 64.5858C112.704 64.9315 112.827 65.338 112.827 65.7537C112.827 66.311 112.605 66.8452 112.211 67.2393C111.817 67.6333 111.283 67.8551 110.726 67.8559ZM110.726 63.9694C110.374 63.9691 110.029 64.0735 109.735 64.2694C109.442 64.4653 109.213 64.7438 109.078 65.0698C108.943 65.3959 108.907 65.7547 108.976 66.1009C109.044 66.4471 109.214 66.7652 109.463 67.0149C109.713 67.2646 110.031 67.4347 110.377 67.5037C110.722 67.5726 111.081 67.5374 111.407 67.4024C111.733 67.2674 112.012 67.0387 112.208 66.7452C112.404 66.4517 112.508 66.1067 112.508 65.7537C112.508 65.2809 112.32 64.8275 111.986 64.493C111.652 64.1585 111.199 63.9702 110.726 63.9694Z" fill="#373660"/>
<path d="M115.016 67.3368C114.601 67.3362 114.195 67.2122 113.849 66.9806C113.504 66.749 113.235 66.4201 113.077 66.0356C112.919 65.6511 112.878 65.2282 112.96 64.8204C113.042 64.4127 113.242 64.0384 113.537 63.745C113.832 63.4515 114.207 63.2521 114.614 63.1719C115.022 63.0917 115.445 63.1344 115.828 63.2945C116.212 63.4547 116.54 63.7251 116.77 64.0715C117 64.4179 117.122 64.8248 117.12 65.2407C117.118 65.7976 116.896 66.3309 116.501 66.7238C116.107 67.1168 115.573 67.3372 115.016 67.3368ZM115.016 63.4518C114.664 63.4518 114.319 63.5565 114.025 63.7526C113.732 63.9488 113.504 64.2275 113.369 64.5537C113.234 64.8798 113.199 65.2386 113.267 65.5848C113.336 65.931 113.506 66.2489 113.756 66.4984C114.005 66.7479 114.323 66.9177 114.669 66.9864C115.015 67.0551 115.374 67.0195 115.7 66.8842C116.026 66.7489 116.304 66.52 116.5 66.2264C116.696 65.9327 116.8 65.5876 116.8 65.2346C116.797 64.7628 116.608 64.3112 116.274 63.9783C115.94 63.6453 115.488 63.4583 115.016 63.4579V63.4518Z" fill="#373660"/>
<path d="M122.171 82.129L136.763 95.8013L153.459 73.4798L161.288 80.0889C161.288 80.0889 147.027 112.213 138.865 111.818C130.703 111.423 125.172 100.847 125.172 100.847L122.171 82.129Z" fill="#FFC967"/>
<path d="M126.498 103.004L124.762 92.1917C124.762 92.1917 131.569 110.639 139.826 111.821C139.826 111.821 136.302 112.473 131.407 108.562C126.512 104.652 126.498 103.004 126.498 103.004Z" fill="#FFA648"/>
<path d="M113.569 94.7706L115.198 94.8584C116.167 94.9108 117.117 95.1538 117.992 95.5734C118.868 95.9931 119.652 96.5811 120.301 97.304C120.949 98.0269 121.449 98.8706 121.771 99.7867C122.094 100.703 122.233 101.674 122.18 102.643L105.788 101.757C105.894 99.798 106.774 97.9617 108.233 96.6517C109.692 95.3416 111.611 94.665 113.569 94.7706Z" fill="#4F5285"/>
<path d="M105.499 107.021L121.891 107.906L122.025 105.425L105.633 104.54L105.499 107.021Z" fill="#4F5285"/>
<path d="M117.353 203.73L108.069 225.069C108.006 225.212 107.902 225.332 107.769 225.414C107.636 225.496 107.481 225.536 107.325 225.527C107.169 225.519 107.02 225.463 106.897 225.367C106.773 225.272 106.682 225.141 106.635 224.992L99.7043 202.769L99.9706 197.841L117.62 198.794L117.353 203.73Z" fill="#FFC967"/>
<mask id="mask8_4_1221" style="mask-type:luminance" maskUnits="userSpaceOnUse" x="99" y="197" width="19" height="29">
<path d="M117.353 203.73L108.069 225.069C108.006 225.212 107.902 225.332 107.769 225.414C107.636 225.496 107.481 225.536 107.325 225.527C107.169 225.519 107.02 225.463 106.897 225.367C106.773 225.272 106.682 225.141 106.635 224.992L99.7043 202.769L99.9706 197.841L117.62 198.794L117.353 203.73Z" fill="white"/>
</mask>
<g mask="url(#mask8_4_1221)">
<path d="M104.103 226.178L110.631 226.53L110.95 220.621L104.422 220.269L104.103 226.178Z" fill="#373660"/>
</g>
<path d="M104.495 199.316L108.529 203.253L113.124 199.418L117.353 203.73L122.355 111.078L104.707 110.124L99.7043 202.776L104.495 199.316Z" fill="#97CECF"/>
<path d="M105.148 106.996L122.253 107.921C122.658 107.943 123.037 108.125 123.308 108.427C123.579 108.729 123.719 109.126 123.697 109.531V109.619C123.675 110.024 123.493 110.403 123.191 110.674C122.889 110.945 122.493 111.084 122.088 111.063L104.983 110.138C104.783 110.127 104.587 110.077 104.405 109.991C104.224 109.904 104.062 109.782 103.928 109.633C103.794 109.484 103.69 109.309 103.624 109.12C103.557 108.93 103.528 108.73 103.539 108.529V108.441C103.561 108.036 103.743 107.657 104.045 107.386C104.347 107.115 104.743 106.975 105.148 106.996Z" fill="#1E303C"/>
<path d="M105.433 101.738L122.537 102.663C122.942 102.685 123.321 102.867 123.592 103.168C123.863 103.47 124.003 103.867 123.982 104.272V104.36C123.96 104.765 123.778 105.144 123.477 105.415C123.175 105.686 122.778 105.826 122.374 105.805L105.269 104.88C104.864 104.858 104.485 104.676 104.214 104.374C103.943 104.072 103.803 103.675 103.825 103.27V103.182C103.847 102.777 104.028 102.398 104.33 102.127C104.631 101.856 105.028 101.717 105.433 101.738Z" fill="#1E303C"/>
<path d="M104.495 199.316L109.297 110.372L118.002 110.843L113.219 199.422L108.529 203.253L104.495 199.316Z" fill="#18989B"/>
<path d="M76.6252 98.5133L111.171 106.686L108.133 116.895L78.3027 112.422C76.9644 112.208 75.7163 111.612 74.7084 110.706C73.7005 109.8 72.9758 108.621 72.6214 107.312C72.6002 107.229 72.5791 107.146 72.5594 107.063C72.3316 106.031 72.3575 104.96 72.6349 103.941C72.9124 102.923 73.433 101.986 74.1521 101.213L76.6252 98.5133Z" fill="#FFC967"/>
<path d="M110.421 108.375C110.421 108.375 115.001 109.05 115.691 109.549C116.381 110.049 118.533 113.536 119.114 114.898C119.695 116.26 115.978 121.828 115.063 121.181C114.148 120.535 111.477 115.474 111.171 115.338C110.866 115.202 108.946 114.884 109.013 114.127C109.079 113.371 110.421 108.375 110.421 108.375Z" fill="#FFD1C1"/>
<path d="M85.4234 59.3535C96.9788 47.7917 96.9788 29.0465 85.4234 17.4848C73.868 5.9231 55.1331 5.9231 43.5777 17.4848C32.0223 29.0465 32.0223 47.7917 43.5777 59.3535C55.1331 70.9152 73.868 70.9152 85.4234 59.3535Z" fill="#D1D1D1"/>
<path d="M64.4184 64.997C78.9858 64.997 90.7951 53.1813 90.7951 38.6059C90.7951 24.0305 78.9858 12.2148 64.4184 12.2148C49.851 12.2148 38.0417 24.0305 38.0417 38.6059C38.0417 53.1813 49.851 64.997 64.4184 64.997Z" fill="white"/>
<path d="M65.326 38.2563H63.6077V28.1981L64.4668 25.9507L65.326 28.1981V38.2563Z" fill="#E8E8E8"/>
<path d="M63.9147 37.9506L65.1308 39.1659L52.4749 51.8287L50.6704 52.3433L51.2588 50.6134L63.9147 37.9506Z" fill="#E8E8E8"/>
<path d="M64.4668 40.8034C65.6798 40.8034 66.6631 39.8196 66.6631 38.6059C66.6631 37.3923 65.6798 36.4084 64.4668 36.4084C63.2538 36.4084 62.2705 37.3923 62.2705 38.6059C62.2705 39.8196 63.2538 40.8034 64.4668 40.8034Z" fill="#D1D1D1"/>
<path d="M65.1792 13.8055H63.656V16.5932H65.1792V13.8055Z" fill="#E8E8E8"/>
<path d="M65.2278 60.2933H63.7046V63.081H65.2278V60.2933Z" fill="#E8E8E8"/>
<path d="M82.3742 21.5433L81.2971 20.4657L79.327 22.4369L80.404 23.5146L82.3742 21.5433Z" fill="#E8E8E8"/>
<path d="M49.5568 54.4479L48.4797 53.3703L46.5096 55.3415L47.5866 56.4192L49.5568 54.4479Z" fill="#E8E8E8"/>
<path d="M39.8176 37.7039V39.228H42.6038V37.7039H39.8176Z" fill="#E8E8E8"/>
<path d="M86.28 37.6555V39.1795H89.0662V37.6555H86.28Z" fill="#E8E8E8"/>
<path d="M47.5512 20.5021L46.4741 21.5797L48.4443 23.5509L49.5213 22.4733L47.5512 20.5021Z" fill="#E8E8E8"/>
<path d="M80.4406 53.3365L79.3635 54.4142L81.3337 56.3854L82.4107 55.3078L80.4406 53.3365Z" fill="#E8E8E8"/>
<path d="M340.74 54.2699V33.6147H320.096V54.2699H340.74Z" fill="#E8E8E8"/>
<path d="M338.847 35.5049H321.985V52.3766H338.847V35.5049Z" fill="#F7F7F7"/>
<path d="M354.804 42.8435V31.0797H343.046V42.8435H354.804Z" fill="#E8E8E8"/>
<path d="M353.727 32.1572H344.123V41.766H353.727V32.1572Z" fill="#F7F7F7"/>
<path d="M354.804 57.3255V45.5616H343.046V57.3255H354.804Z" fill="#E8E8E8"/>
<path d="M353.727 46.6392H344.123V56.2479H353.727V46.6392Z" fill="#F7F7F7"/>
<path d="M332.929 41.0804H327.904V46.108H332.929V41.0804Z" fill="#D1D1D1"/>
<path d="M351.438 34.4471H346.413V39.4746H351.438V34.4471Z" fill="#D1D1D1"/>
<path d="M351.438 48.929H346.413V53.9566H351.438V48.929Z" fill="#D1D1D1"/>
<path opacity="0.33" d="M314.269 156.812H251.22C249.916 156.812 248.858 157.87 248.858 159.174V181.47C248.858 182.775 249.916 183.833 251.22 183.833H314.269C315.573 183.833 316.63 182.775 316.63 181.47V159.174C316.63 157.87 315.573 156.812 314.269 156.812Z" fill="#18989B"/>
<path d="M312.221 161.398H253.309C252.778 161.398 252.348 161.828 252.348 162.359V164.144C252.348 164.675 252.778 165.105 253.309 165.105H312.221C312.752 165.105 313.182 164.675 313.182 164.144V162.359C313.182 161.828 312.752 161.398 312.221 161.398Z" fill="white"/>
<path d="M312.2 168.468H253.287C252.757 168.468 252.327 168.899 252.327 169.429V171.215C252.327 171.746 252.757 172.176 253.287 172.176H312.2C312.73 172.176 313.161 171.746 313.161 171.215V169.429C313.161 168.899 312.73 168.468 312.2 168.468Z" fill="white"/>
<path d="M285.501 175.541H253.024C252.628 175.541 252.307 175.862 252.307 176.258V178.531C252.307 178.927 252.628 179.248 253.024 179.248H285.501C285.897 179.248 286.218 178.927 286.218 178.531V176.258C286.218 175.862 285.897 175.541 285.501 175.541Z" fill="white"/>
<path d="M402 227H22V226H402V227Z" fill="#373660"/>
<path d="M392.759 225.62H378.807C378.441 225.62 378.088 225.485 377.815 225.241C377.542 224.997 377.368 224.661 377.327 224.297L375.101 204.651H396.058L394.243 224.267C394.208 224.637 394.037 224.981 393.763 225.231C393.488 225.481 393.13 225.62 392.759 225.62Z" fill="#4F5285"/>
<mask id="mask9_4_1221" style="mask-type:luminance" maskUnits="userSpaceOnUse" x="375" y="204" width="22" height="22">
<path d="M392.759 225.62H378.807C378.441 225.62 378.088 225.485 377.815 225.241C377.542 224.997 377.368 224.661 377.327 224.297L375.101 204.651H396.058L394.243 224.267C394.208 224.637 394.037 224.981 393.763 225.231C393.488 225.481 393.13 225.62 392.759 225.62Z" fill="white"/>
</mask>
<g mask="url(#mask9_4_1221)">
<path d="M372.616 221.935C372.616 221.935 384.653 218.97 397.691 209.07V227.003H372.042L372.616 221.935Z" fill="#373660"/>
</g>
<path d="M378.556 204.651C378.556 204.651 365.815 193.823 369.525 176.048C369.525 176.048 378.68 181.305 383.751 200.365C383.751 200.365 380.287 179.202 391.919 167.196C391.919 167.196 396.869 184.4 391.919 196.281C391.919 196.281 392.043 191.825 403.919 189.721C403.919 189.721 401.196 202.145 393.028 204.659L378.556 204.651Z" fill="#4F5285"/>
<path d="M379.28 204.651C379.28 204.651 371.717 184.715 377.957 171.961C377.957 171.961 387.498 191.135 385.231 204.651H379.28Z" fill="#FFC967"/>
<path d="M386.382 204.651C386.382 204.651 386.408 189.272 398.767 182.422C398.767 182.422 395.211 201.615 391.204 204.651H386.382Z" fill="#FFC967"/>
</g>
<defs>
<clipPath id="clip0_4_1221">
<rect width="427" height="227" fill="white"/>
</clipPath>
</defs>
</svg>
