<svg width="369" height="199" viewBox="0 0 369 199" fill="none" xmlns="http://www.w3.org/2000/svg">
<g style="mix-blend-mode:multiply" opacity="0.15">
<path d="M9.54445 198.618C9.54445 198.618 -8.87599 173.718 5.46363 146.02C21.6853 114.688 64.7281 109.56 85.879 90.7378C107.03 71.9159 107.036 31.8576 144.08 14.8229C171.522 2.20527 191.765 4.9607 224.388 22.2942C257.01 39.6278 270 28.0561 306.488 38.6296C346.042 50.0876 362.771 88.586 352.22 128.089C343.323 161.387 369.642 168.135 368.447 198.618H9.54445Z" fill="#18989B"/>
</g>
<path d="M283.688 199H72.3136C72.2307 199 72.1511 198.969 72.0924 198.915C72.0336 198.86 72.0004 198.786 72 198.709V49.2912C72.0004 49.2138 72.0336 49.1398 72.0924 49.0852C72.1511 49.0306 72.2307 49 72.3136 49H283.688C283.771 49 283.85 49.0307 283.909 49.0853C283.967 49.1399 284 49.214 284 49.2912V198.715C283.998 198.792 283.964 198.864 283.906 198.917C283.848 198.97 283.769 199 283.688 199ZM72.6258 198.416H283.374V49.5784H72.6258V198.416Z" fill="#18989B"/>
<path d="M277.383 190.53V56.2702L79.0388 56.2702V190.53H277.383Z" fill="white"/>
<path d="M243.939 6.34595H112.484V190.53H243.939V6.34595Z" fill="#18989B"/>
<path d="M234.276 16.6067H123.767V127.115H234.276V16.6067Z" fill="white"/>
<path opacity="0.4" d="M277.383 190.53V148.356H79.0388V190.53H277.383Z" fill="white"/>
<path d="M205.662 157.328H150.759C145.157 157.328 140.616 161.869 140.616 167.471V168.683C140.616 174.284 145.157 178.825 150.759 178.825H205.662C211.263 178.825 215.805 174.284 215.805 168.683V167.471C215.805 161.869 211.263 157.328 205.662 157.328Z" fill="white"/>
<path d="M150.701 174.179V162.227H154.886C156.337 162.227 157.438 162.505 158.187 163.061C158.936 163.617 159.311 164.431 159.312 165.503C159.323 166.053 159.165 166.592 158.86 167.05C158.554 167.5 158.115 167.843 157.604 168.032C158.181 168.161 158.694 168.489 159.053 168.958C159.415 169.452 159.601 170.052 159.583 170.663C159.583 171.813 159.216 172.683 158.482 173.274C157.748 173.866 156.703 174.166 155.347 174.177L150.701 174.179ZM153.163 167.235H154.986C156.228 167.213 156.848 166.718 156.848 165.749C156.848 165.207 156.692 164.817 156.377 164.579C156.061 164.342 155.565 164.221 154.886 164.221H153.163V167.235ZM153.163 168.975V172.202H155.273C155.853 172.202 156.305 172.064 156.631 171.787C156.794 171.646 156.923 171.469 157.008 171.271C157.092 171.072 157.131 170.857 157.12 170.642C157.12 169.546 156.552 168.99 155.415 168.975H153.163Z" fill="#18989B"/>
<path d="M165.86 169.805H163.898V174.179H161.436V162.227H165.877C167.29 162.227 168.379 162.542 169.145 163.171C169.911 163.801 170.295 164.691 170.295 165.84C170.295 166.655 170.118 167.335 169.766 167.88C169.368 168.46 168.811 168.912 168.161 169.181L170.746 174.064V174.179H168.104L165.86 169.805ZM163.898 167.816H165.887C166.507 167.816 166.986 167.658 167.325 167.343C167.664 167.027 167.834 166.594 167.834 166.041C167.834 165.479 167.674 165.035 167.354 164.712C167.033 164.388 166.542 164.226 165.88 164.227H163.901L163.898 167.816Z" fill="#18989B"/>
<path d="M178.913 171.717H174.595L173.774 174.179H171.16L175.61 162.227H177.891L182.365 174.179H179.747L178.913 171.717ZM175.26 169.728H178.244L176.741 165.254L175.26 169.728Z" fill="#18989B"/>
<path d="M193.199 174.179H190.735L185.936 166.316V174.179H183.478V162.227H185.936L190.738 170.108V162.227H193.193L193.199 174.179Z" fill="#18989B"/>
<path d="M195.35 174.179V162.227H199.027C200.013 162.21 200.986 162.455 201.847 162.937C202.675 163.409 203.349 164.11 203.789 164.956C204.266 165.877 204.506 166.902 204.487 167.939V168.489C204.506 169.519 204.27 170.537 203.8 171.453C203.365 172.297 202.693 172.995 201.868 173.465C201.009 173.948 200.038 174.197 199.052 174.187L195.35 174.179ZM197.812 164.221V172.202H199.007C199.97 172.202 200.706 171.887 201.215 171.257C201.723 170.627 201.983 169.727 201.995 168.558V167.925C201.995 166.71 201.743 165.789 201.24 165.163C200.737 164.537 200.001 164.224 199.031 164.223L197.812 164.221Z" fill="#18989B"/>
<path d="M222.924 127.114L218.436 95.3953L211.72 35.9774C211.72 35.9774 172.691 34.0978 150.782 35.0369C145.767 35.2565 140.969 37.1389 137.142 40.3875C114.395 59.6658 113.619 80.4957 124.948 88.7518C131.597 93.5966 135.79 94.3254 139.998 95.1978L134.741 127.114H222.924Z" fill="#8B865C"/>
<path d="M211.72 35.9774L206.004 99.4018C206.004 99.4018 222.373 104.894 230.251 89.9636C238.129 75.0328 241.962 36.9904 211.72 35.9774Z" fill="#8B865C"/>
<path d="M146.079 95.9067C143.013 95.9067 140.79 95.6709 140.737 95.6623C140.655 95.6475 140.583 95.6008 140.535 95.5327C140.488 95.4645 140.47 95.3804 140.484 95.2986C140.491 95.2581 140.506 95.2193 140.528 95.1845C140.55 95.1498 140.578 95.1198 140.612 95.0962C140.646 95.0727 140.684 95.0561 140.724 95.0474C140.764 95.0387 140.806 95.0382 140.846 95.0457C140.988 95.067 155.047 96.5105 161.102 91.9598C161.135 91.9325 161.173 91.9121 161.214 91.8999C161.254 91.8877 161.297 91.884 161.34 91.8889C161.382 91.8938 161.423 91.9072 161.46 91.9285C161.497 91.9497 161.529 91.9782 161.555 92.0123C161.58 92.0463 161.599 92.0853 161.609 92.1267C161.619 92.1681 161.62 92.2111 161.613 92.2531C161.606 92.2951 161.59 92.3353 161.567 92.3711C161.544 92.4069 161.514 92.4376 161.479 92.4614C157.651 95.337 150.843 95.9067 146.079 95.9067Z" fill="#363E44"/>
<path d="M210.06 101.168C202.104 101.168 197.293 97.9001 197.228 97.8546C197.166 97.8049 197.124 97.7333 197.113 97.6544C197.101 97.5755 197.12 97.4951 197.166 97.4296C197.211 97.3642 197.28 97.3185 197.358 97.3019C197.436 97.2853 197.518 97.299 197.586 97.3403C197.674 97.4014 206.567 103.428 220.254 98.7895C220.331 98.7687 220.414 98.7781 220.484 98.8158C220.554 98.8535 220.608 98.9166 220.633 98.9923C220.659 99.068 220.655 99.1506 220.621 99.2232C220.588 99.2959 220.529 99.3531 220.455 99.3833C216.59 100.693 213.096 101.168 210.06 101.168Z" fill="#363E44"/>
<path d="M142.159 62.6765C137.329 63.6284 134.53 67.8779 133.191 72.6218C131.913 77.1427 132.536 82.4095 139.433 86.6405C157.866 97.9541 203.367 75.0556 203.367 75.0556L209.476 61.0568C192.426 57.9439 158.478 59.4655 142.159 62.6765Z" fill="#E2A18D"/>
<path d="M215.66 64.4879C219.325 66.1204 221.769 65.8917 221.922 64.8218C222.172 63.1354 219.623 61.2088 214.695 59.2396C218.478 59.6474 219.457 59.1828 219.366 58.2025C219.202 56.4123 215.12 54.8694 211.301 54.0595C207.003 53.1474 203.353 53.9302 201.063 54.4858L201.021 54.4545C191.599 57.7492 190.898 64.4638 189.394 67.5255C186.567 73.2853 189.508 75.7205 189.64 75.7958C190.551 76.3465 191.536 76.7642 192.565 77.0361C197.783 78.3788 200.693 74.8297 206.825 73.7371C213.787 72.4982 218.402 75.7404 219.304 74.1776C219.932 73.0907 218.534 71.3772 214.642 69.2049C217.789 70.5148 222.134 72.1047 222.853 70.3642C223.575 68.3055 218.689 65.832 215.66 64.4879Z" fill="#E2A18D"/>
<path d="M214.509 69.4677C214.471 69.4675 214.433 69.4603 214.398 69.4464C213.542 69.1214 212.647 68.9112 211.735 68.8212C210.853 68.7342 209.964 68.7619 209.089 68.9036C209.008 68.913 208.927 68.891 208.863 68.8421C208.798 68.7933 208.755 68.7214 208.742 68.6415C208.729 68.5616 208.748 68.4799 208.794 68.4133C208.84 68.3467 208.91 68.3005 208.989 68.2842C210.884 67.979 212.827 68.1779 214.621 68.861C214.689 68.8875 214.746 68.9369 214.782 69.0008C214.817 69.0646 214.829 69.1389 214.816 69.2108C214.803 69.2827 214.765 69.3477 214.709 69.3946C214.653 69.4415 214.582 69.4674 214.509 69.4677Z" fill="#363E44"/>
<path d="M215.675 65.015C215.626 65.0149 215.577 65.0032 215.533 64.9809C213.663 64.026 211.572 63.5847 209.475 63.7022C209.392 63.7071 209.311 63.6789 209.249 63.6238C209.187 63.5686 209.149 63.491 209.144 63.4081C209.139 63.3252 209.167 63.2438 209.222 63.1817C209.278 63.1196 209.355 63.082 209.438 63.0771C211.646 62.9512 213.847 63.4135 215.817 64.4169C215.881 64.4484 215.931 64.5004 215.961 64.5645C215.991 64.6286 215.999 64.7009 215.982 64.7697C215.966 64.8385 215.926 64.8996 215.871 64.9431C215.815 64.9867 215.746 65.01 215.675 65.0093V65.015Z" fill="#363E44"/>
<path d="M214.583 59.6047C214.548 59.6046 214.513 59.5989 214.48 59.5877C212.358 58.8548 210.079 58.696 207.875 59.1274C207.796 59.1382 207.715 59.1184 207.65 59.0718C207.585 59.0252 207.54 58.9554 207.524 58.8768C207.509 58.7981 207.524 58.7166 207.567 58.6488C207.61 58.581 207.677 58.5321 207.754 58.5122C210.067 58.0601 212.458 58.2268 214.685 58.9952C214.754 59.0201 214.813 59.0685 214.85 59.132C214.887 59.1956 214.901 59.2701 214.888 59.3428C214.876 59.4154 214.839 59.4814 214.783 59.5293C214.727 59.5772 214.656 59.6039 214.583 59.6047Z" fill="#363E44"/>
<path d="M215.186 72.6076C219.697 74.581 221.509 79.3363 221.79 84.2579C222.057 88.9464 220.311 93.9546 212.662 96.5929C192.215 103.646 152.752 71.4454 152.752 71.4454L149.821 56.4563C167.138 57.1028 199.95 65.9371 215.186 72.6076Z" fill="#E2A18D"/>
<path d="M213.925 72.3803C213.883 72.3798 213.842 72.3716 213.804 72.3561C203.063 67.8495 185.623 62.7333 170.405 59.6275C170.365 59.6193 170.327 59.6032 170.293 59.5802C170.259 59.5572 170.229 59.5277 170.207 59.4934C170.184 59.4591 170.168 59.4207 170.16 59.3803C170.153 59.3399 170.153 59.2984 170.161 59.2581C170.169 59.2178 170.185 59.1795 170.208 59.1454C170.231 59.1113 170.261 59.0821 170.295 59.0594C170.329 59.0367 170.368 59.021 170.408 59.0132C170.449 59.0053 170.49 59.0055 170.53 59.0137C185.784 62.128 203.272 67.2542 214.046 71.7779C214.112 71.8063 214.166 71.8566 214.199 71.9204C214.233 71.9841 214.243 72.0574 214.229 72.128C214.215 72.1986 214.177 72.2622 214.122 72.3081C214.066 72.354 213.997 72.3795 213.925 72.3803Z" fill="#363E44"/>
<path d="M143.037 58.461C139.106 59.2609 136.776 58.5093 136.853 57.4296C136.973 55.7246 139.877 54.4005 145.116 53.5452C141.334 53.119 140.48 52.4597 140.78 51.522C141.328 49.8171 145.649 49.1877 149.551 49.2232C153.944 49.263 157.339 50.8187 159.456 51.8502C159.471 51.8417 159.487 51.836 159.502 51.8289C167.989 57.0857 167.219 63.7917 168.027 67.1107C169.54 73.345 166.142 75.0854 165.995 75.1309C164.986 75.4716 163.934 75.6658 162.87 75.7077C157.483 75.8881 155.412 71.7935 149.656 69.3995C143.132 66.6844 137.921 68.8482 137.378 67.1263C137 65.9286 138.736 64.559 143.007 63.2817C139.651 63.8798 135.064 64.4908 134.74 62.6352C134.484 60.4728 139.789 59.1217 143.037 58.461Z" fill="#E2A18D"/>
<path d="M148.612 64.2165C148.573 64.2167 148.534 64.209 148.497 64.1938C146.815 63.5255 144.987 63.3119 143.196 63.5744C143.156 63.581 143.114 63.5794 143.074 63.5696C143.034 63.5598 142.996 63.5421 142.963 63.5174C142.93 63.4928 142.902 63.4617 142.881 63.4261C142.86 63.3905 142.847 63.351 142.841 63.3101C142.835 63.2694 142.837 63.2279 142.847 63.1881C142.857 63.1482 142.875 63.1107 142.9 63.0777C142.924 63.0447 142.955 63.0168 142.99 62.9958C143.026 62.9747 143.065 62.9608 143.105 62.9549C145.005 62.6775 146.943 62.9038 148.727 63.6113C148.795 63.6385 148.851 63.6882 148.886 63.752C148.921 63.8158 148.932 63.8898 148.919 63.9612C148.905 64.0327 148.867 64.0972 148.811 64.1437C148.755 64.1903 148.685 64.216 148.612 64.2165Z" fill="#363E44"/>
<path d="M149.33 59.0506C149.301 59.0511 149.272 59.0472 149.244 59.0393C148.257 58.7595 147.237 58.61 146.211 58.5946C145.147 58.5783 144.085 58.7044 143.054 58.9697C142.974 58.9885 142.89 58.9752 142.82 58.9327C142.749 58.8902 142.699 58.8218 142.678 58.7422C142.658 58.6626 142.669 58.5782 142.71 58.507C142.751 58.4359 142.819 58.3836 142.898 58.3616C143.983 58.0834 145.101 57.9511 146.221 57.968C147.304 57.9868 148.38 58.1468 149.422 58.444C149.495 58.4642 149.558 58.5103 149.6 58.5736C149.641 58.6369 149.659 58.7132 149.648 58.7882C149.638 58.8632 149.6 58.9319 149.543 58.9815C149.486 59.0311 149.413 59.0582 149.337 59.0577L149.33 59.0506Z" fill="#363E44"/>
<path d="M151.924 54.939C151.881 54.9389 151.839 54.9302 151.799 54.9134C149.74 54.0148 147.481 53.6761 145.249 53.9317C145.208 53.9363 145.167 53.9329 145.128 53.9216C145.088 53.9102 145.051 53.8912 145.019 53.8656C144.987 53.84 144.96 53.8084 144.94 53.7724C144.92 53.7364 144.907 53.6969 144.903 53.656C144.898 53.6152 144.901 53.5738 144.913 53.5342C144.924 53.4947 144.943 53.4578 144.969 53.4256C144.994 53.3934 145.026 53.3666 145.062 53.3466C145.098 53.3267 145.137 53.314 145.178 53.3094C147.519 53.0405 149.89 53.3959 152.049 54.3394C152.115 54.3679 152.169 54.4184 152.203 54.4824C152.236 54.5463 152.246 54.6197 152.231 54.6902C152.217 54.7607 152.178 54.824 152.122 54.8693C152.066 54.9146 151.996 54.9393 151.924 54.939Z" fill="#363E44"/>
<path d="M176.856 87.9959C176.802 87.996 176.75 87.9823 176.704 87.9561C163.569 80.6221 152.663 71.7594 152.551 71.6727C148.634 68.6422 141.997 68.0143 139.393 68.1862C138.272 68.2586 137.529 68.0441 137.185 67.5525C136.804 67.0041 137.09 66.3591 137.101 66.3307C137.141 66.2652 137.203 66.2166 137.276 66.1939C137.35 66.1712 137.429 66.176 137.498 66.2075C137.568 66.2389 137.624 66.2947 137.656 66.3645C137.687 66.4343 137.692 66.5132 137.67 66.5864C137.67 66.5949 137.519 66.9459 137.698 67.1987C137.903 67.49 138.491 67.625 139.347 67.561C142.027 67.3849 148.867 68.037 152.937 71.1826C153.051 71.2749 163.917 80.1036 177.002 87.4091C177.063 87.4426 177.111 87.4955 177.139 87.5596C177.167 87.6236 177.172 87.695 177.154 87.7624C177.137 87.8299 177.097 87.8895 177.042 87.9318C176.986 87.9741 176.918 87.9967 176.849 87.9959H176.856Z" fill="#363E44"/>
<path d="M172.373 16.5627C173.881 17.992 174.118 20.1899 172.902 21.4728C171.686 22.7558 169.476 22.6379 167.969 21.2086C166.461 19.7793 166.224 17.5814 167.442 16.2984C168.659 15.0155 170.866 15.1334 172.373 16.5627Z" fill="#E2A18D"/>
<path d="M193.273 15.4176C194.008 13.4742 193.264 11.3917 191.61 10.7663C189.957 10.1408 188.02 11.2092 187.285 13.1526C186.55 15.096 187.295 17.1785 188.948 17.804C190.602 18.4294 192.538 17.361 193.273 15.4176Z" fill="#E2A18D"/>
<path d="M179.335 43.3072C178.453 43.2667 177.587 43.0528 176.788 42.6778C175.988 42.3028 175.271 41.774 174.676 41.1216C174.081 40.4692 173.62 39.7059 173.32 38.8755C173.02 38.045 172.887 37.1636 172.927 36.2815L173.549 17.212L186.984 17.8286L186.362 36.8981C186.28 38.6798 185.493 40.3559 184.176 41.5578C182.858 42.7597 181.117 43.3889 179.335 43.3072Z" fill="#E2A18D"/>
<path d="M184.589 32.3147C174.087 34.8124 170.569 17.1622 170.569 17.1622L189.263 13.2111C189.263 13.2111 194.771 29.8937 184.589 32.3147Z" fill="#363E44"/>
<path d="M180.144 11.6117C180.271 7.82939 177.308 4.65991 173.526 4.53245C169.744 4.405 166.574 7.36783 166.447 11.1501C166.319 14.9324 169.282 18.1019 173.064 18.2294C176.847 18.3568 180.016 15.394 180.144 11.6117Z" fill="#363E44"/>
<path d="M189.306 14.6063C190.646 20.4499 186.274 18.0161 181.3 19.1627C176.326 20.3092 172.633 24.5772 171.295 18.7364C169.956 12.8957 173.187 8.85075 178.161 7.70987C183.135 6.569 187.967 8.76124 189.306 14.6063Z" fill="#E2A18D"/>
<path d="M189.809 17.7831C189.768 17.7829 189.727 17.7746 189.689 17.7586C189.651 17.7427 189.617 17.7194 189.588 17.6901C189.559 17.6608 189.536 17.626 189.52 17.5879C189.505 17.5497 189.497 17.5089 189.498 17.4677C189.5 15.6633 189.113 13.8797 188.361 12.2393C188.339 12.2015 188.326 12.1596 188.321 12.1162C188.317 12.0729 188.321 12.0291 188.335 11.9877C188.348 11.9462 188.37 11.9079 188.399 11.8753C188.427 11.8427 188.463 11.8165 188.502 11.7983C188.542 11.7801 188.585 11.7703 188.628 11.7696C188.672 11.7689 188.715 11.7772 188.755 11.7941C188.795 11.811 188.832 11.8361 188.862 11.8677C188.892 11.8993 188.915 11.9369 188.929 11.9779C189.717 13.7019 190.123 15.5763 190.117 17.472C190.116 17.5538 190.084 17.6321 190.026 17.6902C189.968 17.7483 189.891 17.7816 189.809 17.7831Z" fill="#363E44"/>
<path d="M172.063 21.7882C172.004 21.7883 171.946 21.7717 171.896 21.7403C171.845 21.7089 171.805 21.664 171.779 21.6106C170.955 19.9037 170.511 18.0385 170.478 16.1435C170.482 16.0639 170.516 15.9888 170.573 15.9334C170.63 15.8779 170.707 15.8464 170.786 15.8451C170.866 15.8439 170.943 15.873 171.002 15.9265C171.061 15.9801 171.098 16.0541 171.104 16.1336C171.137 17.9375 171.559 19.713 172.343 21.3379C172.367 21.3858 172.378 21.439 172.375 21.4923C172.372 21.5456 172.356 21.5973 172.327 21.6425C172.299 21.6876 172.259 21.7248 172.212 21.7503C172.165 21.7758 172.112 21.7889 172.059 21.7882H172.063Z" fill="#363E44"/>
<path d="M181.428 19.687C181.349 19.6865 181.274 19.6571 181.216 19.6045C181.155 19.5484 181.118 19.4701 181.114 19.387C181.111 19.3039 181.14 19.2227 181.196 19.1613C181.375 18.9652 181.463 18.789 181.445 18.6654C181.431 18.5773 181.364 18.5106 181.239 18.3813C181.04 18.2072 180.883 17.9906 180.78 17.7476C180.669 17.4599 180.64 17.1473 180.695 16.844C180.699 16.8019 180.713 16.7612 180.734 16.7244C180.755 16.6876 180.783 16.6555 180.817 16.6299C180.851 16.6043 180.889 16.5859 180.931 16.5756C180.972 16.5654 181.014 16.5635 181.056 16.5703C181.098 16.577 181.138 16.5921 181.174 16.6147C181.21 16.6373 181.241 16.6669 181.265 16.7018C181.289 16.7367 181.306 16.7761 181.314 16.8176C181.323 16.8591 181.323 16.9019 181.314 16.9435C181.279 17.1338 181.295 17.3302 181.362 17.5118C181.434 17.6725 181.542 17.8148 181.676 17.928C181.874 18.0871 182.011 18.3101 182.063 18.5589C182.114 18.8842 181.978 19.2252 181.659 19.5747C181.631 19.6089 181.596 19.6365 181.556 19.6559C181.516 19.6753 181.472 19.6858 181.428 19.687Z" fill="#363E44"/>
<path d="M180.013 22.5867C179.64 22.5877 179.272 22.5143 178.929 22.3708C178.527 22.1993 178.171 21.9372 177.889 21.605C177.862 21.5737 177.842 21.5375 177.829 21.4984C177.816 21.4594 177.811 21.4182 177.815 21.3772C177.818 21.3362 177.829 21.2963 177.848 21.2597C177.866 21.2231 177.892 21.1905 177.923 21.1638C177.955 21.1371 177.991 21.1169 178.03 21.1042C178.069 21.0915 178.11 21.0866 178.151 21.0899C178.192 21.0931 178.232 21.1044 178.269 21.123C178.305 21.1417 178.338 21.1674 178.364 21.1986C178.584 21.4567 178.861 21.6604 179.173 21.7939C179.624 21.9794 180.122 22.0128 180.594 21.8891C180.633 21.8789 180.675 21.8766 180.716 21.8823C180.756 21.8881 180.796 21.9018 180.831 21.9227C180.866 21.9436 180.897 21.9713 180.922 22.0042C180.947 22.0371 180.965 22.0745 180.975 22.1143C180.985 22.1542 180.988 22.1956 180.982 22.2363C180.976 22.2771 180.962 22.3163 180.942 22.3517C180.921 22.3871 180.893 22.4181 180.86 22.4428C180.827 22.4675 180.79 22.4855 180.75 22.4958C180.509 22.5569 180.261 22.5875 180.013 22.5867Z" fill="white"/>
<path d="M169.55 15.8523C169.55 15.8523 174.536 15.7102 178.528 8.89054C178.528 8.89054 190.036 19.4781 194.639 3.45328C194.639 3.45328 190.751 6.05754 187.972 3.51579C183.547 -0.529128 174.244 -2.7853 172.343 6.45393L169.55 15.8523Z" fill="#363E44"/>
<path d="M185.927 13.6785H185.905C185.905 13.7268 185.886 13.7907 185.838 13.8007C185.807 13.8901 185.785 13.9825 185.774 14.0763C185.734 14.2184 185.511 14.1516 185.551 14.0067C185.578 13.9087 185.306 14.1488 185.183 14.2298C184.788 14.4954 184.383 14.7427 183.969 14.9771C183.776 15.0865 183.584 15.1973 183.387 15.2996C183.229 15.382 182.716 15.6832 182.667 15.6676C182.404 16.0423 182.187 16.4467 182.02 16.8724C182.666 16.9766 183.325 16.9737 183.971 16.8639C183.971 16.8482 183.971 16.834 183.971 16.8198C183.964 16.6777 186.244 15.5525 186.335 15.6448C186.874 15.0869 187.299 14.4291 187.585 13.7083C187.037 13.6213 186.479 13.6112 185.927 13.6785Z" fill="white"/>
<path d="M184.192 14.2212C183.583 14.5847 183.062 15.0792 182.668 15.669C182.831 16.1246 183.159 16.5027 183.587 16.7289C183.7 16.7875 183.818 16.8351 183.94 16.871C184.457 16.7902 184.955 16.619 185.413 16.3652C185.746 16.1703 186.051 15.9314 186.321 15.6548C186.44 15.3184 186.465 14.9556 186.392 14.6062C186.318 14.2568 186.15 13.9344 185.906 13.6743C185.304 13.7417 184.722 13.9276 184.192 14.2212Z" fill="#363E44"/>
<path d="M174.143 16.5456L174.165 16.5385C174.186 16.5811 174.23 16.6323 174.277 16.6195C174.344 16.6871 174.404 16.7613 174.456 16.8411C174.554 16.9548 174.725 16.7943 174.626 16.6806C174.56 16.6039 174.911 16.7005 175.053 16.7218C175.524 16.7886 175.996 16.8355 176.473 16.8639C176.695 16.8781 176.917 16.8951 177.138 16.9022C177.316 16.9022 177.908 16.9562 177.947 16.9193C178.346 17.1433 178.717 17.4137 179.052 17.7249C178.515 18.0989 177.921 18.3821 177.292 18.5631C177.292 18.5503 177.279 18.5375 177.273 18.5233C177.218 18.3812 174.675 18.3713 174.635 18.4935C173.907 18.2246 173.239 17.8169 172.667 17.2929C173.122 16.9757 173.619 16.7241 174.143 16.5456Z" fill="white"/>
<path d="M175.939 16.2814C176.646 16.3423 177.33 16.5613 177.941 16.9221C177.993 17.403 177.862 17.8859 177.575 18.2747C177.5 18.3779 177.414 18.4731 177.32 18.5589C176.819 18.7106 176.296 18.7731 175.773 18.7436C175.389 18.715 175.011 18.6342 174.649 18.5035C174.395 18.2526 174.215 17.9366 174.129 17.5902C174.043 17.2438 174.055 16.8804 174.162 16.54C174.731 16.3373 175.335 16.2494 175.939 16.2814Z" fill="#363E44"/>
<path opacity="0.5" d="M293.456 101.907H210.846V124.558H218.632V137.875L231.376 124.558H293.456V101.907Z" fill="white"/>
<path d="M221.188 140.745C221.148 140.744 221.108 140.736 221.071 140.722C221.014 140.699 220.966 140.66 220.931 140.609C220.896 140.559 220.877 140.499 220.875 140.438V127.435H213.402C213.319 127.435 213.239 127.402 213.18 127.343C213.121 127.284 213.088 127.204 213.088 127.121V104.464C213.088 104.381 213.121 104.301 213.18 104.242C213.239 104.183 213.319 104.15 213.402 104.15H296.012C296.054 104.15 296.094 104.158 296.132 104.174C296.17 104.19 296.205 104.213 296.234 104.242C296.263 104.271 296.286 104.306 296.302 104.344C296.317 104.382 296.325 104.423 296.325 104.464V127.114C296.325 127.155 296.317 127.196 296.302 127.234C296.286 127.272 296.263 127.307 296.234 127.336C296.205 127.365 296.17 127.388 296.132 127.404C296.094 127.42 296.054 127.428 296.012 127.428H234.067L221.422 140.641C221.392 140.674 221.356 140.7 221.316 140.717C221.276 140.735 221.232 140.745 221.188 140.745ZM213.715 126.801H221.188C221.271 126.801 221.35 126.834 221.409 126.893C221.468 126.951 221.501 127.031 221.502 127.114V139.651L233.706 126.898C233.735 126.868 233.771 126.843 233.809 126.827C233.848 126.81 233.89 126.802 233.932 126.801H295.698V104.779H213.72L213.715 126.801Z" fill="white"/>
<path d="M223.038 112.976L226.716 113.442L224.109 116.079L224.804 119.722L221.489 118.056L218.24 119.842L218.799 116.177L216.096 113.638L219.756 113.037L221.335 109.681L223.038 112.976Z" fill="#D87355"/>
<path d="M238.375 112.976L242.053 113.442L239.446 116.079L240.139 119.722L236.826 118.056L233.575 119.842L234.135 116.177L231.433 113.638L235.093 113.037L236.673 109.681L238.375 112.976Z" fill="#D87355"/>
<path d="M253.71 112.976L257.39 113.442L254.783 116.079L255.476 119.722L252.163 118.056L248.913 119.842L249.472 116.177L246.77 113.638L250.428 113.037L252.008 109.681L253.71 112.976Z" fill="#D87355"/>
<path d="M269.048 112.976L272.727 113.442L270.119 116.079L270.814 119.722L267.5 118.056L264.25 119.842L264.81 116.177L262.106 113.638L265.766 113.037L267.346 109.681L269.048 112.976Z" fill="#D87355"/>
<path d="M284.385 112.976L288.063 113.442L285.456 116.079L286.151 119.722L282.836 118.056L279.587 119.842L280.145 116.177L277.443 113.638L281.103 113.037L282.683 109.681L284.385 112.976Z" fill="#D87355"/>
<path d="M107.053 179.067C107.042 179.091 107.053 179.117 107.039 179.141C106.98 179.517 106.956 179.897 106.965 180.277C106.992 180.424 107.028 180.569 107.072 180.712C107.092 180.824 107.11 180.934 107.134 181.045C107.829 180.676 108.433 180.156 108.9 179.523C108.316 179.266 107.691 179.111 107.053 179.067Z" fill="white"/>
<path d="M294.153 191.766H239.596L245.965 159.784L289.44 150.809C293.451 164.125 294.282 179.791 294.153 191.766Z" fill="#1E2F3C"/>
<path d="M287.473 121.606C287.473 121.606 273.123 116.871 251.004 121.713L243.133 176.682H298.295L287.473 121.606Z" fill="white"/>
<path d="M279.056 119.832C278.9 119.82 280.488 146.977 280.885 164.542C280.968 169.51 280.747 174.479 280.224 179.42L298.295 176.682C298.295 176.682 298.143 172.748 298.093 171.437C298.047 170.265 297.912 166.748 297.912 166.748L300.329 123.285C300.329 123.285 292.357 120.87 279.056 119.832Z" fill="#8B865C"/>
<path d="M289.645 163.821L300.93 167.814C302.972 168.536 305.215 168.431 307.18 167.52C309.145 166.609 310.676 164.966 311.444 162.94C314.375 155.221 314.363 146.67 311.293 139.006C308.986 133.247 305.485 127.051 300.336 123.288L289.645 163.821Z" fill="#8B865C"/>
<path d="M296.544 147.77C296.468 147.769 296.395 147.741 296.338 147.691C296.281 147.641 296.244 147.572 296.234 147.497L295.139 139.307C295.134 139.267 295.136 139.225 295.147 139.186C295.158 139.146 295.176 139.109 295.201 139.076C295.226 139.043 295.257 139.016 295.293 138.995C295.328 138.975 295.368 138.961 295.408 138.956C295.449 138.95 295.491 138.953 295.53 138.964C295.57 138.974 295.607 138.993 295.64 139.018C295.673 139.043 295.7 139.074 295.721 139.109C295.741 139.145 295.755 139.184 295.76 139.225L296.855 147.414C296.866 147.497 296.844 147.58 296.793 147.646C296.743 147.712 296.668 147.756 296.585 147.767L296.544 147.77Z" fill="#363E44"/>
<path d="M259.205 120.072L255.905 180.005L238.705 176.682C238.705 176.682 239.361 171.665 239.654 169.852C240.951 161.812 239.796 151.422 239.796 151.422L238.711 125.107C238.711 125.107 248.274 121.073 259.205 120.072Z" fill="#8B865C"/>
<path d="M238.705 125.107L242.541 149.886L227.641 158.204C226.271 158.968 224.759 159.446 223.199 159.608C221.638 159.769 220.06 159.612 218.562 159.145C217.064 158.678 215.677 157.911 214.485 156.891C213.292 155.871 212.32 154.619 211.627 153.211L209.697 145.238L238.705 125.107Z" fill="#8B865C"/>
<path d="M239.763 151.579C239.684 151.578 239.607 151.548 239.55 151.493C239.492 151.439 239.457 151.364 239.452 151.285L238.777 140.849C238.775 140.808 238.78 140.767 238.794 140.728C238.807 140.689 238.828 140.653 238.855 140.622C238.882 140.591 238.915 140.566 238.952 140.548C238.989 140.53 239.029 140.519 239.07 140.517C239.111 140.514 239.152 140.519 239.191 140.533C239.23 140.546 239.266 140.567 239.297 140.594C239.328 140.621 239.353 140.654 239.371 140.691C239.389 140.728 239.4 140.768 239.403 140.809L240.077 151.245C240.082 151.328 240.054 151.409 240 151.471C239.945 151.534 239.868 151.572 239.785 151.577L239.763 151.579Z" fill="#363E44"/>
<path d="M272.434 155.473C272.369 155.473 272.306 155.453 272.253 155.416C272.2 155.379 272.16 155.326 272.138 155.266L262.778 128.969H242.319C242.276 128.971 242.233 128.966 242.193 128.951C242.152 128.937 242.115 128.914 242.084 128.885C242.052 128.855 242.027 128.82 242.01 128.78C241.993 128.741 241.984 128.698 241.984 128.655C241.984 128.612 241.993 128.57 242.01 128.53C242.027 128.491 242.052 128.455 242.084 128.426C242.115 128.397 242.152 128.374 242.193 128.36C242.233 128.345 242.276 128.339 242.319 128.342H263.224L263.298 128.549L272.734 155.057C272.761 155.135 272.756 155.221 272.721 155.296C272.685 155.371 272.621 155.429 272.543 155.457C272.508 155.468 272.471 155.474 272.434 155.473Z" fill="#363E44"/>
<path d="M250.754 156.442H271.438L262.003 129.935H241.319L250.754 156.442Z" fill="#1E2F3C"/>
<path d="M303.455 151.469C296.89 148.788 281.737 141.707 280.231 141.075C277.415 139.893 262.136 133.943 261.039 136.055C260.515 137.065 263.406 138.346 264.397 138.755C263.436 138.823 259.719 138.685 259.445 139.931C259.123 141.395 263.527 142.237 263.587 142.294C262.605 142.264 258.697 141.986 258.455 142.912C258.14 144.117 261.699 145.469 262.783 145.82C262.621 145.931 258.947 145.127 258.52 146.548C258.201 147.591 261.467 148.821 262.882 149.362C265.384 150.414 293.814 164.223 299.424 166.116C301.619 166.85 305.282 154.826 303.455 151.469Z" fill="#BC8271"/>
<path d="M303.549 151.657C303.507 151.656 303.465 151.648 303.426 151.633C301.315 150.742 292.694 146.995 289.412 145.523C289.372 145.508 289.335 145.485 289.305 145.455C289.274 145.426 289.25 145.39 289.233 145.35C289.217 145.311 289.209 145.269 289.209 145.226C289.21 145.183 289.219 145.141 289.237 145.102C289.255 145.063 289.28 145.028 289.312 144.999C289.343 144.97 289.381 144.948 289.421 144.935C289.462 144.921 289.505 144.916 289.547 144.919C289.59 144.923 289.631 144.935 289.669 144.955C292.948 146.425 301.561 150.169 303.669 151.064C303.735 151.093 303.79 151.143 303.823 151.207C303.857 151.271 303.867 151.344 303.853 151.414C303.839 151.485 303.801 151.549 303.746 151.595C303.69 151.64 303.621 151.666 303.549 151.667V151.657Z" fill="#363E44"/>
<path d="M269.597 140.215C269.551 140.216 269.507 140.206 269.466 140.187C268.444 139.715 267.367 139.37 266.261 139.161C265.645 139.045 265.022 138.973 264.397 138.944C264.354 138.944 264.312 138.935 264.273 138.918C264.234 138.902 264.199 138.877 264.169 138.846C264.14 138.816 264.117 138.779 264.102 138.74C264.088 138.7 264.081 138.657 264.083 138.615C264.085 138.572 264.096 138.531 264.114 138.493C264.133 138.454 264.159 138.42 264.191 138.392C264.223 138.365 264.261 138.344 264.301 138.331C264.341 138.318 264.384 138.313 264.426 138.317C266.261 138.405 268.062 138.847 269.729 139.619C269.794 139.648 269.847 139.7 269.878 139.764C269.91 139.828 269.919 139.901 269.904 139.97C269.888 140.04 269.849 140.103 269.793 140.147C269.738 140.192 269.668 140.216 269.597 140.215Z" fill="#363E44"/>
<path d="M267.248 143.624C267.203 143.623 267.158 143.613 267.117 143.594C266.095 143.122 265.019 142.778 263.912 142.57C263.78 142.544 263.648 142.521 263.519 142.501C263.476 142.497 263.435 142.484 263.397 142.464C263.36 142.443 263.327 142.415 263.301 142.381C263.275 142.347 263.256 142.309 263.245 142.267C263.234 142.226 263.232 142.183 263.239 142.14C263.245 142.098 263.261 142.058 263.283 142.022C263.306 141.985 263.336 141.954 263.371 141.93C263.407 141.906 263.446 141.889 263.488 141.881C263.53 141.873 263.573 141.873 263.615 141.882C263.752 141.903 263.889 141.927 264.029 141.954C265.186 142.172 266.311 142.532 267.38 143.026C267.445 143.056 267.497 143.107 267.528 143.171C267.56 143.235 267.569 143.308 267.553 143.378C267.538 143.447 267.499 143.509 267.444 143.554C267.388 143.599 267.319 143.623 267.248 143.624Z" fill="#363E44"/>
<path d="M264.988 146.904C264.943 146.905 264.898 146.895 264.857 146.876C264.188 146.567 263.495 146.312 262.785 146.114C262.743 146.106 262.704 146.088 262.669 146.063C262.634 146.039 262.604 146.007 262.582 145.97C262.559 145.934 262.545 145.893 262.539 145.85C262.533 145.808 262.536 145.764 262.547 145.723C262.559 145.682 262.579 145.643 262.606 145.61C262.633 145.576 262.666 145.549 262.704 145.529C262.742 145.509 262.784 145.497 262.827 145.494C262.87 145.491 262.913 145.496 262.953 145.511C263.695 145.718 264.42 145.984 265.12 146.306C265.184 146.336 265.237 146.388 265.268 146.452C265.299 146.516 265.308 146.588 265.293 146.658C265.277 146.728 265.239 146.79 265.183 146.835C265.128 146.879 265.059 146.904 264.988 146.904Z" fill="#363E44"/>
<path d="M226.05 142.158C222.937 135.844 220.074 128.18 218.3 124.564C214.643 117.109 208.16 106.637 206.708 107.563C205.88 108.092 206.469 109.703 208.33 113.904C208.023 113.786 207.006 113.658 206.32 114.274C205.303 115.184 205.813 116.209 205.814 116.32C205.713 116.271 204.536 115.78 203.754 116.274C202.87 116.831 202.7 117.695 202.828 118.51C202.573 118.397 201.421 118.098 200.697 118.61C199.749 119.276 199.844 120.555 200.285 121.407C201.082 122.97 203.363 127.191 204.285 129.577C205.432 132.545 209.078 143.733 212.367 152.178C214.815 158.475 230.678 151.539 226.05 142.158Z" fill="#BC8271"/>
<path d="M210.098 128.649C210.021 128.649 209.948 128.621 209.89 128.57C209.833 128.519 209.797 128.449 209.788 128.373C209.561 126.484 210.104 124.998 210.498 123.914C210.925 122.756 211.101 122.18 210.591 121.735C209.996 121.217 209.559 120.357 209.297 119.178C209.25 118.965 209.27 118.743 209.353 118.542C209.436 118.34 209.578 118.169 209.761 118.051C209.945 117.933 210.159 117.873 210.377 117.88C210.595 117.888 210.805 117.961 210.98 118.091L215.312 121.309C215.373 121.361 215.411 121.434 215.42 121.513C215.429 121.592 215.408 121.671 215.36 121.735C215.313 121.799 215.243 121.843 215.165 121.857C215.086 121.871 215.005 121.855 214.938 121.812L210.608 118.597C210.535 118.542 210.447 118.51 210.356 118.508C210.265 118.505 210.175 118.531 210.099 118.581C210.023 118.629 209.963 118.699 209.929 118.782C209.895 118.865 209.888 118.957 209.909 119.045C210.139 120.075 210.517 120.842 211.003 121.264C211.855 122.011 211.503 122.993 211.088 124.129C210.693 125.212 210.202 126.559 210.41 128.299C210.42 128.382 210.397 128.465 210.345 128.53C210.294 128.595 210.219 128.638 210.136 128.647L210.098 128.649Z" fill="#363E44"/>
<path d="M202.581 123.932C202.51 123.933 202.441 123.909 202.385 123.866C202.329 123.822 202.29 123.761 202.274 123.692C202.257 123.624 202.264 123.551 202.294 123.487C202.324 123.423 202.375 123.371 202.438 123.339C202.976 123.066 203.39 122.599 203.598 122.033C203.806 121.467 203.792 120.843 203.559 120.286L203.142 119.292C203.113 119.221 203.112 119.142 203.137 119.069C203.163 118.997 203.214 118.937 203.281 118.9C203.349 118.863 203.427 118.852 203.502 118.869C203.576 118.885 203.642 118.929 203.687 118.991L204.901 120.727C205.091 120.996 205.369 121.191 205.688 121.277C206.006 121.364 206.345 121.337 206.645 121.201C206.817 121.123 206.971 121.011 207.098 120.872C207.226 120.733 207.324 120.57 207.388 120.392C207.451 120.215 207.478 120.026 207.468 119.838C207.457 119.65 207.409 119.465 207.326 119.296L206.088 116.763C206.056 116.691 206.052 116.61 206.076 116.535C206.101 116.46 206.153 116.397 206.222 116.359C206.291 116.321 206.372 116.31 206.448 116.328C206.525 116.347 206.592 116.393 206.635 116.459L207.36 117.612C207.504 117.841 207.73 118.007 207.991 118.075C208.252 118.144 208.53 118.111 208.768 117.982C209.006 117.854 209.186 117.64 209.272 117.384C209.358 117.127 209.343 116.848 209.231 116.602L208.409 114.804C208.376 114.729 208.375 114.644 208.404 114.568C208.434 114.492 208.492 114.43 208.566 114.396C208.64 114.362 208.724 114.359 208.801 114.386C208.878 114.414 208.941 114.47 208.977 114.544L209.799 116.341C209.938 116.643 209.985 116.978 209.934 117.307C209.883 117.635 209.737 117.941 209.513 118.186C209.289 118.431 208.997 118.605 208.675 118.686C208.353 118.767 208.014 118.75 207.701 118.64L207.887 119.022C208.006 119.266 208.076 119.532 208.091 119.804C208.106 120.075 208.067 120.347 207.975 120.603C207.884 120.859 207.742 121.095 207.558 121.295C207.374 121.496 207.153 121.657 206.905 121.771C206.472 121.97 205.982 122.011 205.522 121.885C205.061 121.76 204.659 121.477 204.386 121.086L204.366 121.058C204.395 121.64 204.255 122.217 203.963 122.722C203.67 123.226 203.239 123.635 202.72 123.899C202.676 123.921 202.629 123.932 202.581 123.932Z" fill="#363E44"/>
<path d="M263.789 120.207L266.156 121.534C266.979 121.995 267.897 122.262 268.839 122.315C269.781 122.368 270.723 122.206 271.593 121.841C272.463 121.476 273.238 120.917 273.86 120.207C274.482 119.497 274.934 118.655 275.182 117.745L278.002 107.318C279.031 105.506 277.991 106.566 276.18 105.539C274.37 104.512 269.189 102.829 268.16 104.639L263.789 120.207Z" fill="#BC8271"/>
<path d="M261.088 113.492C262.521 116.072 270.634 113.937 270.634 113.937L277.678 109.149C278.113 108.257 278.368 107.288 278.427 106.297C278.485 105.306 278.347 104.313 278.021 103.376C277.694 102.439 277.185 101.575 276.523 100.836C275.861 100.096 275.059 99.4953 274.163 99.0673C273.268 98.6393 272.296 98.3928 271.305 98.3421C270.314 98.2914 269.322 98.4375 268.388 98.7719C267.453 99.1063 266.594 99.6225 265.86 100.291C265.126 100.959 264.532 101.766 264.111 102.665C264.111 102.665 259.628 110.864 261.088 113.492Z" fill="#BC8271"/>
<path d="M264.037 104.816C264.037 104.816 261.181 105.901 261.031 106.476C260.852 107.163 262.787 108.559 262.787 108.559C262.787 108.559 263.985 104.801 264.037 104.816Z" fill="#BC8271"/>
<path d="M270.505 105.952C269.867 105.401 269.115 104.999 268.302 104.774C268.03 104.703 267.98 107.023 268.271 106.967C269.08 106.794 269.842 106.447 270.505 105.952Z" fill="white"/>
<mask id="mask0_4_808" style="mask-type:luminance" maskUnits="userSpaceOnUse" x="264" y="104" width="7" height="4">
<path d="M270.505 105.952C270.505 105.952 269.155 104.706 267.438 104.647C265.722 104.587 264.287 105.738 264.287 105.738C264.287 105.738 265.637 106.984 267.355 107.043C269.072 107.103 270.505 105.952 270.505 105.952Z" fill="white"/>
</mask>
<g mask="url(#mask0_4_808)">
<path d="M268.263 104.696C268.037 104.313 267.703 104.006 267.302 103.813C266.902 103.62 266.453 103.55 266.013 103.612C265.572 103.674 265.16 103.865 264.829 104.162C264.497 104.458 264.261 104.846 264.15 105.276C264.039 105.707 264.058 106.16 264.205 106.58C264.352 107 264.62 107.366 264.975 107.634C265.33 107.901 265.756 108.057 266.2 108.082C266.644 108.107 267.085 107.999 267.468 107.774C267.723 107.624 267.945 107.426 268.123 107.19C268.301 106.954 268.43 106.686 268.504 106.4C268.578 106.114 268.594 105.816 268.553 105.524C268.512 105.232 268.413 104.95 268.263 104.696Z" fill="#363E44"/>
</g>
<path d="M282.166 102.159C282.166 102.159 281.971 110.878 275.869 111.438L275.005 109.778L271.39 109.842L274.126 106.637C274.337 106.332 274.477 105.984 274.537 105.618C274.597 105.252 274.575 104.878 274.472 104.521C274.37 104.165 274.19 103.836 273.945 103.557C273.7 103.279 273.397 103.059 273.056 102.912L266.718 100.181L268.379 96.8777C273.73 96.2029 278.434 97.6165 282.166 102.159Z" fill="#363E44"/>
<path d="M275.608 98.057C275.757 98.1715 275.928 98.2554 276.11 98.3039C276.291 98.3525 276.481 98.3647 276.668 98.3399C276.854 98.3151 277.034 98.2537 277.197 98.1594C277.36 98.065 277.503 97.9395 277.617 97.7899C278.098 97.1619 278.232 95.9329 277.604 95.4513C276.976 94.9697 275.824 95.4186 275.342 96.0466C275.228 96.196 275.144 96.3666 275.095 96.5485C275.046 96.7304 275.034 96.9202 275.059 97.1069C275.083 97.2935 275.144 97.4736 275.239 97.6366C275.333 97.7996 275.458 97.9425 275.608 98.057Z" fill="#363E44"/>
<path d="M274.471 97.9859C274.847 98.0408 275.23 97.9442 275.535 97.7172C275.84 97.4903 276.042 97.1516 276.098 96.7754C276.214 95.9926 275.733 94.8531 274.95 94.7381C274.869 94.7295 274.788 94.7428 274.714 94.7764C272.482 95.7582 273.112 97.787 274.471 97.9859Z" fill="#363E44"/>
<path d="M272.001 97.8538C272.256 97.8465 272.507 97.7889 272.74 97.6845C272.973 97.58 273.183 97.4307 273.358 97.2451C273.533 97.0595 273.67 96.8412 273.761 96.6026C273.852 96.3641 273.895 96.11 273.887 95.8548C273.856 94.7821 272.945 93.3756 271.873 93.4068C270.8 93.4381 269.972 94.8958 270.003 95.9642C270.01 96.2195 270.067 96.471 270.171 96.7042C270.275 96.9375 270.424 97.1479 270.61 97.3234C270.795 97.4989 271.014 97.6361 271.252 97.7271C271.491 97.8182 271.745 97.8612 272.001 97.8538Z" fill="#363E44"/>
<path d="M277.614 99.1325C277.76 99.2517 277.927 99.3411 278.108 99.3955C278.288 99.4499 278.477 99.4683 278.664 99.4495C278.852 99.4308 279.034 99.3753 279.2 99.2863C279.365 99.1973 279.512 99.0765 279.631 98.9308C280.133 98.317 280.305 97.0937 279.693 96.5922C279.08 96.0906 277.915 96.5013 277.419 97.115C277.178 97.4084 277.062 97.7857 277.099 98.1641C277.135 98.5424 277.321 98.8907 277.614 99.1325Z" fill="#363E44"/>
<path d="M270.225 97.4532C270.567 97.1481 270.775 96.7194 270.801 96.2614C270.828 95.8035 270.672 95.3536 270.367 95.0109C269.733 94.3005 268.308 93.8586 267.593 94.4937C266.879 95.1288 267.147 96.595 267.781 97.3097C267.932 97.4796 268.115 97.6181 268.319 97.7173C268.524 97.8165 268.746 97.8744 268.973 97.8877C269.2 97.901 269.427 97.8695 269.642 97.795C269.857 97.7204 270.055 97.6043 270.225 97.4532Z" fill="#363E44"/>
<path d="M279.043 100.352C279.349 100.714 279.785 100.94 280.257 100.981C280.729 101.021 281.198 100.873 281.561 100.567C282.315 99.931 282.807 98.4704 282.172 97.716C281.537 96.9616 280.015 97.1988 279.261 97.8339C279.081 97.9849 278.933 98.1698 278.825 98.3781C278.716 98.5863 278.65 98.8139 278.63 99.0477C278.61 99.2815 278.636 99.517 278.707 99.7407C278.778 99.9644 278.892 100.172 279.043 100.352Z" fill="#363E44"/>
<path d="M280.559 101.322C280.876 102.613 282.898 103.037 283.642 100.789C283.669 100.715 283.674 100.636 283.658 100.559C283.475 99.8102 282.328 99.4508 281.581 99.634C281.222 99.7228 280.912 99.9503 280.721 100.267C280.529 100.583 280.471 100.963 280.559 101.322Z" fill="#363E44"/>
<path d="M268.943 99.2391C269.082 98.9996 269.173 98.7351 269.209 98.4607C269.246 98.1863 269.228 97.9073 269.157 97.6397C269.086 97.3721 268.963 97.1211 268.795 96.9012C268.627 96.6812 268.417 96.4965 268.177 96.3577C267.17 95.7738 265.353 95.8122 264.767 96.8195C264.182 97.8268 265.052 99.4238 266.06 100.006C266.3 100.145 266.565 100.236 266.839 100.272C267.114 100.309 267.393 100.291 267.661 100.22C267.928 100.149 268.179 100.026 268.399 99.8572C268.62 99.6888 268.804 99.4788 268.943 99.2391Z" fill="#363E44"/>
<path d="M278.955 109.295C279.039 109.846 278.943 110.409 278.682 110.9C278.421 111.392 278.009 111.787 277.506 112.027C277.004 112.267 276.438 112.339 275.891 112.232C275.345 112.125 274.847 111.845 274.472 111.434C274.096 111.023 273.863 110.502 273.807 109.948C273.75 109.394 273.873 108.836 274.158 108.358C274.442 107.879 274.873 107.505 275.387 107.29C275.9 107.075 276.47 107.031 277.01 107.164C277.509 107.288 277.959 107.556 278.305 107.935C278.652 108.314 278.878 108.788 278.955 109.295Z" fill="#BC8271"/>
<path d="M261.804 107.744L259.826 113.744C259.761 113.942 259.736 114.151 259.754 114.358C259.772 114.566 259.832 114.768 259.929 114.952C260.027 115.136 260.161 115.298 260.323 115.429C260.486 115.56 260.673 115.656 260.873 115.713C261.086 115.773 261.316 115.835 261.564 115.899C263.662 116.437 265.863 116.432 267.959 115.882C270.055 115.332 271.975 114.257 273.539 112.758L273.965 112.002C274.275 111.45 274.454 110.834 274.489 110.202C274.524 109.571 274.415 108.939 274.169 108.356L272.769 108.453C272.769 108.453 270.496 111.169 269.217 110.868C267.939 110.567 266.222 108.622 261.804 107.744Z" fill="#363E44"/>
<path d="M264.358 110.959C264.125 110.958 263.895 110.898 263.691 110.784C263.487 110.67 263.316 110.506 263.193 110.307C263.172 110.272 263.157 110.233 263.15 110.192C263.144 110.152 263.145 110.11 263.155 110.07C263.164 110.03 263.181 109.992 263.205 109.959C263.229 109.926 263.26 109.897 263.295 109.876C263.33 109.854 263.369 109.839 263.409 109.833C263.45 109.826 263.491 109.828 263.531 109.837C263.571 109.847 263.609 109.864 263.643 109.888C263.676 109.912 263.704 109.942 263.726 109.977C263.8 110.098 263.906 110.195 264.033 110.256C264.16 110.318 264.301 110.343 264.442 110.327C264.582 110.311 264.714 110.255 264.824 110.166C264.934 110.077 265.016 109.959 265.06 109.825C265.087 109.747 265.144 109.682 265.218 109.645C265.293 109.609 265.379 109.603 265.457 109.63C265.536 109.657 265.601 109.713 265.637 109.788C265.674 109.862 265.679 109.948 265.653 110.027C265.57 110.269 265.421 110.482 265.224 110.645C265.026 110.807 264.788 110.911 264.534 110.946C264.476 110.955 264.417 110.959 264.358 110.959Z" fill="#BC8271"/>
<path d="M274.66 104.186C274.583 104.187 274.509 104.159 274.451 104.109C274.393 104.058 274.356 103.988 274.347 103.911C274.338 103.835 274.357 103.758 274.401 103.695C274.445 103.632 274.51 103.587 274.585 103.57L278.279 102.647C278.32 102.635 278.363 102.63 278.405 102.635C278.448 102.639 278.489 102.652 278.527 102.673C278.564 102.694 278.597 102.722 278.623 102.756C278.649 102.79 278.668 102.829 278.678 102.871C278.688 102.912 278.69 102.956 278.683 102.998C278.676 103.04 278.661 103.081 278.638 103.117C278.615 103.153 278.584 103.184 278.549 103.207C278.513 103.231 278.473 103.248 278.431 103.256L274.737 104.178C274.712 104.183 274.686 104.186 274.66 104.186Z" fill="#BC8271"/>
<path d="M111.034 109.611C111.034 109.611 109.425 112.371 110.607 114.605C111.073 115.484 111.755 115.871 112.505 116.364C113.283 116.876 118.375 120.227 119.406 124.604C119.621 125.509 119.967 126.979 119.307 128.287C117.897 131.077 112.981 130.986 107.064 131.073C91.9242 131.311 90.1156 132.482 80.6377 131.274C73.7313 130.395 70.8344 129.307 69.2928 126.839C68.2173 125.121 67.7542 122.79 68.3594 119.658C70.3186 109.507 81.814 109.952 86.1644 105.877C90.5148 101.802 93.578 97.5895 101.061 97.2613C108.544 96.9332 116.92 100.941 116.106 107.38C116.049 107.984 115.8 108.554 115.395 109.007C114.074 110.419 111.44 109.723 111.034 109.611Z" fill="#363E44"/>
<path d="M70.5531 126.808C70.4953 126.807 70.4388 126.791 70.3897 126.761C66.4797 124.365 64.8416 120.988 65.7779 117.253C67.0566 112.174 72.9627 107.592 78.6855 107.262C87.7543 106.731 90.6427 102.777 90.6697 102.737C90.7187 102.672 90.7909 102.629 90.871 102.617C90.9512 102.604 91.033 102.623 91.0995 102.67C91.166 102.716 91.2119 102.786 91.2277 102.866C91.2434 102.946 91.2278 103.028 91.184 103.096C91.0632 103.268 88.1265 107.336 78.7225 107.889C73.2468 108.21 67.5979 112.567 66.386 117.408C65.5207 120.855 67.0594 123.989 70.7164 126.229C70.7744 126.265 70.8192 126.319 70.8439 126.382C70.8687 126.446 70.8721 126.516 70.8537 126.581C70.8352 126.647 70.7959 126.705 70.7417 126.746C70.6874 126.788 70.6212 126.81 70.5531 126.81V126.808Z" fill="#363E44"/>
<path d="M64.0986 146.444C64.0986 146.444 59.3646 166.619 63.0898 190.964H128.759C128.759 190.964 119.138 167.649 119.142 155.781L64.0986 146.444Z" fill="#EFBC73"/>
<path d="M58.2109 153.66C58.2109 153.66 56.2787 176.534 70.6909 178.906C85.1031 181.277 82.8555 154.895 82.8555 154.895L58.2109 153.66Z" fill="#9E6C5A"/>
<path d="M55 156.479C55 156.479 72.724 157.597 84.8119 163.426C96.8998 169.256 132.427 163.742 141.803 154.827C141.803 154.827 131.282 124.806 97.6528 124.848C64.0233 124.891 57.6511 141.561 55 156.479Z" fill="#EFBC73"/>
<path d="M92.5778 133.973C82.9834 141.255 61.6605 171.269 61.6605 171.269L67.5567 178.016L69.8299 178.977C73.392 180.479 77.3928 180.568 81.0183 179.226C84.6437 177.883 87.6215 175.21 89.3455 171.749L100.067 149.605C100.067 149.605 102.032 150.091 102.847 149.335C103.842 148.42 103.999 146.556 103.999 146.556C104.395 146.431 104.755 146.214 105.05 145.923C105.345 145.632 105.567 145.275 105.697 144.881C106.113 143.651 105.245 142.72 105.245 142.72C105.245 142.72 106.273 141.265 105.582 139.789C104.552 137.588 100.314 136.806 100.314 136.806C100.314 136.806 110.502 137.693 110.377 135.015C110.261 132.553 96.1283 131.279 92.5778 133.973Z" fill="#9E6C5A"/>
<path d="M63.8471 168.548C63.7811 168.549 63.7168 168.528 63.6638 168.489C63.6304 168.464 63.6021 168.434 63.5805 168.399C63.559 168.364 63.5445 168.325 63.5381 168.284C63.5316 168.244 63.5332 168.202 63.5429 168.162C63.5525 168.122 63.5699 168.084 63.5942 168.051C65.1826 165.87 67.686 162.467 70.5943 158.647C70.618 158.611 70.6488 158.58 70.6848 158.557C70.7208 158.533 70.7613 158.518 70.8037 158.51C70.8461 158.503 70.8895 158.505 70.9313 158.515C70.973 158.525 71.0122 158.544 71.0465 158.57C71.0807 158.596 71.1092 158.629 71.1302 158.666C71.1513 158.704 71.1644 158.745 71.1687 158.788C71.1731 158.831 71.1686 158.874 71.1556 158.915C71.1426 158.956 71.1213 158.994 71.093 159.026C68.1875 162.842 65.6941 166.241 64.1014 168.42C64.0722 168.46 64.0339 168.493 63.9896 168.515C63.9454 168.537 63.8966 168.549 63.8471 168.548Z" fill="#363E44"/>
<path d="M105.227 143.034C105.176 143.033 105.125 143.02 105.08 142.995C105.036 142.971 104.998 142.935 104.97 142.892C104.178 141.751 103.045 140.89 101.733 140.434C100.711 140.091 99.6196 140.008 98.5578 140.195C98.4775 140.206 98.3963 140.185 98.3311 140.137C98.2659 140.089 98.2217 140.018 98.2078 139.938C98.1939 139.858 98.2113 139.776 98.2564 139.709C98.3014 139.642 98.3707 139.595 98.4498 139.577C99.6154 139.374 100.813 139.465 101.935 139.842C103.375 140.342 104.619 141.288 105.487 142.541C105.51 142.575 105.527 142.613 105.536 142.653C105.545 142.693 105.546 142.735 105.538 142.775C105.531 142.816 105.516 142.855 105.494 142.889C105.471 142.924 105.443 142.954 105.409 142.977C105.355 143.014 105.292 143.034 105.227 143.034Z" fill="#363E44"/>
<path d="M104.065 146.809C104.018 146.809 103.971 146.799 103.929 146.779C103.886 146.758 103.849 146.728 103.82 146.691C103.287 146.022 102.624 145.467 101.871 145.059C100.929 144.553 99.8768 144.289 98.8079 144.29H98.7795C98.7 144.285 98.6256 144.249 98.5712 144.191C98.5168 144.133 98.4866 144.056 98.4866 143.977C98.4866 143.897 98.5168 143.821 98.5712 143.762C98.6256 143.704 98.7 143.669 98.7795 143.664H98.8107C99.9834 143.662 101.138 143.952 102.171 144.508C102.997 144.955 103.725 145.566 104.309 146.302C104.361 146.367 104.385 146.45 104.376 146.532C104.367 146.615 104.325 146.69 104.261 146.742C104.205 146.786 104.136 146.809 104.065 146.809Z" fill="#363E44"/>
<path d="M100.016 149.865C99.9761 149.865 99.937 149.857 99.9005 149.842C99.8234 149.812 99.7616 149.752 99.7285 149.676C99.6955 149.6 99.694 149.513 99.7243 149.436L100.321 147.929C100.352 147.852 100.413 147.79 100.489 147.757C100.565 147.724 100.651 147.723 100.729 147.753C100.767 147.768 100.802 147.79 100.831 147.819C100.861 147.848 100.884 147.882 100.9 147.919C100.917 147.957 100.925 147.998 100.926 148.039C100.926 148.08 100.919 148.121 100.904 148.159L100.307 149.668C100.284 149.726 100.243 149.776 100.191 149.811C100.14 149.846 100.078 149.865 100.016 149.865Z" fill="#363E44"/>
<path d="M140.99 146.444C140.99 146.444 152.015 165.323 139.712 170.917C124.029 178.045 114.624 162.2 114.624 162.2L140.99 146.444Z" fill="#9E6C5A"/>
<path d="M129.68 166.421H100.314L115.151 132.248H144.517L129.68 166.421Z" fill="#D87355"/>
<path d="M99.5097 164.772C99.458 164.771 99.4072 164.758 99.3619 164.733C99.3165 164.709 99.278 164.673 99.2499 164.63C99.2217 164.586 99.2048 164.537 99.2005 164.485C99.1963 164.433 99.2049 164.382 99.2256 164.334L113.739 130.908C113.762 130.852 113.802 130.805 113.853 130.771C113.903 130.737 113.962 130.719 114.023 130.719H142.684C142.727 130.716 142.77 130.722 142.81 130.736C142.851 130.751 142.888 130.774 142.919 130.803C142.951 130.832 142.976 130.868 142.993 130.907C143.01 130.947 143.019 130.989 143.019 131.032C143.019 131.075 143.01 131.118 142.993 131.157C142.976 131.197 142.951 131.232 142.919 131.262C142.888 131.291 142.851 131.314 142.81 131.328C142.77 131.342 142.727 131.348 142.684 131.346H114.227L99.7981 164.58C99.7743 164.637 99.7342 164.685 99.6829 164.72C99.6316 164.754 99.5713 164.772 99.5097 164.772Z" fill="#D87355"/>
<path d="M129.201 140.627C129.437 138.887 133.398 138.654 137.241 138.721C140.061 138.769 143.269 139.032 143.269 141.299C143.269 143.935 139.291 143.931 136.708 143.715C132.869 143.386 128.969 142.324 129.201 140.627Z" fill="#9E6C5A"/>
<path d="M127.928 144.597C128.186 142.76 132.506 142.514 136.695 142.584C139.771 142.635 143.269 142.913 143.269 145.306C143.269 148.088 138.936 148.085 136.114 147.853C131.929 147.504 127.676 146.386 127.928 144.597Z" fill="#9E6C5A"/>
<path d="M127.779 149.349C127.921 147.439 131.724 147.022 135.422 146.934C138.137 146.872 141.235 147.029 141.341 149.507C141.463 152.388 137.64 152.548 135.142 152.413C131.436 152.217 127.637 151.218 127.779 149.349Z" fill="#9E6C5A"/>
<path d="M128.731 153.339C128.841 151.756 131.822 151.417 134.725 151.35C136.856 151.303 139.288 151.439 139.376 153.492C139.477 155.878 136.477 156.003 134.516 155.888C131.606 155.719 128.621 154.886 128.731 153.339Z" fill="#9E6C5A"/>
<path d="M135.225 156.217C134.912 156.217 134.584 156.206 134.242 156.186C134.159 156.181 134.081 156.144 134.026 156.082C133.971 156.019 133.943 155.938 133.948 155.855C133.953 155.772 133.99 155.695 134.052 155.639C134.114 155.584 134.196 155.556 134.279 155.561C136.433 155.686 137.933 155.398 138.619 154.724C138.778 154.566 138.9 154.376 138.976 154.166C139.053 153.955 139.082 153.731 139.062 153.508C139.063 153.306 139.023 153.106 138.944 152.92C138.866 152.734 138.751 152.566 138.606 152.425C138.566 152.386 138.537 152.337 138.522 152.282C138.507 152.228 138.506 152.17 138.521 152.116C138.536 152.061 138.565 152.012 138.606 151.973C138.646 151.934 138.696 151.907 138.751 151.894C140.335 151.522 141.08 150.746 141.025 149.521C141.024 149.227 140.952 148.936 140.815 148.676C140.677 148.415 140.479 148.191 140.236 148.024C140.184 147.988 140.145 147.938 140.122 147.88C140.099 147.821 140.094 147.758 140.108 147.697C140.122 147.635 140.153 147.58 140.199 147.537C140.245 147.494 140.302 147.466 140.364 147.456C140.726 147.394 141.082 147.298 141.427 147.171C141.466 147.154 141.508 147.144 141.551 147.144C141.594 147.143 141.636 147.152 141.676 147.168C141.716 147.185 141.751 147.209 141.781 147.24C141.811 147.271 141.834 147.307 141.849 147.348C141.864 147.388 141.871 147.431 141.869 147.473C141.867 147.516 141.856 147.558 141.837 147.597C141.818 147.635 141.791 147.669 141.759 147.697C141.726 147.725 141.688 147.746 141.647 147.758C141.47 147.824 141.28 147.883 141.079 147.937C141.438 148.373 141.639 148.919 141.647 149.484C141.688 150.479 141.31 151.745 139.359 152.364C139.561 152.699 139.672 153.08 139.682 153.471C139.706 153.782 139.662 154.094 139.553 154.385C139.444 154.677 139.273 154.941 139.051 155.16C138.352 155.866 137.063 156.217 135.225 156.217Z" fill="#363E44"/>
<path d="M141.807 143.621H141.79L133.634 143.203C133.553 143.196 133.479 143.157 133.426 143.096C133.373 143.035 133.346 142.956 133.35 142.875C133.354 142.794 133.389 142.718 133.448 142.663C133.506 142.607 133.584 142.576 133.665 142.577L141.823 142.994C141.903 143.001 141.976 143.038 142.03 143.098C142.083 143.158 142.111 143.235 142.109 143.315C142.107 143.395 142.075 143.471 142.019 143.528C141.963 143.585 141.887 143.618 141.807 143.621Z" fill="#363E44"/>
<path d="M140.649 148.057H140.635L132.707 147.554C132.624 147.548 132.547 147.51 132.492 147.448C132.437 147.386 132.409 147.304 132.415 147.221C132.42 147.138 132.458 147.061 132.52 147.006C132.583 146.951 132.664 146.923 132.747 146.928L140.675 147.431C140.755 147.439 140.829 147.476 140.882 147.536C140.935 147.596 140.963 147.674 140.96 147.754C140.958 147.834 140.925 147.91 140.868 147.967C140.811 148.023 140.735 148.056 140.655 148.058L140.649 148.057Z" fill="#363E44"/>
<path d="M138.915 152.491H138.899L130.808 152.127C130.728 152.119 130.653 152.081 130.601 152.02C130.548 151.96 130.52 151.881 130.524 151.8C130.528 151.72 130.562 151.644 130.62 151.588C130.678 151.532 130.756 151.501 130.836 151.5L138.935 151.87C139.017 151.872 139.096 151.907 139.153 151.966C139.211 152.026 139.242 152.107 139.24 152.19C139.238 152.272 139.203 152.351 139.143 152.408C139.083 152.466 139.003 152.497 138.92 152.495L138.915 152.491Z" fill="#363E44"/>
<path d="M88.3198 127.603L94.807 111.02L104.082 113.823L101.62 127.43L88.3198 127.603Z" fill="#9E6C5A"/>
<path d="M103.468 127.498C103.468 128.669 99.7939 129.618 95.2603 129.618C90.7266 129.618 87.0525 128.669 87.0525 127.498C87.0525 126.327 90.728 125.07 95.2603 125.07C99.7925 125.07 103.468 126.327 103.468 127.498Z" fill="#9E6C5A"/>
<path d="M111.343 106.601C111.343 106.601 110.009 119.59 104.524 120.005C101.202 120.256 98.1586 116.437 97.4198 114.644C96.681 112.851 97.4198 109.92 97.4198 109.92C97.4198 109.92 98.5351 110.966 99.4316 110.276C100.328 109.585 99.2895 105.248 103.234 105.425C107.178 105.603 107.598 107.269 111.343 106.601Z" fill="#9E6C5A"/>
<path d="M103.111 120.4C103.083 120.4 103.056 120.396 103.029 120.389C101.142 119.873 99.3548 118.243 98.42 116.857C98.3736 116.788 98.3566 116.703 98.3726 116.622C98.3885 116.54 98.4363 116.468 98.5052 116.422C98.5742 116.375 98.6587 116.358 98.7403 116.374C98.8218 116.39 98.8936 116.438 98.94 116.507C99.8095 117.797 101.462 119.31 103.194 119.783C103.267 119.804 103.33 119.85 103.372 119.913C103.414 119.976 103.431 120.052 103.421 120.128C103.411 120.203 103.374 120.272 103.317 120.322C103.26 120.372 103.187 120.4 103.111 120.4Z" fill="#363E44"/>
<path d="M86.6802 125.559C86.6802 125.559 94.4944 126.521 96.2789 115.592C97.3572 108.997 100.722 105.843 101.962 103.119C103.202 100.396 89.8556 108.483 86.6802 125.559Z" fill="#363E44"/>
<path d="M99.2583 111.242C99.595 112.29 99.2697 114.198 98.2211 114.535C97.1726 114.872 95.7987 113.508 95.4634 112.459C95.3835 112.21 95.3534 111.948 95.3749 111.687C95.3964 111.426 95.469 111.172 95.5887 110.939C95.7084 110.707 95.8727 110.5 96.0723 110.33C96.2719 110.161 96.5029 110.033 96.7521 109.953C97.2553 109.792 97.8021 109.837 98.2721 110.078C98.5048 110.198 98.7117 110.362 98.8809 110.562C99.0501 110.762 99.1784 110.993 99.2583 111.242Z" fill="#9E6C5A"/>
<path d="M111.053 111.067C111.042 111.091 111.053 111.117 111.039 111.141C110.98 111.517 110.956 111.897 110.965 112.277C110.992 112.424 111.028 112.569 111.072 112.712C111.092 112.824 111.11 112.934 111.134 113.045C111.829 112.676 112.433 112.156 112.9 111.523C112.316 111.266 111.691 111.111 111.053 111.067Z" fill="white"/>
<path d="M109.839 111.175C108.435 111.543 107.513 112.738 107.364 112.944C107.372 112.962 107.379 112.981 107.389 112.999C107.652 113.117 109.02 113.68 110.401 113.317C110.652 113.249 110.894 113.153 111.125 113.033C111.171 112.942 111.211 112.847 111.242 112.749C111.333 112.47 111.363 112.175 111.33 111.883C111.297 111.592 111.202 111.31 111.052 111.058C110.644 111.033 110.234 111.072 109.839 111.175Z" fill="#363E44"/>
<path d="M103.644 111.3C103.496 111.67 103.479 112.08 103.594 112.462C104.224 112.619 104.877 112.661 105.521 112.584C105.521 112.584 105.095 111.27 104.049 110.395C103.846 110.649 103.745 111.003 103.644 111.3Z" fill="white"/>
<path d="M103.572 112.456C103.828 112.187 104.007 111.854 104.091 111.492C104.174 111.13 104.159 110.752 104.046 110.398C103.927 110.297 103.801 110.205 103.67 110.122C102.323 109.282 100.644 109.541 100.644 109.541C100.644 109.541 101.149 111.162 102.491 112.003C102.826 112.208 103.191 112.361 103.572 112.456Z" fill="#363E44"/>
<path d="M96.5205 112.867C96.4536 112.867 96.3885 112.845 96.3347 112.806C96.2808 112.766 96.2409 112.711 96.2207 112.647C96.196 112.566 96.178 112.482 96.1667 112.398C96.0729 111.679 96.5105 111.029 97.1442 110.946C97.3055 110.925 97.4695 110.942 97.623 110.996C97.6618 111.009 97.6976 111.03 97.7282 111.058C97.7589 111.085 97.7839 111.118 97.8018 111.155C97.8197 111.192 97.8301 111.232 97.8324 111.273C97.8348 111.315 97.829 111.356 97.8155 111.394C97.802 111.433 97.7809 111.469 97.7536 111.5C97.7262 111.53 97.6931 111.555 97.6561 111.573C97.6191 111.591 97.5789 111.602 97.5379 111.604C97.4969 111.606 97.4558 111.6 97.417 111.587C97.3554 111.566 97.2898 111.559 97.2252 111.567C96.941 111.605 96.7393 111.941 96.7876 112.316C96.7944 112.364 96.8049 112.411 96.8188 112.458C96.8313 112.497 96.8359 112.538 96.8323 112.58C96.8287 112.621 96.817 112.661 96.7978 112.697C96.7786 112.733 96.7524 112.766 96.7207 112.792C96.6889 112.818 96.6523 112.838 96.6128 112.85C96.5831 112.861 96.552 112.866 96.5205 112.867Z" fill="#363E44"/>
<path d="M106.763 114.984C106.698 114.983 106.635 114.963 106.582 114.925C106.53 114.888 106.49 114.834 106.469 114.773C106.447 114.712 106.446 114.646 106.463 114.584C106.481 114.522 106.518 114.466 106.568 114.426C106.656 114.365 106.721 114.276 106.75 114.173C106.759 114.107 106.729 114.049 106.642 113.897C106.546 113.739 106.468 113.571 106.41 113.396C106.325 113.107 106.303 112.804 106.346 112.506C106.352 112.465 106.365 112.426 106.386 112.391C106.407 112.355 106.434 112.324 106.467 112.299C106.5 112.274 106.537 112.256 106.577 112.245C106.617 112.235 106.658 112.232 106.699 112.238C106.74 112.243 106.779 112.257 106.814 112.277C106.85 112.298 106.881 112.326 106.906 112.358C106.931 112.391 106.949 112.428 106.96 112.468C106.97 112.508 106.973 112.549 106.967 112.59C106.936 112.798 106.951 113.009 107.01 113.211C107.054 113.342 107.113 113.468 107.186 113.586C107.264 113.686 107.32 113.802 107.351 113.925C107.382 114.048 107.387 114.176 107.365 114.301C107.344 114.426 107.296 114.546 107.226 114.652C107.156 114.757 107.064 114.847 106.957 114.916C106.902 114.96 106.834 114.984 106.763 114.984Z" fill="#363E44"/>
<path d="M105.184 116.628C104.975 116.631 104.77 116.573 104.593 116.462C104.099 116.143 104.006 115.511 103.997 115.44C103.986 115.358 104.008 115.274 104.059 115.209C104.109 115.143 104.184 115.1 104.266 115.089C104.349 115.078 104.432 115.101 104.498 115.151C104.564 115.202 104.607 115.277 104.617 115.359C104.634 115.474 104.721 115.801 104.933 115.927C105.013 115.97 105.101 115.994 105.191 115.998C105.281 116.001 105.371 115.985 105.454 115.949C105.494 115.936 105.535 115.932 105.576 115.936C105.617 115.94 105.657 115.951 105.693 115.97C105.729 115.99 105.762 116.016 105.788 116.047C105.814 116.079 105.834 116.115 105.846 116.155C105.859 116.194 105.863 116.235 105.859 116.276C105.855 116.317 105.844 116.357 105.825 116.393C105.805 116.43 105.779 116.462 105.748 116.488C105.716 116.515 105.68 116.535 105.64 116.547C105.493 116.597 105.34 116.624 105.184 116.628Z" fill="#363E44"/>
</svg>
