<svg width="282" height="261" viewBox="0 0 282 261" fill="none" xmlns="http://www.w3.org/2000/svg">
<g clip-path="url(#clip0_4_1396)">
<g opacity="0.07">
<path d="M43.2753 165.368H34.3242V260.631H43.2753V165.368Z" fill="black"/>
<path d="M55.0966 192.067H46.1455V260.625H55.0966V192.067Z" fill="black"/>
<path d="M66.912 75.8768H57.9609V260.631H66.912V75.8768Z" fill="black"/>
<path d="M78.7274 190.563H69.7764V260.631H78.7274V190.563Z" fill="black"/>
<path d="M90.5429 129.281H81.5918V260.631H90.5429V129.281Z" fill="black"/>
<path d="M102.364 72.6427H93.4131V260.631H102.364V72.6427Z" fill="black"/>
<path d="M114.18 169.41H105.229V260.631H114.18V169.41Z" fill="black"/>
<path d="M125.995 192.893H117.044V260.625H125.995V192.893Z" fill="black"/>
<path d="M137.816 26.2177H128.865V260.631H137.816V26.2177Z" fill="black"/>
<path d="M149.632 46.6449H140.681V260.631H149.632V46.6449Z" fill="black"/>
<path d="M161.447 129.281H152.496V260.631H161.447V129.281Z" fill="black"/>
<path d="M173.268 187.775H164.317V260.625H173.268V187.775Z" fill="black"/>
<path d="M185.084 167.347H176.133V260.625H185.084V167.347Z" fill="black"/>
<path d="M196.899 83.7837H187.948V260.625H196.899V83.7837Z" fill="black"/>
<path d="M208.715 129.281H199.764V260.631H208.715V129.281Z" fill="black"/>
<path d="M220.536 129.281H211.585V260.631H220.536V129.281Z" fill="black"/>
<path d="M232.351 172.924H223.4V260.631H232.351V172.924Z" fill="black"/>
<path d="M244.167 54.0703H235.216V260.625H244.167V54.0703Z" fill="black"/>
</g>
<path d="M220.781 216.234C222.285 216.888 225.954 216.828 225.954 216.828C225.954 216.828 225.167 214.45 225.095 214.29C224.29 212.613 221.741 209.843 219.671 210.128C219.328 210.184 219.002 210.311 218.712 210.501C218.422 210.691 218.175 210.939 217.988 211.23C217.801 211.521 217.677 211.848 217.624 212.19C217.572 212.531 217.592 212.88 217.684 213.214C218.03 214.617 219.504 215.681 220.781 216.234Z" fill="#263238"/>
<path d="M222.046 226.828C223.603 227.054 226.879 226.108 227.142 226.031C227.679 227.899 228.343 229.729 229.129 231.507C229.577 232.547 230.066 233.581 230.567 234.61C230.263 234.17 229.971 233.784 229.971 233.736C228.777 232.327 225.555 230.323 223.633 231.138C223.317 231.281 223.035 231.49 222.805 231.749C222.575 232.009 222.402 232.314 222.298 232.644C222.195 232.975 222.162 233.323 222.203 233.667C222.244 234.011 222.357 234.342 222.535 234.64C223.245 235.93 224.952 236.566 226.33 236.768C227.709 236.97 230.537 236.221 231.277 236.013L231.874 237.202C232.823 239.087 233.778 240.959 234.661 242.826C234.971 243.48 235.258 244.14 235.538 244.8C235.27 244.413 235.043 244.086 235.001 244.045C233.808 242.636 230.591 240.632 228.664 241.447C228.348 241.591 228.066 241.799 227.837 242.059C227.607 242.319 227.436 242.624 227.333 242.954C227.229 243.285 227.198 243.633 227.239 243.977C227.28 244.32 227.393 244.651 227.572 244.948C228.282 246.238 229.959 246.875 231.361 247.077C232.763 247.279 235.299 246.601 236.177 246.357C236.451 247.041 236.72 247.725 236.952 248.396C237.102 248.86 237.275 249.294 237.394 249.77C237.513 250.245 237.657 250.697 237.782 251.155C237.997 252.047 238.223 252.938 238.414 253.836C238.546 254.431 238.665 255.025 238.784 255.62C238.486 254.96 237.865 253.688 237.8 253.587C236.809 252.011 233.957 249.55 231.934 250.061C231.599 250.156 231.289 250.32 231.022 250.542C230.756 250.764 230.539 251.04 230.387 251.351C230.234 251.663 230.149 252.002 230.137 252.349C230.125 252.695 230.186 253.04 230.317 253.361C230.824 254.74 232.411 255.626 233.742 256.036C235.21 256.482 238.462 256.072 238.868 256.036C239.065 257.005 239.244 257.95 239.399 258.842C239.518 259.502 239.62 260.138 239.721 260.744H241.022C240.897 260.067 240.766 259.359 240.616 258.616C240.425 257.629 240.199 256.583 239.954 255.513C240.931 255.118 241.885 254.67 242.812 254.169C243.881 255.322 246.626 256.678 246.99 256.85C246.62 257.76 246.25 258.634 245.88 259.478C245.689 259.918 245.504 260.334 245.319 260.744H246.697L247.025 259.96C247.407 259.032 247.795 258.033 248.189 256.987C248.583 257.07 251.799 257.718 253.303 257.385C254.658 257.076 256.287 256.309 256.919 254.972C257.073 254.661 257.159 254.322 257.173 253.977C257.186 253.631 257.126 253.286 256.998 252.965C256.869 252.644 256.674 252.353 256.425 252.112C256.176 251.871 255.879 251.685 255.553 251.565C253.572 250.899 250.546 253.141 249.436 254.639C249.37 254.728 248.768 255.762 248.398 256.422C248.559 256 248.714 255.59 248.869 255.156C249.186 254.294 249.466 253.432 249.794 252.499C249.931 252.047 250.069 251.583 250.206 251.119C250.343 250.656 250.451 250.162 250.582 249.675C250.85 248.551 251.065 247.392 251.262 246.227C252.014 246.5 254.717 247.416 256.114 247.338C257.51 247.261 259.247 246.744 260.052 245.495C260.25 245.212 260.386 244.891 260.452 244.552C260.517 244.213 260.511 243.864 260.433 243.528C260.354 243.192 260.206 242.876 259.998 242.6C259.79 242.325 259.525 242.096 259.223 241.928C257.361 240.971 254.031 242.737 252.706 244.045C252.629 244.128 251.781 245.174 251.328 245.763C251.441 245.055 251.555 244.354 251.644 243.64C251.901 241.572 252.098 239.479 252.3 237.38C252.366 236.744 252.438 236.102 252.503 235.466C252.772 235.567 255.953 236.744 257.516 236.655C258.912 236.554 260.655 236.06 261.46 234.812C261.658 234.529 261.795 234.208 261.86 233.869C261.926 233.53 261.919 233.181 261.841 232.845C261.763 232.509 261.615 232.193 261.406 231.917C261.198 231.642 260.934 231.413 260.631 231.245C258.769 230.294 255.439 232.054 254.115 233.361C254.013 233.462 252.802 234.973 252.515 235.371C252.664 233.962 252.826 232.565 253.04 231.209C253.321 229.351 253.72 227.512 254.234 225.704C254.359 225.752 257.677 227 259.276 226.893C260.673 226.798 262.415 226.299 263.221 225.056C263.418 224.773 263.553 224.451 263.618 224.113C263.683 223.774 263.677 223.426 263.598 223.09C263.52 222.754 263.373 222.438 263.165 222.162C262.957 221.887 262.693 221.657 262.391 221.489C260.529 220.538 257.2 222.298 255.875 223.612C255.773 223.713 254.467 225.336 254.252 225.651C254.288 225.544 254.306 225.431 254.335 225.33C254.91 223.533 255.643 221.79 256.525 220.122C257.003 219.194 257.51 218.338 258.017 217.512C258.614 217.809 261.341 219.129 262.791 219.182C264.241 219.236 265.972 218.927 266.909 217.785C267.138 217.526 267.31 217.222 267.413 216.892C267.517 216.562 267.549 216.214 267.509 215.871C267.468 215.527 267.355 215.197 267.178 214.9C267.001 214.603 266.762 214.346 266.479 214.147C264.736 212.994 261.228 214.379 259.772 215.538C259.688 215.598 258.954 216.329 258.429 216.87C258.662 216.501 258.9 216.115 259.133 215.764C260.01 214.456 260.894 213.303 261.681 212.292C262.135 211.698 262.552 211.216 262.952 210.746C263.686 210.746 266.646 210.645 267.941 210.039C269.236 209.433 270.65 208.345 270.954 206.906C271.038 206.57 271.05 206.22 270.988 205.88C270.927 205.539 270.795 205.215 270.599 204.929C270.404 204.643 270.15 204.401 269.854 204.219C269.559 204.037 269.228 203.92 268.884 203.874C266.807 203.648 264.337 206.49 263.573 208.184C263.507 208.333 262.749 210.746 262.785 210.746H262.833C262.439 211.192 262.021 211.674 261.574 212.209C260.762 213.208 259.849 214.337 258.948 215.633C257.954 217.021 257.044 218.466 256.221 219.961C255.289 221.631 254.509 223.38 253.888 225.187V225.252C253.888 224.658 253.888 222.934 253.858 222.803C253.613 220.96 252.068 217.536 250.009 217.155C249.666 217.101 249.315 217.12 248.979 217.21C248.643 217.301 248.33 217.46 248.061 217.679C247.791 217.898 247.571 218.171 247.414 218.48C247.257 218.789 247.167 219.128 247.151 219.474C247.031 220.942 248.099 222.411 249.138 223.332C250.331 224.378 253.566 225.389 253.828 225.466C253.246 227.321 252.785 229.212 252.45 231.126C252.253 232.244 252.086 233.373 251.936 234.503C251.936 233.974 251.936 233.504 251.907 233.439C251.668 231.596 250.116 228.171 248.058 227.791C247.715 227.738 247.364 227.758 247.029 227.848C246.694 227.939 246.382 228.099 246.113 228.317C245.844 228.536 245.624 228.809 245.468 229.117C245.312 229.426 245.222 229.764 245.205 230.109C245.086 231.578 246.148 233.04 247.192 233.968C248.237 234.895 251.006 235.823 251.74 236.06C251.686 236.494 251.626 236.928 251.572 237.362C251.322 239.455 251.083 241.524 250.779 243.581C250.677 244.3 250.546 245.002 250.421 245.709C250.421 245.24 250.421 244.847 250.391 244.788C250.152 242.939 248.601 239.515 246.548 239.14C246.204 239.086 245.853 239.105 245.518 239.195C245.182 239.286 244.869 239.445 244.6 239.664C244.33 239.883 244.11 240.156 243.953 240.465C243.796 240.774 243.706 241.113 243.69 241.459C243.57 242.921 244.638 244.389 245.677 245.317C246.715 246.244 249.221 247.1 250.093 247.362C249.943 248.081 249.788 248.801 249.609 249.49C249.472 249.96 249.376 250.418 249.215 250.882C249.054 251.345 248.923 251.797 248.774 252.249C248.457 253.111 248.141 253.997 247.813 254.829C247.592 255.424 247.365 255.959 247.145 256.511C247.258 255.798 247.449 254.395 247.449 254.276C247.427 252.638 246.983 251.033 246.16 249.615C246.168 249.434 246.158 249.253 246.13 249.074C246.087 248.731 245.971 248.4 245.791 248.105C245.611 247.809 245.371 247.554 245.086 247.356C244.8 247.159 244.476 247.024 244.135 246.959C243.794 246.894 243.443 246.902 243.105 246.982C241.082 247.517 239.799 251.048 239.703 252.927C239.703 253.034 239.769 254.229 239.829 254.984C239.727 254.55 239.632 254.122 239.524 253.67C239.31 252.784 239.071 251.886 238.82 250.947C238.683 250.495 238.546 250.037 238.402 249.574C238.259 249.11 238.074 248.634 237.913 248.165C237.513 247.077 237.06 245.989 236.57 244.907C237.352 244.722 240.121 244.021 241.231 243.171C242.341 242.321 243.511 240.941 243.505 239.467C243.513 239.121 243.449 238.778 243.316 238.458C243.182 238.139 242.983 237.851 242.731 237.614C242.479 237.376 242.18 237.194 241.852 237.079C241.525 236.964 241.177 236.919 240.831 236.946C238.749 237.172 236.946 240.472 236.57 242.297C236.57 242.41 236.421 243.747 236.368 244.485C236.069 243.837 235.771 243.189 235.455 242.541C234.53 240.68 233.527 238.819 232.543 236.964C232.238 236.37 231.946 235.823 231.647 235.252C231.922 235.187 235.228 234.426 236.475 233.468C237.585 232.624 238.755 231.239 238.749 229.765C238.757 229.419 238.693 229.075 238.56 228.756C238.426 228.437 238.227 228.149 237.975 227.911C237.723 227.674 237.424 227.491 237.096 227.376C236.769 227.262 236.421 227.216 236.075 227.244C233.993 227.47 232.19 230.769 231.814 232.594C231.785 232.731 231.612 234.657 231.594 235.151C230.937 233.891 230.293 232.636 229.714 231.37C228.919 229.666 228.238 227.913 227.673 226.12C227.804 226.091 231.254 225.306 232.537 224.337C233.641 223.493 234.816 222.107 234.804 220.639C234.813 220.293 234.748 219.949 234.615 219.63C234.482 219.31 234.283 219.022 234.031 218.784C233.779 218.546 233.48 218.363 233.152 218.247C232.825 218.132 232.477 218.086 232.131 218.112C230.054 218.338 228.246 221.638 227.87 223.463C227.87 223.606 227.655 225.674 227.649 226.055C227.613 225.948 227.572 225.847 227.542 225.74C227.022 223.926 226.666 222.07 226.48 220.193C226.366 219.159 226.313 218.166 226.283 217.221C226.939 217.137 229.947 216.739 231.194 215.99C232.441 215.241 233.706 214.022 233.855 212.56C233.903 212.216 233.878 211.866 233.781 211.533C233.684 211.2 233.517 210.891 233.292 210.627C233.066 210.362 232.787 210.148 232.473 209.999C232.159 209.85 231.816 209.768 231.468 209.76C229.374 209.76 227.22 212.839 226.641 214.605C226.611 214.706 226.402 215.716 226.259 216.46C226.259 216.02 226.259 215.568 226.259 215.146C226.259 213.57 226.36 212.132 226.456 210.853C226.521 210.128 226.593 209.474 226.665 208.862C227.261 208.446 229.684 206.745 230.43 205.533C231.176 204.32 231.749 202.631 231.206 201.264C231.089 200.939 230.906 200.641 230.666 200.391C230.427 200.141 230.138 199.943 229.817 199.812C229.496 199.68 229.152 199.617 228.805 199.626C228.458 199.636 228.117 199.718 227.804 199.867C225.943 200.824 225.453 204.552 225.764 206.407C225.764 206.561 226.492 208.993 226.521 208.975H226.557C226.48 209.569 226.396 210.194 226.325 210.883C226.193 212.161 226.062 213.606 226.026 215.187C225.966 216.891 226.008 218.596 226.151 220.294C226.299 222.197 226.616 224.083 227.1 225.93V225.995C226.772 225.478 225.805 224.069 225.716 223.974C224.522 222.565 221.306 220.562 219.379 221.376C219.063 221.52 218.781 221.729 218.552 221.989C218.322 222.248 218.15 222.554 218.047 222.884C217.944 223.214 217.912 223.563 217.953 223.906C217.995 224.25 218.108 224.581 218.286 224.878C218.967 225.99 220.667 226.626 222.046 226.828Z" fill="#1E303C"/>
<path d="M257.904 217.042C257.94 217.042 258.572 214.611 258.596 214.45C258.853 212.607 258.262 208.898 256.382 207.988C256.065 207.847 255.721 207.773 255.374 207.773C255.026 207.772 254.682 207.844 254.365 207.984C254.047 208.124 253.762 208.329 253.529 208.586C253.295 208.843 253.119 209.145 253.01 209.474C252.509 210.859 253.148 212.554 253.906 213.719C254.795 215.092 257.904 217.036 257.904 217.042Z" fill="#263238"/>
<path d="M8.13344 229.277C9.19563 229.735 11.7914 229.681 11.7914 229.681C11.7914 229.681 11.2365 227.987 11.1947 227.898C10.6278 226.709 8.80775 224.753 7.36365 224.925C7.12163 224.965 6.89068 225.055 6.6858 225.189C6.48092 225.323 6.30669 225.499 6.17444 225.705C6.04218 225.911 5.95486 226.142 5.91814 226.384C5.88143 226.625 5.89613 226.872 5.96132 227.107C6.19404 228.13 7.23237 228.885 8.13344 229.277Z" fill="#263238"/>
<path d="M9.02865 236.762C10.1326 236.923 12.4479 236.251 12.6091 236.168C12.9924 237.498 13.467 238.801 14.0293 240.067C14.3456 240.805 14.6917 241.536 15.0438 242.261C14.8349 241.952 14.6439 241.667 14.6081 241.667C13.7488 240.674 11.4932 239.259 10.1326 239.83C9.90938 239.932 9.71022 240.08 9.54803 240.264C9.38584 240.448 9.26424 240.664 9.19111 240.897C9.11797 241.131 9.09494 241.377 9.12349 241.621C9.15204 241.864 9.23154 242.098 9.35685 242.309C9.85811 243.218 11.0635 243.67 12.0362 243.813C13.0089 243.956 15.0199 243.426 15.539 243.278C15.6763 243.551 15.8076 243.831 15.9508 244.11C16.6191 245.442 17.2935 246.762 17.92 248.081C18.1349 248.545 18.3377 249.015 18.5168 249.478C18.3318 249.205 18.1707 248.973 18.1408 248.943C17.2755 247.951 15.0259 246.536 13.6653 247.106C13.4414 247.208 13.2416 247.356 13.0789 247.539C12.9161 247.723 12.7942 247.939 12.721 248.173C12.6477 248.407 12.6249 248.654 12.654 248.897C12.683 249.141 12.7633 249.375 12.8895 249.586C13.4326 250.489 14.626 250.923 15.5928 251.084C16.5595 251.244 18.3735 250.745 18.9942 250.572C19.1911 251.054 19.382 251.541 19.5432 252.017C19.6506 252.344 19.7699 252.653 19.8594 252.986C19.9489 253.319 20.0384 253.64 20.1339 253.967C20.2831 254.597 20.4442 255.245 20.5755 255.858C20.671 256.286 20.7545 256.702 20.8381 257.112C20.6232 256.648 20.1876 255.745 20.1459 255.673C19.4417 254.562 17.4307 252.82 15.9687 253.182C15.7321 253.249 15.5123 253.364 15.3236 253.521C15.1348 253.678 14.9814 253.873 14.8733 254.093C14.7652 254.312 14.7048 254.553 14.6961 254.797C14.6875 255.042 14.7307 255.286 14.823 255.513C15.181 256.488 16.3029 257.118 17.2457 257.403C18.284 257.718 20.5815 257.403 20.8679 257.403C21.0052 258.087 21.1305 258.759 21.2439 259.389C21.3274 259.853 21.399 260.304 21.4706 260.733H22.3896C22.306 260.257 22.2106 259.752 22.1032 259.228C21.9659 258.533 21.8048 257.79 21.6317 257.035C22.3235 256.758 22.9989 256.443 23.6547 256.089C24.547 256.849 25.5387 257.485 26.6025 257.98C26.34 258.628 26.0715 259.252 25.8149 259.841C25.6836 260.15 25.5463 260.435 25.415 260.733H26.3937C26.4653 260.548 26.5429 260.37 26.6204 260.18C26.8949 259.526 27.1694 258.818 27.4439 258.093C27.7244 258.146 29.998 258.61 31.0602 258.372C32.0209 258.152 33.1846 257.611 33.6142 256.666C33.7189 256.448 33.7769 256.211 33.7844 255.97C33.7919 255.729 33.7488 255.488 33.6578 255.264C33.5668 255.041 33.43 254.838 33.256 254.67C33.082 254.502 32.8748 254.372 32.6475 254.288C31.2511 253.818 29.1088 255.406 28.3271 256.458C28.2794 256.523 27.8557 257.255 27.5931 257.724C27.7065 257.427 27.8199 257.13 27.9273 256.833C28.1541 256.238 28.357 255.608 28.5777 254.954C28.6792 254.633 28.7747 254.306 28.8761 253.979C28.9776 253.652 29.0492 253.301 29.1387 252.956C29.3296 252.16 29.4788 251.345 29.6161 250.519C30.1531 250.709 32.0567 251.375 33.0473 251.304C34.0379 251.232 35.2612 250.876 35.8341 250.002C35.9748 249.801 36.0715 249.573 36.1177 249.332C36.164 249.092 36.1588 248.844 36.1025 248.605C36.0461 248.367 35.94 248.143 35.7909 247.948C35.6418 247.754 35.4532 247.592 35.2373 247.475C33.9245 246.803 31.5734 248.07 30.6365 248.973C30.5768 249.033 29.9801 249.77 29.6638 250.162C29.7414 249.663 29.819 249.169 29.8846 248.664C30.0636 247.202 30.2009 245.721 30.3501 244.241C30.3918 243.789 30.4396 243.337 30.4873 242.885C30.6783 242.957 32.928 243.789 34.0319 243.712C35.0165 243.646 36.2518 243.284 36.8187 242.416C36.9594 242.215 37.0561 241.987 37.1023 241.746C37.1486 241.506 37.1434 241.258 37.0871 241.02C37.0308 240.781 36.9246 240.557 36.7755 240.362C36.6265 240.168 36.4378 240.006 36.2219 239.889C34.9091 239.211 32.552 240.454 31.6151 241.381C31.5495 241.453 30.6902 242.523 30.4873 242.802C30.5947 241.809 30.7081 240.817 30.8573 239.83C31.0568 238.517 31.3418 237.218 31.7106 235.942C31.8001 235.971 34.1393 236.857 35.291 236.774C36.2757 236.708 37.5109 236.346 38.0778 235.478C38.2186 235.277 38.3152 235.049 38.3615 234.808C38.4077 234.568 38.4025 234.32 38.3462 234.082C38.2899 233.843 38.1837 233.619 38.0346 233.425C37.8856 233.23 37.6969 233.068 37.4811 232.951C36.1682 232.273 33.8111 233.546 32.8743 234.449C32.8026 234.521 31.8837 235.668 31.7285 235.888C31.7285 235.817 31.7643 235.734 31.7882 235.662C32.1925 234.392 32.7098 233.161 33.3337 231.982C33.6739 231.328 34.0319 230.722 34.39 230.139C34.8137 230.347 36.7411 231.281 37.7675 231.328C38.7939 231.376 40.0172 231.15 40.6796 230.341C40.8408 230.157 40.9616 229.942 41.0342 229.709C41.1067 229.475 41.1294 229.23 41.1007 228.987C41.072 228.744 40.9926 228.511 40.8677 228.3C40.7427 228.09 40.575 227.909 40.3752 227.767C39.14 226.953 36.6635 227.934 35.6013 228.754C35.5476 228.796 35.0046 229.313 34.6525 229.693C34.8196 229.432 34.9867 229.158 35.1538 228.915C35.7505 227.987 36.395 227.179 36.944 226.459C37.2603 226.061 37.5407 225.698 37.8391 225.365C38.3583 225.365 40.4528 225.294 41.3658 224.866C42.2788 224.438 43.2813 223.677 43.4962 222.654C43.5554 222.417 43.5637 222.17 43.5206 221.929C43.4776 221.688 43.384 221.459 43.2461 221.256C43.1081 221.054 42.9289 220.882 42.7201 220.754C42.5113 220.625 42.2776 220.541 42.0342 220.508C40.5602 220.354 38.8178 222.357 38.2807 223.558C38.233 223.665 37.684 225.371 37.7198 225.342H37.7556C37.4751 225.657 37.1588 226.001 36.8664 226.376C36.2697 227.083 35.673 227.88 35.0106 228.802C34.3074 229.781 33.6637 230.801 33.0831 231.857C32.4242 233.036 31.8729 234.272 31.4361 235.549C31.4334 235.565 31.4334 235.581 31.4361 235.597C31.4361 235.163 31.4361 233.956 31.4361 233.867C31.2631 232.565 30.1651 230.139 28.715 229.872C28.4723 229.834 28.2242 229.847 27.9871 229.911C27.75 229.975 27.5291 230.089 27.3387 230.243C27.1484 230.398 26.993 230.591 26.8826 230.81C26.7722 231.029 26.7093 231.268 26.698 231.513C26.6145 232.547 27.3664 233.587 28.1004 234.241C28.9298 234.979 31.2332 235.692 31.4122 235.745C31.0034 237.057 30.6786 238.394 30.4396 239.746C30.3023 240.537 30.183 241.334 30.0756 242.124C30.0756 241.75 30.0756 241.417 30.0756 241.369C29.9025 240.067 28.8105 237.648 27.3544 237.38C27.1139 237.347 26.8691 237.364 26.6356 237.43C26.402 237.496 26.1849 237.61 25.9979 237.764C25.811 237.919 25.6584 238.11 25.5498 238.327C25.4412 238.543 25.3791 238.78 25.3673 239.021C25.2838 240.062 26.0356 241.096 26.7696 241.75C27.5036 242.404 29.4669 243.064 29.986 243.224C29.9443 243.533 29.9025 243.819 29.8667 244.152C29.6936 245.626 29.5206 247.124 29.3117 248.545C29.2342 249.05 29.1446 249.55 29.0551 250.049C29.0551 249.716 29.0551 249.455 29.0551 249.395C28.8821 248.093 27.7841 245.674 26.334 245.406C26.0916 245.367 25.8437 245.38 25.6066 245.443C25.3695 245.507 25.1484 245.619 24.958 245.774C24.7676 245.928 24.612 246.121 24.5016 246.339C24.3911 246.557 24.3282 246.797 24.317 247.041C24.2275 248.075 24.9854 249.116 25.7194 249.77C26.4534 250.424 28.2257 251.018 28.8403 251.214C28.7329 251.726 28.6255 252.231 28.5002 252.719C28.4047 253.051 28.3331 253.373 28.2197 253.699C28.1063 254.026 28.0108 254.347 27.9094 254.669C27.6886 255.263 27.4618 255.905 27.2291 256.494C27.074 256.904 26.9129 257.29 26.7577 257.683C26.8353 257.177 26.9725 256.185 26.9725 256.101C26.9547 254.944 26.6405 253.81 26.0595 252.808C26.0743 252.681 26.0743 252.554 26.0595 252.427C26.0292 252.185 25.9479 251.951 25.821 251.742C25.6941 251.532 25.5243 251.352 25.3228 251.212C25.1213 251.073 24.8925 250.977 24.6514 250.931C24.4102 250.885 24.1621 250.891 23.9232 250.947C22.497 251.327 21.59 253.824 21.5363 255.138C21.5363 255.215 21.584 256.06 21.6198 256.589C21.5482 256.28 21.4825 255.994 21.405 255.661C21.2558 255.031 21.0887 254.407 20.9097 253.735C20.8142 253.414 20.7128 253.093 20.6113 252.766C20.5099 252.439 20.3845 252.106 20.2712 251.767C19.9847 251 19.6744 250.234 19.3224 249.467C19.8714 249.336 21.8287 248.872 22.6163 248.242C23.404 247.612 24.2275 246.666 24.2156 245.626C24.2232 245.382 24.1788 245.138 24.0854 244.912C23.992 244.686 23.8517 244.482 23.6737 244.314C23.4956 244.145 23.2839 244.016 23.0523 243.935C22.8207 243.854 22.5746 243.822 22.3299 243.843C20.8619 243.997 19.5849 246.334 19.3462 247.618C19.3462 247.701 19.2448 248.646 19.209 249.163C18.9942 248.706 18.7913 248.248 18.5645 247.79C17.9021 246.476 17.198 245.162 16.4998 243.849L15.8673 242.66C16.0642 242.612 18.4034 242.065 19.2806 241.399C20.0623 240.805 20.8918 239.824 20.8858 238.783C20.8924 238.539 20.8474 238.296 20.7537 238.071C20.66 237.845 20.5197 237.641 20.3418 237.473C20.164 237.305 19.9526 237.176 19.7215 237.094C19.4903 237.013 19.2446 236.981 19.0001 237C17.5262 237.16 16.2551 239.491 16.0164 240.781C16.0164 240.876 15.8732 242.237 15.8613 242.564C15.3958 241.679 14.9423 240.781 14.5306 239.895C13.9702 238.691 13.4898 237.452 13.0924 236.185C13.1819 236.185 15.6226 235.591 16.5237 234.925C17.3054 234.33 18.1349 233.35 18.1289 232.309C18.1355 232.065 18.0905 231.822 17.9968 231.596C17.9031 231.371 17.7627 231.167 17.5849 230.999C17.4071 230.831 17.1957 230.702 16.9646 230.62C16.7334 230.539 16.4876 230.506 16.2432 230.526C14.7693 230.68 13.4982 233.017 13.2297 234.301C13.2297 234.402 13.0805 235.87 13.0745 236.132C13.0745 236.06 13.0208 235.989 12.9969 235.912C12.6309 234.631 12.3813 233.32 12.251 231.994C12.1675 231.263 12.1317 230.561 12.1078 229.878C12.5733 229.818 14.6976 229.539 15.5748 229.004C16.4521 228.469 17.3651 227.619 17.4605 226.584C17.4942 226.342 17.4761 226.095 17.4076 225.86C17.3391 225.625 17.2216 225.407 17.0628 225.22C16.9041 225.033 16.7076 224.882 16.4861 224.776C16.2647 224.67 16.0233 224.611 15.7777 224.604C14.3038 224.604 12.7941 226.78 12.3704 228.029C12.3704 228.094 12.1973 228.813 12.1018 229.337C12.1018 229.027 12.1018 228.706 12.1018 228.409C12.1018 227.297 12.1734 226.275 12.2451 225.377C12.2868 224.86 12.3405 224.402 12.3883 223.968C12.8179 223.677 14.5246 222.47 15.0557 221.59C15.5868 220.71 15.9866 219.539 15.6047 218.576C15.5222 218.348 15.393 218.14 15.2251 217.964C15.0573 217.789 14.8546 217.65 14.6299 217.558C14.4053 217.465 14.1636 217.42 13.9205 217.425C13.6773 217.43 13.438 217.486 13.2177 217.589C11.9049 218.267 11.5588 220.901 11.7796 222.197C11.7796 222.31 12.2928 224.028 12.3167 224.01C12.257 224.426 12.2033 224.872 12.1496 225.359C12.0601 226.263 11.9646 227.286 11.9407 228.403C11.8987 229.607 11.9266 230.812 12.0243 232.012C12.1331 233.357 12.3587 234.689 12.6986 235.995C12.7012 236.011 12.7012 236.027 12.6986 236.043C12.4658 235.68 11.7856 234.681 11.7259 234.61C10.8606 233.617 8.60496 232.202 7.2444 232.779C7.02136 232.881 6.8223 233.028 6.66015 233.211C6.498 233.395 6.37639 233.61 6.30322 233.843C6.23006 234.076 6.20697 234.322 6.23547 234.565C6.26397 234.808 6.34342 235.042 6.46864 235.252C6.86846 236.168 8.06193 236.619 9.02865 236.762Z" fill="#1E303C"/>
<path d="M34.372 229.842C34.372 229.842 34.8434 228.124 34.8613 228.017C35.0404 226.715 34.6286 224.087 33.2979 223.451C33.074 223.348 32.8308 223.294 32.5843 223.292C32.3379 223.29 32.0938 223.34 31.8682 223.439C31.6426 223.538 31.4406 223.684 31.2756 223.866C31.1106 224.048 30.9863 224.264 30.9109 224.497C30.5529 225.472 31.0064 226.673 31.5435 227.5C32.176 228.492 34.372 229.842 34.372 229.842Z" fill="#263238"/>
<path d="M3.49097 260.703H276.844" stroke="#263238" stroke-miterlimit="10"/>
<path d="M71.5666 29.0178C71.5682 27.0632 72.3483 25.189 73.7356 23.8069C75.1229 22.4247 77.0041 21.6475 78.9661 21.646H88.317V17.1812C88.317 16.4469 88.1717 15.7197 87.8894 15.0413C87.6072 14.3629 87.1935 13.7466 86.6719 13.2276C86.1504 12.7086 85.5314 12.297 84.8501 12.0165C84.1689 11.7361 83.4388 11.5921 82.7017 11.5929H63.1287C62.3916 11.5921 61.6615 11.7361 60.9803 12.0165C60.299 12.297 59.68 12.7086 59.1585 13.2276C58.637 13.7466 58.2232 14.3629 57.941 15.0413C57.6587 15.7197 57.5134 16.4469 57.5134 17.1812V35.278L62.5021 30.8905C62.7003 30.9133 62.8995 30.9252 63.0989 30.9262H71.5367L71.5666 29.0178Z" fill="#1E303C"/>
<path d="M65.1697 19.4939H81.8007" stroke="white" stroke-miterlimit="10"/>
<path d="M65.1697 23.1084H75.6245" stroke="white" stroke-miterlimit="10"/>
<path d="M78.9663 23.4295H98.5452C99.2818 23.4295 100.011 23.574 100.692 23.8549C101.372 24.1357 101.991 24.5473 102.512 25.0663C103.032 25.5852 103.446 26.2012 103.728 26.8793C104.009 27.5573 104.155 28.284 104.155 29.0178V47.1146L99.1658 42.7271C98.9677 42.7501 98.7685 42.762 98.5691 42.7628H78.9663C78.2296 42.7628 77.5002 42.6183 76.8197 42.3374C76.1391 42.0566 75.5207 41.6449 74.9999 41.126C74.479 40.6071 74.0658 39.991 73.7839 39.313C73.502 38.635 73.3569 37.9083 73.3569 37.1745V29.0178C73.3569 28.284 73.502 27.5573 73.7839 26.8793C74.0658 26.2012 74.479 25.5852 74.9999 25.0663C75.5207 24.5473 76.1391 24.1357 76.8197 23.8549C77.5002 23.574 78.2296 23.4295 78.9663 23.4295Z" fill="#1E303C"/>
<path d="M79.4258 31.3305H98.1514" stroke="white" stroke-miterlimit="10"/>
<path d="M79.4258 34.6478H98.1514" stroke="white" stroke-miterlimit="10"/>
<path d="M223.985 34.6775H203.099C201.34 34.6775 199.913 36.0989 199.913 37.8522V57.4709C199.913 59.2242 201.34 60.6456 203.099 60.6456H223.985C225.745 60.6456 227.172 59.2242 227.172 57.4709V37.8522C227.172 36.0989 225.745 34.6775 223.985 34.6775Z" fill="#18989B"/>
<path d="M219.933 47.2038L209.204 41.0328V53.3748L219.933 47.2038Z" fill="white"/>
<path d="M42.5414 168.471H21.6556C19.8957 168.471 18.469 169.892 18.469 171.646V191.264C18.469 193.018 19.8957 194.439 21.6556 194.439H42.5414C44.3013 194.439 45.7279 193.018 45.7279 191.264V171.646C45.7279 169.892 44.3013 168.471 42.5414 168.471Z" fill="#1E303C"/>
<path d="M38.4896 180.997L27.7603 174.826V187.168L38.4896 180.997Z" fill="white"/>
<path d="M183.735 3.89401H153.779C152.049 3.89401 150.646 5.2914 150.646 7.01517V35.272C150.646 36.9958 152.049 38.3932 153.779 38.3932H183.735C185.466 38.3932 186.868 36.9958 186.868 35.272V7.01517C186.868 5.2914 185.466 3.89401 183.735 3.89401Z" fill="#1E303C"/>
<path d="M156.106 32.4481H182.082L172.547 14.179L166.293 26.8657L162.217 20.778L156.106 32.4481Z" fill="white"/>
<path d="M162.581 17.2763C165.264 17.2763 167.439 15.1097 167.439 12.4371C167.439 9.7644 165.264 7.59778 162.581 7.59778C159.898 7.59778 157.724 9.7644 157.724 12.4371C157.724 15.1097 159.898 17.2763 162.581 17.2763Z" fill="white"/>
<path d="M78.7992 82.7433H59.2322C57.502 82.7433 56.0994 84.1407 56.0994 85.8645V104.229C56.0994 105.953 57.502 107.35 59.2322 107.35H78.7992C80.5295 107.35 81.9321 105.953 81.9321 104.229V85.8645C81.9321 84.1407 80.5295 82.7433 78.7992 82.7433Z" fill="#18989B"/>
<path d="M59.99 103.105H78.5187L71.7159 90.0795L67.2582 99.1279L64.3521 94.7821L59.99 103.105Z" fill="white"/>
<path d="M68.0757 88.837C68.0769 88.1534 67.8744 87.4847 67.4939 86.9158C67.1134 86.3469 66.5719 85.9032 65.9382 85.6411C65.3044 85.3789 64.6068 85.31 63.9337 85.4431C63.2606 85.5762 62.6423 85.9053 62.1571 86.3887C61.6718 86.8721 61.3415 87.4881 61.2079 88.1587C61.0743 88.8293 61.1435 89.5242 61.4067 90.1556C61.6698 90.787 62.1151 91.3264 62.6862 91.7055C63.2572 92.0846 63.9284 92.2863 64.6146 92.2852C65.5321 92.2836 66.4115 91.9198 67.0602 91.2735C67.709 90.6272 68.0741 89.751 68.0757 88.837Z" fill="white"/>
<path d="M250.254 43.1871C256.684 41.6879 260.678 35.2789 259.173 28.8721C257.668 22.4653 251.235 18.4869 244.804 19.986C238.373 21.4852 234.38 27.8942 235.885 34.301C237.39 40.7078 243.823 44.6863 250.254 43.1871Z" fill="#18989B"/>
<path d="M253.768 27.5494C253.385 27.1662 252.929 26.8621 252.427 26.6547C251.926 26.4472 251.388 26.3404 250.844 26.3404C250.301 26.3404 249.763 26.4472 249.261 26.6547C248.76 26.8621 248.304 27.1662 247.92 27.5494L247.515 27.9596L247.103 27.5494C246.719 27.1662 246.264 26.8621 245.762 26.6547C245.26 26.4472 244.722 26.3404 244.179 26.3404C243.636 26.3404 243.098 26.4472 242.596 26.6547C242.094 26.8621 241.638 27.1662 241.255 27.5494C240.87 27.9316 240.565 28.3856 240.357 28.8855C240.148 29.3854 240.041 29.9213 240.041 30.4625C240.041 31.0037 240.148 31.5396 240.357 32.0395C240.565 32.5394 240.87 32.9934 241.255 33.3756L247.449 39.5465L247.515 39.4871L247.574 39.5465L253.768 33.3756C254.153 32.9934 254.458 32.5394 254.667 32.0395C254.875 31.5396 254.982 31.0037 254.982 30.4625C254.982 29.9213 254.875 29.3854 254.667 28.8855C254.458 28.3856 254.153 27.9316 253.768 27.5494Z" fill="white"/>
<path d="M239.294 106.346C246.502 99.1648 246.502 87.5221 239.294 80.3411C232.087 73.1601 220.4 73.1601 213.192 80.3411C205.984 87.5221 205.984 99.1648 213.192 106.346C220.4 113.527 232.087 113.527 239.294 106.346Z" fill="#1E303C"/>
<path d="M235.878 87.1308C235.286 86.5398 234.583 86.0709 233.809 85.7509C233.035 85.431 232.205 85.2663 231.367 85.2663C230.529 85.2663 229.699 85.431 228.925 85.7509C228.151 86.0709 227.448 86.5398 226.856 87.1308L226.223 87.761L225.626 87.1308C225.034 86.5396 224.33 86.0706 223.556 85.7505C222.781 85.4305 221.951 85.2658 221.112 85.2658C220.273 85.2658 219.443 85.4305 218.669 85.7505C217.894 86.0706 217.19 86.5396 216.598 87.1308C215.403 88.3235 214.731 89.9399 214.731 91.6253C214.731 93.3106 215.403 94.9271 216.598 96.1197L226.146 105.632L226.241 105.537L226.336 105.632L235.884 96.1197C236.477 95.5296 236.947 94.8287 237.268 94.0573C237.589 93.2858 237.753 92.459 237.753 91.624C237.752 90.7891 237.586 89.9624 237.265 89.1914C236.943 88.4204 236.472 87.7202 235.878 87.1308Z" fill="white"/>
<path d="M40.0948 84.2653C36.0727 84.2653 32.215 82.6751 29.3687 79.8439C26.5224 77.0127 24.9201 73.1719 24.9138 69.1648C24.9138 65.1536 26.5132 61.3067 29.3602 58.4704C32.2072 55.634 36.0686 54.0406 40.0948 54.0406C44.1211 54.0406 47.9824 55.634 50.8294 58.4704C53.6764 61.3067 55.2758 65.1536 55.2758 69.1648C55.2695 73.1719 53.6673 77.0127 50.821 79.8439C47.9747 82.6751 44.1169 84.2653 40.0948 84.2653Z" fill="#1E303C"/>
<path d="M40.0947 62.3458C42.3146 62.3458 42.5831 62.3458 43.4603 62.3934C43.9881 62.3999 44.5109 62.4964 45.0059 62.6788C45.364 62.8161 45.6892 63.0268 45.9606 63.2971C46.2319 63.5675 46.4434 63.8915 46.5813 64.2483C46.7644 64.7414 46.8612 65.2622 46.8677 65.788C46.9095 66.6679 46.9154 66.9295 46.9154 69.1411C46.9154 71.3526 46.9154 71.6201 46.8677 72.4941C46.8619 73.0199 46.765 73.5408 46.5813 74.0338C46.4434 74.3906 46.2319 74.7146 45.9606 74.985C45.6892 75.2553 45.364 75.466 45.0059 75.6033C44.5117 75.7887 43.9884 75.8853 43.4603 75.8887C42.5831 75.9303 42.3146 75.9422 40.0947 75.9422C37.8749 75.9422 37.6063 75.9422 36.7291 75.8887C36.2011 75.8853 35.6778 75.7887 35.1836 75.6033C34.8255 75.466 34.5002 75.2553 34.2289 74.985C33.9575 74.7146 33.7461 74.3906 33.6082 74.0338C33.4244 73.5408 33.3275 73.0199 33.3218 72.4941C33.28 71.6201 33.274 71.3586 33.274 69.1411C33.274 66.9235 33.274 66.6679 33.3218 65.788C33.3282 65.2622 33.4251 64.7414 33.6082 64.2483C33.7461 63.8915 33.9575 63.5675 34.2289 63.2971C34.5002 63.0268 34.8255 62.8161 35.1836 62.6788C35.6786 62.4964 36.2014 62.3999 36.7291 62.3934C37.6063 62.3518 37.8749 62.3458 40.0947 62.3458ZM40.0947 60.8477C37.8331 60.8477 37.5526 60.8477 36.6635 60.9012C35.9717 60.9114 35.2871 61.0421 34.6406 61.2876C34.0863 61.4954 33.5836 61.8199 33.1666 62.2388C32.7462 62.6555 32.4188 63.1559 32.2059 63.7073C31.9652 64.3527 31.8361 65.0342 31.824 65.7226C31.7822 66.6085 31.7703 66.9117 31.7703 69.1411C31.7703 71.3705 31.7703 71.6736 31.824 72.5595C31.8355 73.248 31.9646 73.9295 32.2059 74.5748C32.4203 75.1255 32.7475 75.6255 33.1667 76.0432C33.5859 76.4608 34.0879 76.7868 34.6406 77.0004C35.2887 77.2403 35.9723 77.3709 36.6635 77.3868C37.5526 77.4225 37.857 77.4344 40.0947 77.4344C42.3325 77.4344 42.6368 77.4344 43.526 77.3868C44.2172 77.3709 44.9008 77.2403 45.5489 77.0004C46.1016 76.7868 46.6036 76.4608 47.0228 76.0432C47.442 75.6255 47.7692 75.1255 47.9836 74.5748C48.2248 73.9295 48.354 73.248 48.3655 72.5595C48.4073 71.6736 48.4192 71.3705 48.4192 69.1411C48.4192 66.9117 48.4192 66.6085 48.3655 65.7226C48.3534 65.0342 48.2243 64.3527 47.9836 63.7073C47.7707 63.1559 47.4433 62.6555 47.0229 62.2388C46.6059 61.8199 46.1032 61.4954 45.5489 61.2876C44.9024 61.0421 44.2178 60.9114 43.526 60.9012C42.6368 60.8596 42.3325 60.8477 40.0947 60.8477Z" fill="white"/>
<path d="M40.0948 64.8844C39.2508 64.8844 38.4257 65.1335 37.7236 65.6001C37.0215 66.0668 36.4738 66.7302 36.1498 67.5066C35.8257 68.2831 35.7397 69.1377 35.9026 69.9628C36.0656 70.7878 36.4701 71.5463 37.0653 72.1426C37.6604 72.7388 38.4195 73.1461 39.2468 73.313C40.074 73.4799 40.9323 73.399 41.7134 73.0805C42.4946 72.7619 43.1635 72.2201 43.6358 71.5232C44.1082 70.8263 44.3628 70.0057 44.3675 69.1648C44.3675 68.0359 43.9173 66.9532 43.116 66.1549C42.3148 65.3566 41.228 64.9082 40.0948 64.9082M40.0948 71.9293C39.546 71.9293 39.0095 71.7671 38.5532 71.4634C38.0969 71.1596 37.7412 70.7279 37.5312 70.2227C37.3212 69.7176 37.2663 69.1618 37.3733 68.6255C37.4804 68.0893 37.7447 67.5967 38.1327 67.2101C38.5208 66.8234 39.0152 66.5602 39.5535 66.4535C40.0918 66.3468 40.6497 66.4016 41.1567 66.6108C41.6638 66.82 42.0971 67.1744 42.402 67.629C42.7069 68.0836 42.8697 68.6181 42.8697 69.1648C42.8697 69.898 42.5773 70.6011 42.0569 71.1196C41.5366 71.638 40.8308 71.9293 40.0948 71.9293Z" fill="white"/>
<path d="M45.537 64.7179C45.537 64.9157 45.4781 65.109 45.3676 65.2734C45.2572 65.4378 45.1003 65.5658 44.9168 65.6412C44.7332 65.7166 44.5313 65.7361 44.3367 65.697C44.1421 65.658 43.9635 65.5623 43.8235 65.422C43.6835 65.2818 43.5885 65.1032 43.5505 64.9091C43.5125 64.715 43.5332 64.514 43.61 64.3316C43.6868 64.1492 43.8162 63.9936 43.9819 63.8846C44.1475 63.7755 44.3419 63.718 44.5405 63.7191C44.6718 63.7191 44.8019 63.745 44.9232 63.7953C45.0445 63.8456 45.1546 63.9192 45.2473 64.012C45.3399 64.1049 45.4132 64.215 45.4629 64.3362C45.5126 64.4573 45.5378 64.587 45.537 64.7179Z" fill="white"/>
<path d="M188.694 221.358C186.701 221.359 184.727 220.969 182.885 220.209C181.043 219.45 179.37 218.336 177.96 216.932C176.55 215.528 175.432 213.862 174.669 212.027C173.906 210.192 173.513 208.226 173.513 206.24C173.513 202.229 175.113 198.382 177.96 195.546C180.807 192.709 184.668 191.116 188.694 191.116C192.72 191.116 196.582 192.709 199.429 195.546C202.276 198.382 203.875 202.229 203.875 206.24C203.875 208.226 203.482 210.192 202.719 212.027C201.956 213.862 200.838 215.528 199.428 216.932C198.019 218.336 196.345 219.45 194.503 220.209C192.661 220.969 190.687 221.359 188.694 221.358Z" fill="#18989B"/>
<path d="M188.694 199.433C190.914 199.433 191.177 199.433 192.054 199.481C192.582 199.486 193.104 199.583 193.599 199.766C193.962 199.9 194.29 200.114 194.56 200.39C194.829 200.658 195.033 200.983 195.157 201.341C195.341 201.834 195.437 202.355 195.443 202.881C195.485 203.755 195.491 204.017 195.491 206.234C195.491 208.452 195.491 208.707 195.443 209.581C195.437 210.107 195.341 210.628 195.157 211.121C195.032 211.48 194.828 211.807 194.56 212.078C194.288 212.344 193.96 212.547 193.599 212.673C193.104 212.856 192.582 212.952 192.054 212.958C191.177 213 190.914 213.006 188.694 213.006C186.474 213.006 186.206 213.006 185.329 212.958C184.801 212.952 184.278 212.856 183.783 212.673C183.425 212.546 183.099 212.343 182.828 212.078C182.56 211.807 182.356 211.48 182.231 211.121C182.045 210.629 181.946 210.107 181.939 209.581C181.903 208.707 181.891 208.446 181.891 206.234C181.891 204.023 181.891 203.755 181.939 202.881C181.946 202.355 182.045 201.834 182.231 201.341C182.355 200.983 182.559 200.658 182.828 200.39C183.097 200.115 183.423 199.902 183.783 199.766C184.278 199.583 184.801 199.486 185.329 199.481C186.206 199.445 186.468 199.433 188.694 199.433ZM188.694 197.941C186.432 197.941 186.152 197.941 185.263 197.988C184.572 198.004 183.888 198.135 183.24 198.375C182.685 198.583 182.182 198.91 181.766 199.332C181.345 199.748 181.017 200.248 180.805 200.8C180.565 201.446 180.433 202.127 180.417 202.816C180.382 203.696 180.37 204.005 180.37 206.234C180.37 208.463 180.37 208.767 180.417 209.653C180.433 210.339 180.564 211.018 180.805 211.662C181.015 212.215 181.343 212.716 181.766 213.13C182.18 213.554 182.683 213.881 183.24 214.088C183.887 214.33 184.571 214.461 185.263 214.474C186.152 214.516 186.456 214.522 188.694 214.522C190.932 214.522 191.236 214.522 192.125 214.474C192.815 214.461 193.497 214.33 194.142 214.088C194.697 213.876 195.2 213.551 195.619 213.133C196.039 212.715 196.365 212.214 196.577 211.662C196.821 211.019 196.952 210.339 196.965 209.653C197.007 208.767 197.019 208.463 197.019 206.234C197.019 204.005 197.019 203.696 196.965 202.816C196.952 202.127 196.821 201.445 196.577 200.8C196.365 200.248 196.039 199.747 195.619 199.329C195.2 198.911 194.697 198.586 194.142 198.375C193.496 198.135 192.815 198.004 192.125 197.988C191.236 197.947 190.932 197.941 188.694 197.941Z" fill="white"/>
<path d="M188.694 201.972C187.848 201.97 187.02 202.219 186.316 202.687C185.611 203.155 185.062 203.82 184.737 204.599C184.412 205.378 184.327 206.235 184.491 207.062C184.656 207.889 185.063 208.649 185.661 209.246C186.259 209.843 187.021 210.249 187.851 210.414C188.681 210.579 189.542 210.495 190.324 210.173C191.106 209.85 191.775 209.304 192.245 208.603C192.716 207.902 192.967 207.077 192.967 206.234C192.968 205.675 192.858 205.12 192.643 204.603C192.429 204.086 192.114 203.616 191.718 203.22C191.321 202.824 190.849 202.51 190.331 202.296C189.812 202.082 189.256 201.972 188.694 201.972ZM188.694 208.999C188.145 208.999 187.609 208.836 187.153 208.533C186.696 208.229 186.341 207.797 186.131 207.292C185.921 206.787 185.866 206.231 185.973 205.695C186.08 205.159 186.344 204.666 186.732 204.279C187.12 203.893 187.615 203.629 188.153 203.523C188.691 203.416 189.249 203.471 189.756 203.68C190.263 203.889 190.697 204.244 191.001 204.698C191.306 205.153 191.469 205.687 191.469 206.234C191.469 206.967 191.177 207.67 190.656 208.189C190.136 208.707 189.43 208.999 188.694 208.999Z" fill="white"/>
<path d="M194.136 201.805C194.138 202.003 194.08 202.197 193.97 202.362C193.861 202.527 193.705 202.655 193.522 202.732C193.339 202.809 193.137 202.829 192.942 202.791C192.747 202.753 192.568 202.659 192.427 202.519C192.286 202.38 192.19 202.202 192.151 202.008C192.112 201.814 192.131 201.613 192.207 201.43C192.283 201.247 192.411 201.091 192.576 200.981C192.741 200.871 192.935 200.812 193.134 200.812C193.265 200.811 193.395 200.837 193.517 200.886C193.639 200.936 193.749 201.009 193.842 201.101C193.936 201.193 194.009 201.303 194.06 201.424C194.11 201.545 194.136 201.674 194.136 201.805Z" fill="white"/>
<path d="M170.237 90.8167C166.25 90.8167 162.427 89.2389 159.608 86.4305C156.789 83.622 155.205 79.8129 155.205 75.8411C155.202 73.8725 155.589 71.9226 156.343 70.1029C157.097 68.2832 158.203 66.6295 159.6 65.2364C160.996 63.8433 162.654 62.738 164.479 61.984C166.305 61.2299 168.261 60.8417 170.237 60.8417C174.225 60.8417 178.05 62.4201 180.87 65.2297C183.691 68.0393 185.275 71.8499 185.275 75.8233C185.277 77.7919 184.89 79.7417 184.135 81.5611C183.381 83.3804 182.273 85.0337 180.876 86.4263C179.48 87.8189 177.821 88.9234 175.996 89.6768C174.17 90.4301 172.213 90.8175 170.237 90.8167Z" fill="#1E303C"/>
<path d="M162.229 80.8528C163.672 81.7753 165.342 82.2844 167.056 82.3246C168.77 82.3647 170.462 81.9343 171.947 81.0804C173.432 80.2266 174.652 78.9822 175.475 77.4835C176.297 75.9848 176.69 74.2895 176.61 72.5832C177.253 72.1192 177.809 71.5456 178.251 70.8889C177.652 71.1524 177.016 71.3267 176.366 71.4061C177.05 70.9945 177.563 70.3507 177.81 69.5929C177.163 69.9729 176.457 70.2422 175.721 70.3895C175.227 69.8644 174.573 69.5161 173.86 69.3985C173.147 69.2809 172.415 69.4005 171.777 69.7389C171.14 70.0772 170.631 70.6154 170.331 71.2703C170.032 71.9252 169.956 72.6604 170.118 73.362C168.811 73.2973 167.532 72.9588 166.365 72.3688C165.198 71.7788 164.169 70.9504 163.345 69.9377C162.926 70.6592 162.797 71.5125 162.985 72.3249C163.174 73.1373 163.665 73.848 164.359 74.3133C163.838 74.2956 163.329 74.155 162.873 73.903C162.864 74.6663 163.122 75.409 163.604 76.0027C164.085 76.5965 164.76 77.004 165.511 77.155C165.026 77.2863 164.518 77.3046 164.025 77.2085C164.235 77.8589 164.643 78.4278 165.193 78.836C165.743 79.2441 166.407 79.4712 167.092 79.4855C166.413 80.0222 165.633 80.4194 164.798 80.6541C163.963 80.8888 163.09 80.9563 162.229 80.8528Z" fill="white"/>
<path d="M252.241 199.439C248.252 199.439 244.427 197.861 241.607 195.051C238.787 192.241 237.203 188.431 237.203 184.457C237.203 180.484 238.787 176.673 241.607 173.864C244.427 171.054 248.252 169.476 252.241 169.476C254.215 169.476 256.17 169.863 257.994 170.616C259.819 171.369 261.476 172.473 262.872 173.864C264.268 175.255 265.375 176.907 266.13 178.725C266.885 180.542 267.273 182.49 267.272 184.457C267.272 188.43 265.689 192.239 262.87 195.049C260.051 197.858 256.228 199.437 252.241 199.439Z" fill="#18989B"/>
<path d="M244.227 189.469C245.67 190.391 247.339 190.901 249.054 190.941C250.768 190.981 252.46 190.551 253.945 189.697C255.429 188.843 256.65 187.598 257.473 186.1C258.295 184.601 258.688 182.906 258.608 181.199C259.253 180.738 259.809 180.164 260.249 179.505C259.65 179.771 259.014 179.946 258.363 180.022C259.049 179.612 259.563 178.968 259.807 178.209C259.161 178.59 258.455 178.86 257.719 179.006C257.225 178.481 256.57 178.132 255.858 178.015C255.145 177.897 254.413 178.017 253.775 178.355C253.137 178.693 252.629 179.232 252.329 179.887C252.029 180.541 251.954 181.277 252.115 181.978C250.809 181.912 249.531 181.572 248.364 180.983C247.197 180.393 246.168 179.565 245.342 178.554C244.923 179.275 244.794 180.128 244.984 180.94C245.174 181.752 245.667 182.461 246.363 182.924C245.84 182.907 245.329 182.766 244.871 182.513C244.861 183.277 245.12 184.019 245.601 184.613C246.083 185.207 246.758 185.614 247.509 185.765C247.024 185.896 246.516 185.916 246.023 185.825C246.233 186.475 246.643 187.044 247.194 187.451C247.745 187.859 248.41 188.084 249.096 188.096C248.415 188.633 247.634 189.031 246.799 189.266C245.963 189.502 245.089 189.571 244.227 189.469Z" fill="white"/>
<path d="M224.558 166.937C221.875 166.937 219.219 166.411 216.74 165.388C214.261 164.365 212.009 162.865 210.112 160.975C208.216 159.085 206.711 156.84 205.685 154.371C204.659 151.901 204.131 149.254 204.132 146.581C204.133 141.185 206.286 136.011 210.117 132.196C213.947 128.381 219.142 126.237 224.558 126.237C229.971 126.242 235.161 128.387 238.988 132.202C242.815 136.017 244.965 141.188 244.967 146.581C244.968 151.976 242.819 157.151 238.992 160.969C235.165 164.786 229.973 166.933 224.558 166.937Z" fill="#1E303C"/>
<path d="M221.324 158.888H226.294V146.48H229.762L230.132 142.319H226.294V139.941C226.294 138.96 226.491 138.573 227.44 138.573H230.132V134.263H226.688C222.989 134.263 221.318 135.886 221.318 139.019V142.331H218.71V146.54H221.3L221.324 158.888Z" fill="white"/>
<path d="M40.9122 150.683C36.7641 150.683 32.7859 149.042 29.8527 146.12C26.9196 143.197 25.2717 139.234 25.2717 135.101C25.2733 130.97 26.9218 127.008 29.8548 124.087C32.7878 121.166 36.7651 119.525 40.9122 119.525C42.9654 119.525 44.9984 119.928 46.8953 120.711C48.7921 121.494 50.5157 122.641 51.9675 124.088C53.4193 125.534 54.5709 127.251 55.3566 129.141C56.1423 131.031 56.5467 133.056 56.5467 135.101C56.5475 137.147 56.1437 139.174 55.3583 141.064C54.573 142.954 53.4215 144.672 51.9696 146.119C50.5177 147.566 48.7939 148.714 46.8966 149.497C44.9994 150.28 42.9659 150.683 40.9122 150.683Z" fill="#18989B"/>
<path d="M38.4358 144.518H42.2429V135.006H44.8984L45.1789 131.826H42.2429V130.013C42.2429 129.263 42.3921 128.966 43.1201 128.966H45.1789V125.667H42.5413C39.7128 125.667 38.4358 126.909 38.4358 129.287V131.826H36.4546V135.042H38.4358V144.518Z" fill="white"/>
<path d="M173.579 169.167H162.921L167.85 143.365C167.924 143.012 167.916 142.646 167.827 142.296C167.737 141.946 167.569 141.621 167.335 141.346C167.101 141.07 166.807 140.851 166.476 140.706C166.144 140.56 165.784 140.492 165.421 140.506L159.532 140.464C158.708 140.476 157.912 140.764 157.272 141.28C156.631 141.796 156.183 142.512 155.999 143.312L151.052 169.196H79.5271L84.4562 143.395C84.5352 143.039 84.531 142.669 84.4439 142.315C84.3568 141.961 84.189 141.632 83.9537 141.352C83.7184 141.073 83.4217 140.851 83.0867 140.705C82.7516 140.558 82.3872 140.49 82.0215 140.506L76.1377 140.464C75.3139 140.476 74.5182 140.764 73.8778 141.28C73.2373 141.796 72.7892 142.512 72.605 143.312L67.658 169.196H56.5945C55.7721 169.226 54.9833 169.53 54.3547 170.059C53.7261 170.588 53.294 171.312 53.1275 172.115L52.0653 177.888C51.9821 178.242 51.9816 178.61 52.0637 178.965C52.1458 179.319 52.3084 179.65 52.5389 179.932C52.7694 180.214 53.0618 180.439 53.3935 180.591C53.7252 180.743 54.0874 180.817 54.4523 180.807H65.4382L56.7855 226.073H45.8354C45.0122 226.102 44.2226 226.406 43.593 226.935C42.9634 227.464 42.5301 228.188 42.3624 228.992L41.3061 234.764C41.2219 235.119 41.2205 235.488 41.3022 235.843C41.3838 236.198 41.5462 236.53 41.7768 236.812C42.0075 237.095 42.3002 237.321 42.6325 237.473C42.9647 237.625 43.3276 237.699 43.6931 237.689H54.5656L50.7286 257.772C50.6496 258.128 50.6538 258.497 50.7409 258.851C50.828 259.206 50.9958 259.535 51.2311 259.814C51.4664 260.094 51.7631 260.315 52.0981 260.462C52.4332 260.609 52.7976 260.677 53.1633 260.661L59.0531 260.703C59.8764 260.691 60.6718 260.404 61.3114 259.887C61.9511 259.371 62.3978 258.655 62.5798 257.855L66.4407 237.642H137.966L134.123 257.754C134.044 258.11 134.048 258.479 134.135 258.834C134.222 259.188 134.39 259.517 134.625 259.797C134.86 260.076 135.157 260.297 135.492 260.444C135.827 260.591 136.192 260.659 136.557 260.643L142.447 260.685C143.27 260.673 144.066 260.386 144.705 259.869C145.345 259.353 145.792 258.637 145.974 257.837L149.835 237.624H160.683C161.507 237.594 162.298 237.29 162.927 236.76C163.557 236.229 163.99 235.504 164.156 234.699L165.213 228.926C165.296 228.572 165.296 228.204 165.214 227.85C165.132 227.495 164.97 227.165 164.739 226.883C164.508 226.601 164.216 226.375 163.884 226.223C163.553 226.072 163.191 225.998 162.826 226.007H152.084L160.731 180.742H171.472C172.295 180.711 173.083 180.407 173.711 179.878C174.34 179.349 174.772 178.625 174.939 177.823L175.996 172.05C176.073 171.696 176.068 171.329 175.982 170.977C175.895 170.625 175.729 170.297 175.496 170.019C175.263 169.741 174.969 169.519 174.636 169.372C174.304 169.224 173.942 169.154 173.579 169.167ZM140.162 226.043H68.6606L77.2834 180.777H148.838L140.162 226.043Z" fill="#18989B" stroke="#263238" stroke-miterlimit="10"/>
<path opacity="0.34" d="M82.3915 154.179L65.3487 181.312L56.8034 226.043H47.9896L44.8687 237.66H54.5716L50.7286 257.772C50.6496 258.128 50.6538 258.497 50.7409 258.851C50.828 259.206 50.9958 259.535 51.2311 259.814C51.4664 260.094 51.7631 260.315 52.0981 260.462C52.4332 260.609 52.7976 260.677 53.1633 260.661L59.0531 260.703C59.8764 260.691 60.6718 260.404 61.3114 259.887C61.9511 259.371 62.3978 258.655 62.5798 257.855L66.4407 237.642H98.7659L92.5718 226.025H68.6606L77.2834 180.777H132.028L143.682 169.167H79.5271L82.3915 154.179Z" fill="black"/>
<path d="M129.623 200.164C129.623 200.164 133.597 206.936 135.895 208.844C138.192 210.752 138.574 211.513 136.85 212.274C135.125 213.035 129.39 211.68 128.818 211.133C128.245 210.586 123.65 195.503 125.565 196.074C127.481 196.645 129.623 200.164 129.623 200.164Z" fill="white" stroke="#263238" stroke-miterlimit="10"/>
<path d="M127.475 207.685C127.475 207.685 132.314 211.971 137.822 211.704C137.822 211.704 137.411 214.795 128.818 211.109L127.475 207.685Z" fill="white" stroke="#263238" stroke-miterlimit="10"/>
<path d="M88.9317 150.309C88.9317 150.309 85.0708 158.418 88.7288 169.161C92.3868 179.903 113.547 200.777 113.75 201.383C113.953 201.989 121.89 223.273 125.756 230.567C129.623 237.862 141.218 259.549 142.465 260.358C143.712 261.166 148.164 258.539 148.975 258.337C149.787 258.134 159.932 251.678 163.81 246.982C167.689 242.285 163.81 240.501 163.81 240.501C163.81 240.501 147.328 245.567 145.908 245.567C144.488 245.567 143.67 242.933 142.853 242.731C142.035 242.529 130.447 204.421 129.635 200.164C128.824 195.908 128.818 196.318 128.006 193.072C127.195 189.826 118.637 173.798 118.637 173.798C118.637 173.798 141.827 171.158 154.644 166.908C167.462 162.657 169.223 156.159 168.608 153.929C167.993 151.7 139.923 150.321 131.819 150.202C123.716 150.083 117.498 150.291 117.498 150.291L88.9317 150.309Z" fill="#1E303C" stroke="#263238" stroke-miterlimit="10"/>
<path d="M157.085 159.227C157.085 159.227 150.169 160.85 146.708 163.887C144.136 166.153 131.539 179.862 125.255 186.728L126.598 189.653C127.207 190.858 127.698 192.118 128.066 193.417C138.031 186.574 163.709 166.943 168.417 164.428C174.116 161.391 173.913 154.322 172.081 153.281C170.249 152.241 158.917 152.128 158.917 152.128" fill="#1E303C"/>
<path d="M157.085 159.227C157.085 159.227 150.169 160.85 146.708 163.887C144.136 166.153 131.539 179.862 125.255 186.728L126.598 189.653C127.207 190.858 127.698 192.118 128.066 193.417C138.031 186.574 163.709 166.943 168.417 164.428C174.116 161.391 173.913 154.322 172.081 153.281C170.249 152.241 158.917 152.128 158.917 152.128" stroke="#485E69" stroke-miterlimit="10"/>
<path d="M87.9172 147.045C87.9172 147.045 86.0852 150.689 87.3205 152.11C88.5557 153.531 99.1299 156.272 108.075 157.431C117.02 158.59 122.713 156.367 124.139 154.946C125.565 153.525 125.004 151.106 125.004 151.106C125.004 151.106 96.0567 151.73 87.9172 147.045Z" fill="#18989B" stroke="#263238" stroke-miterlimit="10"/>
<path d="M117.181 93.712C117.181 93.712 101.899 96.191 99.9476 101.221C97.9963 106.25 92.2676 137.343 92.2676 137.343C92.2676 137.343 84.2952 145.452 86.2465 148.044C88.1978 150.636 102.036 156.801 112.455 155.992C122.874 155.184 124.342 153.721 124.987 151.129C125.631 148.537 127.427 140.428 127.917 137.343C128.406 134.257 132.804 125.013 132.804 125.013C132.804 125.013 135.083 132.313 137.357 133.93C139.631 135.547 145.664 137.17 145.664 137.17L149.572 129.549C149.572 129.549 143.706 119.656 143.223 115.923C142.74 112.189 143.873 99.7046 140.615 95.1626C137.357 90.6205 131.008 90.6265 127.917 90.9475C124.826 91.2685 117.181 93.712 117.181 93.712Z" fill="#18989B" stroke="#263238" stroke-miterlimit="10"/>
<path d="M134.988 113.753C134.689 114.394 134.502 115.082 134.433 115.786C134.272 118.384 134.6 123.247 132.81 125.031" stroke="#263238" stroke-miterlimit="10"/>
<path d="M137.554 109.77C136.976 110.457 136.448 111.184 135.972 111.945" stroke="#263238" stroke-miterlimit="10"/>
<path d="M112.765 135.06C115.451 133.556 118.733 131.534 120.78 129.709" stroke="#263238" stroke-miterlimit="10"/>
<path d="M108.439 137.343C108.439 137.343 109.28 136.933 110.551 136.261" stroke="#263238" stroke-miterlimit="10"/>
<path d="M124.426 130.03C124.426 130.03 115.612 136.344 113.78 137.01" stroke="#263238" stroke-miterlimit="10"/>
<path d="M136.623 131.029C136.623 131.029 138.628 126.208 142.799 123.717" stroke="#263238" stroke-miterlimit="10"/>
<path d="M137.793 125.215C137.793 125.215 135.125 128.372 134.958 129.697" stroke="#263238" stroke-miterlimit="10"/>
<path d="M127.923 90.9535C124.831 91.2804 117.181 93.712 117.181 93.712C117.181 93.712 115.582 94.2411 113.422 95.1447C114.591 98.603 116.123 101.929 117.993 105.067C120.923 109.77 123.692 114.472 123.692 114.472C123.692 114.472 130.041 100.686 131.992 95.1685C132.521 93.8437 132.798 92.4326 132.81 91.007C131.188 90.8003 129.548 90.7823 127.923 90.9535Z" fill="#18989B" stroke="#263238" stroke-miterlimit="10"/>
<path d="M136.599 67.9758C136.599 67.9758 137.643 69.0162 138.389 71.9352C139.135 74.8542 138.699 74.23 141.003 76.8339C143.306 79.4379 142.883 82.565 141.94 86.2093C140.997 89.8536 140.15 92.8797 137.864 94.1281C135.579 95.3766 130.017 94.3362 130.017 94.3362C130.017 94.3362 126.257 104.342 125.106 106.53C123.954 108.717 124.372 109.966 122.91 107.879C121.448 105.792 116.202 96.2148 115.785 94.7286C115.546 94.0617 115.439 93.3552 115.468 92.6478C114.457 91.7107 113.641 90.584 113.068 89.3323C112.495 88.0805 112.175 86.7283 112.127 85.3532C112.019 80.7696 114.424 78.9979 116.304 75.6628C118.184 72.3276 120.38 60.2413 125.088 59.6111C129.796 58.9809 135.966 65.5978 136.599 67.9758Z" fill="white" stroke="#263238" stroke-miterlimit="10"/>
<path d="M127.917 63.2911C129.057 63.8288 130.006 64.6997 130.638 65.788C131.473 67.4586 130.948 68.9151 132.1 68.1661C133.251 67.417 132.834 64.9379 132.834 64.9379L136.599 67.9758C136.599 67.9758 138.479 63.6003 137.327 60.7882C136.175 57.9762 130.429 56.4127 128.651 56.6267C126.872 56.8407 123.525 58.2913 123.525 58.2913C123.525 58.2913 126.765 61.0974 127.917 63.2911Z" fill="#263238" stroke="#263238" stroke-miterlimit="10"/>
<path d="M128.233 64.3315C128.233 64.3315 128.334 68.1839 125.195 72.8745C122.057 77.5652 119.133 78.9147 119.133 78.9147C119.133 78.9147 119.55 82.565 118.715 82.8741C117.879 83.1833 117.247 82.1488 116.62 82.0418C115.994 81.9348 113.905 81.5186 113.798 85.377C113.69 89.2353 118.297 90.6919 118.297 90.6919L120.493 89.7526C120.493 89.7526 119.968 92.7726 115.892 93.9141C111.817 95.0555 108.045 91.5361 108.045 91.5361L110.241 88.8251L106.165 83.4092H104.071C104.473 82.9634 104.736 82.4111 104.83 81.8191C104.923 81.2272 104.842 80.621 104.596 80.074C103.761 78.0943 103.128 71.5309 106.476 66.2161C109.823 60.9012 120.595 57.78 120.595 57.78C120.595 57.78 124.05 56.4246 126.347 58.2972C128.645 60.1699 128.233 64.3315 128.233 64.3315Z" fill="#263238" stroke="#263238" stroke-miterlimit="10"/>
<path d="M131.586 72.7675C131.586 72.7675 127.612 73.2907 126.568 76.0016" stroke="#263238" stroke-miterlimit="10"/>
<path d="M135.131 71.5428C135.131 71.5428 136.175 69.9793 137.745 70.5025" stroke="#263238" stroke-miterlimit="10"/>
<path d="M134.612 74.23C135.192 75.7366 136.01 77.1414 137.035 78.3916C138.574 80.1751 139.672 80.2821 139.451 81.4116C139.231 82.5412 137.47 84.3128 136.468 84.3128" stroke="#263238" stroke-miterlimit="10"/>
<path d="M133.335 87C134.203 87.3545 135.138 87.5194 136.076 87.4835C137.014 87.4476 137.933 87.2117 138.771 86.7919" stroke="#263238" stroke-miterlimit="10"/>
<path d="M131.861 77.7495C132.064 78.5877 131.795 79.3725 131.264 79.4973C130.733 79.6222 130.13 79.0515 129.933 78.2073C129.737 77.3631 129.999 76.5843 130.53 76.4594C131.061 76.3346 131.664 76.8934 131.861 77.7495Z" fill="#263238"/>
<path d="M138.664 74.771C138.861 75.6093 138.592 76.394 138.067 76.5189C137.542 76.6437 136.939 76.073 136.736 75.2288C136.533 74.3846 136.802 73.6058 137.333 73.4809C137.864 73.3561 138.461 73.9209 138.664 74.771Z" fill="#263238"/>
<path d="M130.005 94.3362L125.661 92.9391L128.752 97.4871L130.005 94.3362Z" fill="#263238" stroke="#263238" stroke-miterlimit="10"/>
<path d="M133.973 73.9863C130.949 74.7951 128.09 76.1229 125.524 77.91C125.524 77.91 127.01 81.9764 128.382 82.2856C129.755 82.5947 133.269 80.6091 134.803 79.6935C136.337 78.778 134.302 73.9863 133.973 73.9863Z" stroke="#263238" stroke-miterlimit="10"/>
<path d="M141.922 70.4133C139.474 71.0703 137.16 72.1466 135.083 73.5939C135.083 73.5939 136.277 76.8875 137.399 77.1609C138.52 77.4344 141.355 75.8055 142.59 75.0623C143.825 74.3192 142.208 70.4133 141.922 70.4133Z" stroke="#263238" stroke-miterlimit="10"/>
<path d="M133.949 73.9863L135.083 73.5939" stroke="#263238" stroke-miterlimit="10"/>
<path d="M125.5 77.91L116.62 82.0418" stroke="#263238" stroke-miterlimit="10"/>
<path d="M103.94 97.4217C102.069 98.035 100.339 99.0132 98.8514 100.299C97.3638 101.585 96.148 103.154 95.275 104.912C93.4848 108.717 88.5259 134.905 89.1763 138.799C89.8268 142.693 104.154 154.696 108.063 157.455C111.972 160.213 113.273 161.343 113.273 161.343L117.503 150.315C117.503 150.315 113.273 147.883 112.622 146.587C111.972 145.291 102.525 134.103 102.525 134.103L109.555 113.39" fill="#18989B"/>
<path d="M103.94 97.4217C102.069 98.035 100.339 99.0132 98.8514 100.299C97.3638 101.585 96.148 103.154 95.275 104.912C93.4848 108.717 88.5259 134.905 89.1763 138.799C89.8268 142.693 104.154 154.696 108.063 157.455C111.972 160.213 113.273 161.343 113.273 161.343L117.503 150.315C117.503 150.315 113.273 147.883 112.622 146.587C111.972 145.291 102.525 134.103 102.525 134.103L109.555 113.39" stroke="#263238" stroke-miterlimit="10"/>
<path d="M113.147 147.402C113.147 147.402 110.164 153.222 109.519 154.536" stroke="#263238" stroke-miterlimit="10"/>
<path d="M144.828 130.322L119.401 147.075L139.577 158.697L165.738 137.337L144.828 130.322Z" fill="#A1A1A1" stroke="#263238" stroke-miterlimit="10"/>
<path d="M144.249 133.966L125.351 146.415L140.347 155.053L159.788 139.18L144.249 133.966Z" fill="#787878"/>
<path d="M167.391 111.827C167.391 111.827 170.834 111.535 172.308 110.751C173.782 109.966 173.686 112.219 172.905 113.2C172.123 114.181 169.76 114.983 168.477 115.061L167.2 115.162L167.391 111.827Z" fill="white" stroke="#263238" stroke-miterlimit="10"/>
<path d="M140.358 127.242L139.577 158.697L165.738 137.337L169.097 107.879L140.358 127.242Z" fill="#858585" stroke="#263238" stroke-miterlimit="10"/>
<path d="M170.404 114.27C170.404 114.27 166.603 116.351 165.72 116.892C164.837 117.433 165.541 118.788 166.782 118.877C168.023 118.967 170.583 117.974 171.377 116.707C172.17 115.441 171.997 113.753 170.404 114.27Z" fill="white" stroke="#263238" stroke-miterlimit="10"/>
<path d="M171.323 116.921C171.323 116.921 172.517 119.181 171.717 120.352C170.917 121.523 168.375 122.807 167.092 122.51C165.809 122.213 165.72 121.529 166.114 120.726C166.538 120.13 167.115 119.658 167.785 119.359C169.006 118.608 170.187 117.795 171.323 116.921Z" fill="white" stroke="#263238" stroke-miterlimit="10"/>
<path d="M170.834 121.434C171.023 121.828 171.096 122.268 171.043 122.702C170.99 123.136 170.814 123.546 170.536 123.883C169.557 124.959 166.8 125.453 166.406 124.959C166.012 124.466 168.793 122.706 168.793 122.706L170.834 121.434Z" fill="white" stroke="#263238" stroke-miterlimit="10"/>
<path d="M170.535 123.859C170.535 123.859 170.046 125.72 169.455 126.237C168.865 126.755 166.698 127.426 166.8 126.725C166.901 126.023 168.59 124.941 168.59 124.941C169.285 124.67 169.939 124.306 170.535 123.859Z" fill="white" stroke="#263238" stroke-miterlimit="10"/>
<path d="M117.504 150.315C117.504 150.315 120.762 149.078 122.439 148.371C123.933 147.778 125.474 147.307 127.045 146.962C127.57 146.873 129.522 148.02 130.668 148.02C131.813 148.02 133.592 148.288 133.651 148.9C133.711 149.512 132.762 149.786 131.789 150.226C130.817 150.666 126.484 150.047 126.484 150.047L125.888 150.576L134.91 156.218C134.91 156.218 132.082 157.015 131.109 157.366C130.136 157.716 130.22 157.633 128.627 157.633C127.033 157.633 126.15 157.716 121.818 157.984C117.486 158.252 115.475 155.778 115.475 155.778L117.504 150.315Z" fill="white" stroke="#263238" stroke-miterlimit="10"/>
<path d="M102.525 134.097C101.114 133.945 99.7341 133.582 98.4316 133.021" stroke="#263238" stroke-miterlimit="10"/>
<path d="M163.81 240.501C163.81 240.501 147.328 245.567 145.908 245.567C145.908 245.567 144.953 251.886 143.074 255.37C142.507 256.403 141.776 257.337 140.907 258.134C141.336 258.931 141.852 259.676 142.447 260.358C143.641 261.172 148.146 258.539 148.957 258.337C149.769 258.135 159.931 251.678 163.81 246.982C167.689 242.285 163.81 240.501 163.81 240.501Z" fill="white" stroke="#263238" stroke-miterlimit="10"/>
<path d="M163.81 246.982C165.559 244.871 165.726 243.343 165.38 242.303C163.285 245.043 155.068 254.924 142.161 260.049C142.243 260.163 142.339 260.267 142.447 260.358C143.641 261.172 148.146 258.539 148.957 258.337C149.769 258.134 159.931 251.678 163.81 246.982Z" fill="white" stroke="#263238" stroke-miterlimit="10"/>
<path d="M114.973 164.5L117.82 170.778" stroke="#485E69" stroke-miterlimit="10"/>
<path d="M116.984 169L119.628 159.595" stroke="#485E69" stroke-miterlimit="10"/>
<path d="M121.329 160.35L119.252 165.427" stroke="#485E69" stroke-miterlimit="10"/>
<path d="M151.911 159.595C151.911 159.595 155.492 157.716 159.275 157.901" stroke="#485E69" stroke-miterlimit="10"/>
<path d="M94.5171 159.221C94.5171 159.221 101.881 158.091 106.225 159.221" stroke="#485E69" stroke-miterlimit="10"/>
</g>
<defs>
<clipPath id="clip0_4_1396">
<rect width="282" height="261" fill="white"/>
</clipPath>
</defs>
</svg>
