<svg width="341" height="256" viewBox="0 0 341 256" fill="none" xmlns="http://www.w3.org/2000/svg">
<path d="M341 224.973H0V225.145H341V224.973Z" fill="#EBEBEB"/>
<path d="M297.127 236.028H284.244V236.199H297.127V236.028Z" fill="#EBEBEB"/>
<path d="M219.959 234.832H199.86V235.004H219.959V234.832Z" fill="#EBEBEB"/>
<path d="M283.562 229.652H251.433V229.824H283.562V229.652Z" fill="#EBEBEB"/>
<path d="M43.2593 230.806H35.7777V230.978H43.2593V230.806Z" fill="#EBEBEB"/>
<path d="M75.627 230.806H49.3291V230.978H75.627V230.806Z" fill="#EBEBEB"/>
<path d="M153.552 233.705H116.622V233.877H153.552V233.705Z" fill="#EBEBEB"/>
<path d="M161.634 194.331H29.9534C28.9206 194.331 27.9301 193.917 27.1998 193.182C26.4695 192.446 26.0592 191.448 26.0592 190.408V3.92302C26.0682 2.88854 26.4824 1.8995 27.2118 1.17121C27.9411 0.442908 28.9265 0.0343079 29.9534 0.0343475H161.634C162.667 0.0343475 163.657 0.447666 164.388 1.18338C165.118 1.91909 165.528 2.91692 165.528 3.95738V190.408C165.528 191.448 165.118 192.446 164.388 193.182C163.657 193.917 162.667 194.331 161.634 194.331ZM29.9534 0.171757C28.9664 0.173573 28.0203 0.569377 27.3223 1.27248C26.6244 1.97559 26.2315 2.92868 26.2297 3.92302V190.408C26.2315 191.402 26.6244 192.355 27.3223 193.058C28.0203 193.761 28.9664 194.157 29.9534 194.159H161.634C162.621 194.157 163.567 193.761 164.265 193.058C164.963 192.355 165.356 191.402 165.358 190.408V3.92302C165.356 2.92868 164.963 1.97559 164.265 1.27248C163.567 0.569377 162.621 0.173573 161.634 0.171757H29.9534Z" fill="#EBEBEB"/>
<path d="M309.158 194.331H177.463C176.431 194.329 175.442 193.915 174.712 193.18C173.982 192.444 173.571 191.448 173.569 190.408V3.92302C173.58 2.8891 173.995 1.9011 174.724 1.17319C175.453 0.445275 176.437 0.0360983 177.463 0.0343475H309.158C310.182 0.0379233 311.164 0.44812 311.89 1.17603C312.617 1.90394 313.029 2.89091 313.038 3.92302V190.408C313.038 191.446 312.63 192.442 311.902 193.177C311.175 193.912 310.188 194.327 309.158 194.331ZM177.463 0.171757C176.476 0.173573 175.53 0.569377 174.832 1.27248C174.134 1.97559 173.741 2.92868 173.74 3.92302V190.408C173.741 191.402 174.134 192.355 174.832 193.058C175.53 193.761 176.476 194.157 177.463 194.159H309.158C310.145 194.157 311.091 193.761 311.789 193.058C312.487 192.355 312.879 191.402 312.881 190.408V3.92302C312.879 2.92868 312.487 1.97559 311.789 1.27248C311.091 0.569377 310.145 0.173573 309.158 0.171757H177.463Z" fill="#EBEBEB"/>
<path d="M297.127 236.028H284.244V236.199H297.127V236.028Z" fill="#EBEBEB"/>
<path d="M219.959 234.832H199.86V235.004H219.959V234.832Z" fill="#EBEBEB"/>
<path d="M283.562 229.652H251.433V229.824H283.562V229.652Z" fill="#EBEBEB"/>
<path d="M43.2593 230.806H35.7777V230.978H43.2593V230.806Z" fill="#EBEBEB"/>
<path d="M75.627 230.806H49.3291V230.978H75.627V230.806Z" fill="#EBEBEB"/>
<path d="M153.552 233.705H116.622V233.877H153.552V233.705Z" fill="#EBEBEB"/>
<path d="M134.313 21.0717H93.8159V113.85H134.313V21.0717Z" fill="#E6E6E6"/>
<path d="M136.789 21.0717H96.2916V113.85H136.789V21.0717Z" fill="#F5F5F5"/>
<path d="M132.349 109.673V25.2489L100.731 25.2489V109.673H132.349Z" fill="white"/>
<path d="M132.342 109.666V25.2421H130.473V109.666H132.342Z" fill="#E6E6E6"/>
<path d="M134.947 84.6028H98.1262V90.2091H134.947V84.6028Z" fill="#F5F5F5"/>
<path d="M134.947 32.614H98.1262V38.2203H134.947V32.614Z" fill="#F5F5F5"/>
<path d="M188.914 21.0717H148.417V113.85H188.914V21.0717Z" fill="#E6E6E6"/>
<path d="M191.383 21.0717H150.886V113.85H191.383V21.0717Z" fill="#F5F5F5"/>
<path d="M186.943 109.673V25.2489L155.326 25.2489V109.673H186.943Z" fill="white"/>
<path d="M186.943 109.666V25.2421H185.074V109.666H186.943Z" fill="#E6E6E6"/>
<path d="M189.548 84.6028H152.727V90.2091H189.548V84.6028Z" fill="#F5F5F5"/>
<path d="M189.548 32.614H152.727V38.2203H189.548V32.614Z" fill="#F5F5F5"/>
<path d="M79.7121 21.0717H39.215V113.85H79.7121V21.0717Z" fill="#E6E6E6"/>
<path d="M82.1878 21.0717H41.6907V113.85H82.1878V21.0717Z" fill="#F5F5F5"/>
<path d="M77.748 109.673V25.2489L46.1305 25.2489V109.673H77.748Z" fill="white"/>
<path d="M77.7412 109.666V25.2421H75.8725V109.666H77.7412Z" fill="#E6E6E6"/>
<path d="M80.3464 84.6028H43.5253V90.2091H80.3464V84.6028Z" fill="#F5F5F5"/>
<path d="M80.3464 32.614H43.5253V38.2203H80.3464V32.614Z" fill="#F5F5F5"/>
<path d="M224.528 132.291H217.906V224.966H224.528V132.291Z" fill="#E6E6E6"/>
<path d="M226.301 132.291H222.4V224.966H226.301V132.291Z" fill="#F0F0F0"/>
<path d="M133.474 139.243H227.508V132.291H133.474V139.243Z" fill="#F0F0F0"/>
<path d="M44.4051 132.291H37.7828V224.966H44.4051V132.291Z" fill="#F7F7F7"/>
<path d="M45.6463 132.291H41.7452V224.966H45.6463V132.291Z" fill="white"/>
<path d="M36.603 139.243H130.637V132.291H36.603V139.243Z" fill="#E6E6E6"/>
<path d="M132.908 132.291H126.286V224.966H132.908V132.291Z" fill="#E6E6E6"/>
<path d="M134.681 132.291H130.78V224.966H134.681V132.291Z" fill="#F0F0F0"/>
<path d="M116.056 101.47H165.16L169.013 130.676H119.916L116.056 101.47Z" fill="#E6E6E6"/>
<path d="M119.916 130.676L120.114 132.291H169.218L169.02 130.676H119.916Z" fill="#E6E6E6"/>
<path d="M117.57 101.47H166.667L170.527 130.676H121.423L117.57 101.47Z" fill="#F0F0F0"/>
<path d="M122.61 129.343L119.111 102.803H165.481L168.986 129.343H122.61Z" fill="white"/>
<path d="M134.218 130.676L134.415 132.291H188.491L188.286 130.676H134.218Z" fill="#F0F0F0"/>
<path opacity="0.3" d="M222.946 107.213H198.639C194.502 107.176 190.494 108.668 187.375 111.406C184.255 114.145 182.241 117.94 181.712 122.074L178.159 149.123L164.955 149.075H164.914C161.97 149.005 159.112 150.075 156.928 152.066C154.744 154.056 153.402 156.814 153.177 159.772L152.4 169.048C151.119 169.23 149.934 169.831 149.026 170.758C148.118 171.685 147.537 172.888 147.373 174.18H212.579C216.713 174.217 220.717 172.727 223.834 169.991C226.951 167.255 228.964 163.463 229.493 159.333L234.608 120.515C234.803 118.851 234.647 117.165 234.151 115.567C233.655 113.968 232.829 112.493 231.729 111.238C230.628 109.982 229.277 108.975 227.763 108.282C226.25 107.588 224.608 107.224 222.946 107.213ZM165.658 168.951H155.905L156.642 160.418C156.802 158.232 157.79 156.191 159.403 154.717C161.015 153.244 163.127 152.452 165.303 152.504H165.337L177.722 152.545L176.856 159.12C176.506 161.858 175.17 164.372 173.102 166.184C171.034 167.996 168.378 168.981 165.637 168.951H165.658Z" fill="#18989B"/>
<path d="M162.432 174.152H159.049L151.124 224.973H154.507L162.432 174.152Z" fill="#F0F0F0"/>
<path d="M175.131 174.152H171.748L163.816 224.973H167.199L175.131 174.152Z" fill="#F0F0F0"/>
<path d="M204.921 174.152H208.303L216.235 224.973H212.852L204.921 174.152Z" fill="#F0F0F0"/>
<path d="M192.229 174.152H195.611L203.536 224.973H200.153L192.229 174.152Z" fill="#F0F0F0"/>
<path d="M299.814 22.7H233.871V161.49H299.814V22.7Z" fill="#E6E6E6"/>
<path d="M304.397 22.7H235.092V161.49H304.397V22.7Z" fill="#F0F0F0"/>
<path d="M298.586 155.636V28.5467L240.889 28.5467V155.636H298.586Z" fill="#FAFAFA"/>
<path d="M261.349 155.636L268.496 28.5467H278.14L270.993 155.636H261.349Z" fill="white"/>
<path d="M272.814 155.636L279.961 28.5467H289.605L282.457 155.636H272.814Z" fill="white"/>
<path d="M164.232 45.7916L153.655 201.394H282.634L294.317 29.488H181.528L164.232 45.7916Z" fill="#18989B"/>
<path opacity="0.8" d="M164.232 45.7916L153.655 201.394H282.634L294.317 29.488H181.528L164.232 45.7916Z" fill="white"/>
<path d="M272.08 82.0237C280.769 73.5648 281.456 60.0806 273.614 51.9058C265.772 43.731 252.371 43.9612 243.682 52.4201C234.993 60.8789 234.306 74.3632 242.148 82.538C249.99 90.7128 263.391 90.4825 272.08 82.0237Z" fill="#18989B"/>
<path d="M271.331 81.2431C279.562 73.2299 280.213 60.4564 272.785 52.7127C265.357 44.9689 252.662 45.1874 244.431 53.2007C236.2 61.2139 235.549 73.9874 242.977 81.7311C250.405 89.4748 263.1 89.2563 271.331 81.2431Z" fill="white"/>
<mask id="mask0_4_809" style="mask-type:luminance" maskUnits="userSpaceOnUse" x="237" y="47" width="41" height="41">
<path d="M271.331 81.2431C279.562 73.2299 280.213 60.4564 272.785 52.7127C265.357 44.9689 252.662 45.1874 244.431 53.2007C236.2 61.2139 235.549 73.9874 242.977 81.7311C250.405 89.4748 263.1 89.2563 271.331 81.2431Z" fill="white"/>
</mask>
<g mask="url(#mask0_4_809)">
<path d="M252.62 74.2353L248.678 73.9742C248.678 73.9742 246.843 83.4829 245.67 84.2799C244.068 85.3997 240.896 88.1067 238.789 89.0892C238.571 89.7325 238.527 90.4222 238.659 91.0885C241.933 91.0885 247.989 87.8044 249.032 86.3754C251.426 83.1669 252.62 74.2353 252.62 74.2353Z" fill="#FFC3BD"/>
<path d="M254.502 68.2717C255.696 70.5115 251.979 78.5774 251.979 78.5774L246.918 76.9834C247.064 74.5035 247.634 72.0675 248.603 69.7832C249.858 67.1518 253.193 65.8121 254.502 68.2717Z" fill="#1E303C"/>
<path opacity="0.2" d="M250.635 72.394C251.317 74.0154 250.424 77.9316 249.721 80.4118C248.009 77.4575 247.771 74.7093 250.635 72.394Z" fill="black"/>
<path d="M250.615 68.6702C249.837 71.5352 248.309 79.0583 249.558 90.8686H262.877C263.184 88.622 262.795 77.6499 265.926 67.0625C264.339 66.7462 262.732 66.5396 261.117 66.4442C259.059 66.3238 256.996 66.3238 254.938 66.4442C254.06 66.5263 253.19 66.6873 252.34 66.9251C251.927 67.04 251.55 67.2614 251.248 67.5674C250.945 67.8733 250.727 68.2534 250.615 68.6702Z" fill="#1E303C"/>
<path opacity="0.2" d="M262.529 69.6733C262.127 71.4184 262.284 75.5887 263.491 80.4118C263.849 76.258 264.563 72.1433 265.626 68.1137C264.678 67.9969 262.911 68.0518 262.529 69.6733Z" fill="black"/>
<path d="M260.845 60.618C260.272 62.6242 259.849 65.1044 261.118 66.4442C261.118 66.4442 260.129 68.5053 256.439 68.5053C253.063 68.5053 254.939 66.4442 254.939 66.4442C257.203 65.9083 257.346 63.1463 257.101 61.5936L260.845 60.618Z" fill="#FFC3BD"/>
<path d="M256.432 68.4709C256.776 69.0531 256.96 69.7172 256.964 70.3947C256.964 70.3947 261.738 68.7526 261.738 66.3411C261.738 66.3411 261.117 65.9495 260.729 65.6541C260.742 65.6334 260.422 67.5091 256.432 68.4709Z" fill="white"/>
<path d="M256.303 68.4709C255.873 68.9941 255.553 69.5994 255.361 70.2504C254.799 69.817 254.388 69.2145 254.188 68.5302C253.988 67.8459 254.01 67.1153 254.25 66.4442C254.646 66.2843 255.054 66.1556 255.471 66.0594C255.471 66.0594 254.891 67.9557 256.303 68.4709Z" fill="white"/>
<path opacity="0.2" d="M257.114 61.5936C257.311 62.6971 257.2 63.8339 256.794 64.8777C257.145 64.8271 257.487 64.7253 257.81 64.5754C259.119 63.9777 259.822 63.0433 260.592 61.6623C260.667 61.3051 260.763 60.9753 260.858 60.618L257.114 61.5936Z" fill="black"/>
<path d="M253.875 59.7386C253.976 60.0428 254.139 60.3223 254.354 60.5589C254.569 60.7956 254.831 60.9843 255.123 61.1127C255.921 61.4562 256.487 60.7211 256.439 59.876C256.391 59.031 255.886 58.0141 255.007 58.0279C254.808 58.0375 254.615 58.0938 254.442 58.1924C254.27 58.291 254.122 58.429 254.012 58.5954C253.902 58.7619 253.832 58.952 253.808 59.1505C253.784 59.3491 253.807 59.5505 253.875 59.7386Z" fill="#FFC3BD"/>
<path opacity="0.2" d="M253.875 59.7386C253.976 60.0428 254.139 60.3223 254.354 60.5589C254.569 60.7956 254.831 60.9843 255.123 61.1127C255.921 61.4562 256.487 60.7211 256.439 59.876C256.391 59.031 255.886 58.0141 255.007 58.0279C254.808 58.0375 254.615 58.0938 254.442 58.1924C254.27 58.291 254.122 58.429 254.012 58.5954C253.902 58.7619 253.832 58.952 253.808 59.1505C253.784 59.3491 253.807 59.5505 253.875 59.7386Z" fill="black"/>
<path d="M257.441 54.1254C257.182 52.5384 254.857 55.3278 255.355 56.798C255.852 58.2683 257.728 55.9118 257.441 54.1254Z" fill="#1E303C"/>
<path d="M262.42 58.1515C261.568 60.8104 261.199 62.3975 259.528 63.5379C259.023 63.9275 258.417 64.1625 257.783 64.215C257.148 64.2675 256.513 64.1354 255.951 63.8343C255.389 63.5332 254.925 63.0758 254.613 62.5166C254.302 61.9573 254.157 61.3198 254.195 60.6798C254.263 58.1653 255.648 54.2422 258.471 53.6239C261.295 53.0055 263.252 55.4926 262.42 58.1515Z" fill="#FFC3BD"/>
<path d="M261.643 56.5782C258.765 56.166 254.632 55.6301 256.132 53.2598C257.557 50.9994 263.245 51.4116 261.52 52.4147C263.75 52.5452 266.587 53.6239 264.446 54.3659C266.171 55.6026 265.489 58.9141 262.195 60.0684C261.247 58.6806 260.524 58.0691 261.643 56.5782Z" fill="#1E303C"/>
<path d="M262.829 61.3188C262.343 61.821 261.69 62.1244 260.995 62.1707C260.095 62.2188 259.924 61.3532 260.408 60.6043C260.892 59.8554 261.834 59.0928 262.625 59.402C263.416 59.7111 263.436 60.6867 262.829 61.3188Z" fill="#FFC3BD"/>
<path d="M258.28 58.2065C258.226 58.4263 258.069 58.5775 257.926 58.5569C257.782 58.5363 257.721 58.337 257.782 58.1172C257.844 57.8973 257.994 57.7393 258.13 57.7668C258.267 57.7943 258.342 57.9866 258.28 58.2065Z" fill="#263238"/>
<path d="M255.887 57.7805C255.832 58.0004 255.675 58.1584 255.539 58.1309C255.402 58.1034 255.334 57.9111 255.389 57.6912C255.443 57.4713 255.6 57.3202 255.743 57.3408C255.887 57.3614 255.948 57.5607 255.887 57.7805Z" fill="#263238"/>
<path d="M256.623 58.0279C256.195 58.6519 255.691 59.2196 255.123 59.718C255.244 59.8503 255.394 59.9526 255.56 60.0169C255.727 60.0813 255.907 60.106 256.084 60.089L256.623 58.0279Z" fill="#ED847E"/>
<path d="M256.548 60.8035C256.54 60.8019 256.532 60.7986 256.525 60.7939C256.518 60.7892 256.513 60.7831 256.508 60.776C256.504 60.769 256.501 60.7611 256.499 60.7528C256.498 60.7445 256.498 60.7361 256.5 60.7279C256.506 60.7111 256.517 60.6966 256.532 60.6867C256.547 60.6768 256.564 60.672 256.582 60.673C256.855 60.7213 257.135 60.7075 257.402 60.6326C257.668 60.5577 257.915 60.4236 258.124 60.2401C258.129 60.2341 258.136 60.2293 258.144 60.226C258.151 60.2228 258.16 60.2211 258.168 60.2211C258.176 60.2211 258.184 60.2228 258.192 60.226C258.2 60.2293 258.206 60.2341 258.212 60.2401C258.225 60.253 258.232 60.2702 258.232 60.2882C258.232 60.3062 258.225 60.3235 258.212 60.3363C257.988 60.5368 257.722 60.6831 257.434 60.7641C257.145 60.8451 256.842 60.8586 256.548 60.8035Z" fill="#263238"/>
<path d="M259.208 57.5332C259.189 57.5304 259.172 57.5225 259.157 57.5104C259.143 57.4983 259.132 57.4824 259.126 57.4645C259.07 57.3189 258.978 57.1902 258.858 57.0905C258.739 56.9907 258.597 56.9232 258.444 56.8942C258.428 56.8937 258.412 56.8895 258.397 56.8819C258.383 56.8743 258.37 56.8635 258.36 56.8503C258.35 56.8371 258.344 56.8219 258.34 56.8057C258.337 56.7895 258.338 56.7728 258.342 56.7568C258.348 56.7223 258.367 56.6913 258.395 56.6698C258.423 56.6483 258.457 56.6377 258.492 56.64C258.685 56.6685 258.867 56.7467 259.021 56.8671C259.176 56.9875 259.296 57.1459 259.372 57.3271C259.383 57.3599 259.382 57.396 259.368 57.4279C259.354 57.4597 259.328 57.4851 259.297 57.4988C259.285 57.5105 259.271 57.5196 259.256 57.5256C259.241 57.5315 259.224 57.5341 259.208 57.5332Z" fill="#263238"/>
<path d="M255.068 56.7156C255.053 56.7214 255.036 56.7214 255.021 56.7156C255.009 56.7041 254.999 56.6902 254.993 56.6748C254.986 56.6595 254.983 56.643 254.983 56.6263C254.983 56.6096 254.986 56.5931 254.993 56.5777C254.999 56.5624 255.009 56.5485 255.021 56.537C255.157 56.3751 255.328 56.246 255.52 56.1592C255.712 56.0724 255.921 56.0301 256.132 56.0354C256.148 56.0379 256.164 56.0437 256.178 56.0523C256.192 56.061 256.204 56.0723 256.214 56.0858C256.223 56.0993 256.23 56.1145 256.233 56.1306C256.237 56.1467 256.237 56.1634 256.234 56.1797C256.228 56.2155 256.208 56.2475 256.179 56.2692C256.15 56.2908 256.114 56.3006 256.078 56.2965C255.911 56.2944 255.747 56.3298 255.596 56.3999C255.445 56.47 255.311 56.5732 255.205 56.7019C255.186 56.7175 255.163 56.7272 255.139 56.7297C255.114 56.7321 255.09 56.7272 255.068 56.7156Z" fill="#263238"/>
<path d="M267.099 70.7382L263.491 72.6688C263.491 72.6688 266.976 81.3256 266.383 82.6241C265.571 84.3967 264.227 88.2922 262.904 90.2228C263.06 90.8663 263.394 91.4522 263.866 91.9129C266.758 90.1541 270.311 84.2112 270.468 82.4935C270.822 78.5705 267.099 70.7382 267.099 70.7382Z" fill="#FFC3BD"/>
<path d="M265.926 67.0625C268.449 67.5091 270.304 76.5643 270.304 76.5643L264.084 78.3575C263.2 76.2751 262.469 74.1304 261.895 71.9405C261.07 68.5877 263.252 66.5747 265.926 67.0625Z" fill="#1E303C"/>
</g>
<path d="M265.216 183.061C273.905 174.602 274.591 161.118 266.749 152.943C258.908 144.769 245.507 144.999 236.818 153.458C228.129 161.916 227.442 175.401 235.284 183.576C243.126 191.75 256.527 191.52 265.216 183.061Z" fill="#18989B"/>
<path d="M264.467 182.274C272.698 174.261 273.349 161.487 265.921 153.743C258.492 146 245.798 146.218 237.567 154.231C229.335 162.245 228.684 175.018 236.113 182.762C243.541 190.506 256.236 190.287 264.467 182.274Z" fill="white"/>
<path d="M244.047 175.465L240.344 174.249C240.344 174.249 236.313 183.18 234.997 183.716C233.196 184.403 229.541 186.334 227.283 186.794C226.917 187.378 226.706 188.048 226.669 188.738C229.793 189.549 236.361 187.763 237.704 186.602C240.746 183.963 244.047 175.465 244.047 175.465Z" fill="#FFB573"/>
<path d="M247.273 170.016C247.873 172.517 242.39 179.601 242.39 179.601L237.95 176.77C238.681 174.365 239.808 172.1 241.285 170.071C243.112 167.783 246.611 167.275 247.273 170.016Z" fill="#18989B"/>
<path opacity="0.2" d="M243.808 173.129C244.224 174.86 243.849 177.629 242.751 179.999C241.776 178.508 240.637 174.956 243.808 173.129Z" fill="black"/>
<path d="M243.747 169.735C242.969 172.6 241.448 180.123 242.69 191.933H256.016C256.323 189.686 255.927 178.714 259.058 168.127C257.471 167.811 255.864 167.604 254.249 167.509C252.192 167.388 250.128 167.388 248.071 167.509C247.192 167.591 246.323 167.752 245.472 167.99C245.059 168.106 244.684 168.327 244.381 168.633C244.079 168.939 243.86 169.318 243.747 169.735Z" fill="#18989B"/>
<path opacity="0.3" d="M243.747 169.735C242.969 172.6 241.448 180.123 242.69 191.933H256.016C256.323 189.686 255.927 178.714 259.058 168.127C257.471 167.811 255.864 167.604 254.249 167.509C252.192 167.388 250.128 167.388 248.071 167.509C247.192 167.591 246.323 167.752 245.472 167.99C245.059 168.106 244.684 168.327 244.381 168.633C244.079 168.939 243.86 169.318 243.747 169.735Z" fill="black"/>
<path opacity="0.2" d="M255.709 172.957C255.307 174.702 254.952 178.845 256.623 181.442C256.983 177.288 257.7 173.173 258.764 169.144C257.796 169.048 256.091 171.322 255.709 172.957Z" fill="black"/>
<g opacity="0.95">
<path d="M249.401 172.868L248.671 173.19L248.112 172.682C247.401 172.089 246.885 171.293 246.631 170.4C246.376 169.506 246.396 168.556 246.686 167.673C247.137 167.583 247.592 167.517 248.05 167.474C250.108 167.354 252.171 167.354 254.229 167.474C254.707 167.474 255.184 167.536 255.648 167.584L255.184 168.182C253.619 170.151 251.645 171.75 249.401 172.868Z" fill="white"/>
</g>
<path d="M253.984 161.648C253.404 163.654 252.981 166.134 254.25 167.474C252.815 169.263 251.015 170.718 248.971 171.741C248.346 171.25 247.913 170.553 247.748 169.773C247.584 168.992 247.698 168.178 248.071 167.474C250.342 166.938 250.478 164.176 250.233 162.624L253.984 161.648Z" fill="#FFB573"/>
<path opacity="0.2" d="M250.233 162.624C250.429 163.727 250.318 164.864 249.912 165.908C250.266 165.856 250.61 165.755 250.935 165.605C252.238 165.008 252.94 164.073 253.711 162.692C253.793 162.335 253.881 162.005 253.984 161.648L250.233 162.624Z" fill="black"/>
<path d="M247.007 160.803C247.108 161.108 247.272 161.389 247.488 161.625C247.705 161.862 247.968 162.05 248.262 162.177C249.06 162.521 249.626 161.785 249.571 160.94C249.517 160.095 249.019 159.079 248.146 159.092C247.947 159.101 247.753 159.156 247.579 159.255C247.406 159.353 247.257 159.491 247.146 159.657C247.036 159.824 246.965 160.014 246.941 160.213C246.917 160.412 246.939 160.614 247.007 160.803Z" fill="#FFB573"/>
<path opacity="0.2" d="M247.007 160.803C247.108 161.108 247.272 161.389 247.488 161.625C247.705 161.862 247.968 162.05 248.262 162.177C249.06 162.521 249.626 161.785 249.571 160.94C249.517 160.095 249.019 159.079 248.146 159.092C247.947 159.101 247.753 159.156 247.579 159.255C247.406 159.353 247.257 159.491 247.146 159.657C247.036 159.824 246.965 160.014 246.941 160.213C246.917 160.412 246.939 160.614 247.007 160.803Z" fill="black"/>
<path d="M250.164 156.069C249.905 154.276 247.927 156.33 247.702 157.643C247.477 158.955 248.568 160.281 249.312 159.017C250.055 157.753 250.294 157.038 250.164 156.069Z" fill="#263238"/>
<path d="M255.552 159.182C254.7 161.84 254.331 163.421 252.661 164.568C252.155 164.958 251.549 165.193 250.915 165.245C250.281 165.298 249.645 165.165 249.083 164.864C248.521 164.563 248.057 164.106 247.746 163.547C247.434 162.987 247.289 162.35 247.327 161.71C247.395 159.195 248.78 155.272 251.603 154.654C254.427 154.036 256.432 156.523 255.552 159.182Z" fill="#FFB573"/>
<path d="M254.263 161.964C253.24 161.277 253.056 161.016 253.581 160.398C254.468 159.395 253.151 159.25 253.847 158.007C254.815 156.275 251.726 157.491 251.671 156.234C251.624 155.21 248.943 157.052 248.664 155.87C248.261 154.097 250.839 154.427 251.29 153.562C251.74 152.696 254.386 152.565 254.809 153.829C255.231 155.094 256.561 154.084 257.428 155.623C258.294 157.162 256.5 157.278 257.366 158.776C258.048 159.979 256.732 160.837 255.798 161.792C255.238 162.411 254.897 162.397 254.263 161.964Z" fill="#263238"/>
<path d="M256.132 161.985C255.69 162.53 255.063 162.89 254.372 162.995C253.472 163.118 253.226 162.308 253.649 161.49C254.072 160.672 254.945 159.869 255.763 160.116C256.582 160.363 256.684 161.305 256.132 161.985Z" fill="#FFB573"/>
<path d="M251.412 159.237C251.358 159.456 251.201 159.608 251.065 159.587C250.928 159.566 250.86 159.367 250.915 159.147C250.969 158.927 251.126 158.769 251.269 158.797C251.412 158.824 251.474 159.017 251.412 159.237Z" fill="#263238"/>
<path d="M249.025 158.811C248.964 159.03 248.807 159.188 248.671 159.161C248.534 159.133 248.466 158.941 248.521 158.721C248.575 158.501 248.739 158.35 248.875 158.371C249.012 158.391 249.08 158.591 249.025 158.811Z" fill="#263238"/>
<path d="M249.755 159.058C249.33 159.682 248.828 160.25 248.261 160.748C248.383 160.88 248.532 160.983 248.699 161.047C248.866 161.111 249.045 161.136 249.223 161.119L249.755 159.058Z" fill="#ED893E"/>
<path d="M249.68 161.834C249.672 161.832 249.664 161.829 249.658 161.824C249.651 161.819 249.646 161.813 249.642 161.806C249.638 161.798 249.635 161.79 249.635 161.782C249.635 161.774 249.636 161.766 249.639 161.758C249.643 161.741 249.652 161.726 249.666 161.716C249.68 161.706 249.697 161.701 249.714 161.703C249.987 161.751 250.267 161.738 250.534 161.663C250.8 161.588 251.047 161.454 251.256 161.27C251.261 161.264 251.268 161.26 251.276 161.257C251.284 161.253 251.292 161.252 251.3 161.252C251.308 161.252 251.316 161.253 251.324 161.257C251.332 161.26 251.339 161.264 251.344 161.27C251.35 161.276 251.355 161.283 251.358 161.291C251.361 161.298 251.363 161.307 251.363 161.315C251.363 161.323 251.361 161.331 251.358 161.339C251.355 161.347 251.35 161.354 251.344 161.36C251.121 161.561 250.855 161.709 250.567 161.791C250.278 161.873 249.975 161.888 249.68 161.834Z" fill="#263238"/>
<path d="M252.34 158.563C252.321 158.56 252.304 158.553 252.289 158.54C252.275 158.528 252.264 158.512 252.258 158.495C252.202 158.349 252.11 158.22 251.99 158.121C251.871 158.021 251.729 157.953 251.576 157.924C251.56 157.923 251.545 157.918 251.531 157.91C251.517 157.902 251.505 157.891 251.495 157.878C251.485 157.865 251.479 157.85 251.475 157.835C251.471 157.819 251.471 157.803 251.474 157.787C251.48 157.752 251.499 157.721 251.527 157.7C251.555 157.678 251.589 157.668 251.624 157.67C251.817 157.699 251.999 157.777 252.153 157.897C252.308 158.018 252.428 158.176 252.504 158.357C252.515 158.39 252.514 158.426 252.5 158.458C252.486 158.49 252.46 158.515 252.429 158.529C252.417 158.541 252.403 158.55 252.388 158.556C252.373 158.562 252.356 158.564 252.34 158.563Z" fill="#263238"/>
<path d="M248.173 157.746C248.157 157.75 248.141 157.75 248.125 157.746C248.113 157.734 248.104 157.72 248.097 157.705C248.091 157.69 248.087 157.673 248.087 157.656C248.087 157.64 248.091 157.623 248.097 157.608C248.104 157.592 248.113 157.579 248.125 157.567C248.259 157.403 248.428 157.273 248.619 157.186C248.811 157.099 249.02 157.058 249.23 157.065C249.246 157.068 249.262 157.074 249.276 157.082C249.29 157.091 249.302 157.102 249.311 157.116C249.321 157.129 249.328 157.145 249.331 157.161C249.335 157.177 249.335 157.193 249.332 157.21C249.326 157.244 249.307 157.275 249.279 157.297C249.252 157.318 249.217 157.329 249.182 157.327C249.016 157.324 248.851 157.358 248.7 157.429C248.549 157.499 248.415 157.602 248.309 157.732C248.29 157.746 248.267 157.755 248.243 157.757C248.219 157.76 248.195 157.756 248.173 157.746Z" fill="#263238"/>
<path d="M260.524 172.077L256.732 173.534C256.732 173.534 259.044 182.651 258.294 183.874C257.271 185.544 255.45 189.267 253.902 191.026C253.97 191.688 254.223 192.317 254.631 192.84C257.694 191.466 261.956 185.969 262.331 184.272C263.17 180.391 260.524 172.077 260.524 172.077Z" fill="#FFB573"/>
<path d="M259.842 168.244C262.263 169.02 262.925 178.316 262.925 178.316L256.582 179.305C255.98 177.108 255.538 174.869 255.259 172.606C254.863 169.144 257.237 167.412 259.842 168.244Z" fill="#18989B"/>
<path d="M255.211 190.875L252.708 190.353L253.431 193.369C253.431 193.369 255.641 193.754 256.391 192.077L255.211 190.875Z" fill="#FFB573"/>
<path d="M250.362 191.383L251.153 194.077L253.431 193.369L252.708 190.353L250.362 191.383Z" fill="#FFB573"/>
<path d="M205.583 132.546C214.272 124.087 214.959 110.603 207.117 102.428C199.275 94.2534 185.874 94.4837 177.185 102.943C168.496 111.401 167.809 124.886 175.651 133.06C183.493 141.235 196.894 141.005 205.583 132.546Z" fill="#407BFF"/>
<path d="M204.834 131.766C213.065 123.752 213.716 110.979 206.288 103.235C198.86 95.4914 186.165 95.7099 177.934 103.723C169.703 111.736 169.052 124.51 176.48 132.254C183.908 139.997 196.603 139.779 204.834 131.766Z" fill="white"/>
<mask id="mask1_4_809" style="mask-type:luminance" maskUnits="userSpaceOnUse" x="171" y="97" width="41" height="41">
<path d="M204.834 131.766C213.065 123.752 213.716 110.979 206.288 103.235C198.86 95.4914 186.165 95.7099 177.934 103.723C169.703 111.736 169.052 124.51 176.48 132.254C183.908 139.997 196.603 139.779 204.834 131.766Z" fill="white"/>
</mask>
<g mask="url(#mask1_4_809)">
<path d="M199.765 122.5C199.867 124.135 199.949 125.784 200.01 127.426L200.208 132.332L200.242 132.93L200.29 133.452C200.344 133.809 200.385 134.18 200.46 134.565C200.603 135.32 200.788 136.09 201.006 136.859C201.415 138.405 201.913 139.965 202.37 141.504L200.958 142.191C200.104 140.735 199.35 139.222 198.701 137.663C198.387 136.873 198.094 136.069 197.841 135.224C197.707 134.796 197.595 134.36 197.507 133.919L197.391 133.232L197.323 132.6C196.962 129.274 196.723 125.997 196.593 122.693L199.765 122.5Z" fill="#FF8B7B"/>
<path d="M199.014 118.893C200.256 119.216 200.788 124.479 200.788 124.479L195.734 127.825C195.734 127.825 194.159 121.593 195.229 120.192C196.3 118.79 197.194 118.426 199.014 118.893Z" fill="#407BFF"/>
<path opacity="0.2" d="M198.816 120.075L199.43 125.372L197.377 126.712L198.816 120.075Z" fill="black"/>
<path d="M185.163 105.345C183.028 105.654 178.561 115.932 185.845 120.728C193.129 125.523 198.503 120.075 198.503 120.075C198.503 120.075 194.07 114.771 194.711 111.308C195.352 107.846 198.121 103.483 192.447 102.026C188.45 101.03 183.076 101.992 185.163 105.345Z" fill="#263238"/>
<path d="M199.014 118.893C199.014 118.893 200.44 119.415 196.286 137.608H183.772C184.331 132.483 184.549 129.323 182.831 118.804C184.599 118.446 186.39 118.217 188.191 118.117C190.08 117.983 191.976 117.983 193.865 118.117C196.286 118.33 199.014 118.893 199.014 118.893Z" fill="#407BFF"/>
<path opacity="0.2" d="M183.581 122.974C184.692 123.256 185.627 124.5 185.374 126.794C185.225 127.851 184.796 128.848 184.133 129.68C184.058 127.914 183.86 125.867 183.506 123.249L183.581 122.974Z" fill="black"/>
<path d="M192.931 122.136C192.931 122.136 190.769 123.84 190.646 125.647C189.03 124.39 186.963 120.968 186.875 118.776C186.875 118.594 186.947 118.419 187.074 118.291C187.202 118.162 187.376 118.089 187.557 118.089C187.71 118.078 187.863 118.057 188.014 118.028C188.077 118.014 188.142 118.015 188.205 118.03C188.267 118.045 188.326 118.075 188.375 118.117L192.931 122.136Z" fill="#FAFAFA"/>
<path d="M192.931 122.136C193.506 122.497 193.986 122.992 194.331 123.579C194.677 124.166 194.877 124.828 194.916 125.509C196.73 124.238 196.109 120.439 195.27 118.577C195.205 118.432 195.104 118.307 194.976 118.214C194.847 118.121 194.697 118.064 194.54 118.048C194.295 118.048 194.104 117.986 193.974 117.959C193.927 117.951 193.879 117.961 193.84 117.988C193.8 118.015 193.773 118.056 193.763 118.103L192.931 122.136Z" fill="#FAFAFA"/>
<path d="M189.187 111.665C189.419 113.507 189.548 116.88 188.191 118.103C189.464 119.776 191.081 121.152 192.931 122.136C195.604 120.075 193.865 118.103 193.865 118.103C191.86 117.615 192.017 116.097 192.467 114.668L189.187 111.665Z" fill="#FF8B7B"/>
<path opacity="0.2" d="M190.523 112.888L192.467 114.661C192.356 114.992 192.274 115.332 192.222 115.678C191.451 115.561 190.278 114.895 190.176 114.043C190.2 113.636 190.319 113.24 190.523 112.888Z" fill="black"/>
<path d="M186.329 108.711C186.97 111.672 187.182 112.937 188.941 114.139C189.531 114.56 190.22 114.816 190.94 114.881C191.659 114.947 192.383 114.819 193.038 114.511C193.693 114.203 194.255 113.727 194.667 113.129C195.08 112.531 195.328 111.834 195.386 111.109C195.625 108.271 194.534 103.909 191.396 103.373C190.685 103.261 189.957 103.324 189.275 103.557C188.593 103.789 187.977 104.185 187.479 104.709C186.981 105.233 186.617 105.871 186.417 106.568C186.216 107.265 186.186 108 186.329 108.711Z" fill="#FF8B7B"/>
<path d="M187.168 111.377C189.057 109.563 189.125 107.316 188.648 106.616C190.271 106.478 194.472 105.448 193.797 103.868C193.122 102.287 186.581 101.435 185.681 105.475C183.512 107.303 184.897 110.965 187.168 111.377Z" fill="#263238"/>
<path d="M191.267 108.443C191.308 108.691 191.465 108.855 191.628 108.821C191.792 108.787 191.887 108.56 191.847 108.32C191.806 108.079 191.649 107.901 191.492 107.942C191.335 107.983 191.233 108.203 191.267 108.443Z" fill="#263238"/>
<path d="M194.049 107.832C194.084 108.079 194.247 108.244 194.404 108.21C194.561 108.175 194.67 107.949 194.629 107.701C194.588 107.454 194.431 107.289 194.275 107.323C194.183 107.367 194.109 107.442 194.068 107.535C194.027 107.629 194.02 107.734 194.049 107.832Z" fill="#263238"/>
<path d="M194.199 107.358L194.766 107.055C194.766 107.055 194.534 107.578 194.199 107.358Z" fill="#263238"/>
<path d="M193.258 108.464C193.561 108.973 193.936 109.436 194.37 109.838C194.26 109.954 194.128 110.046 193.981 110.108C193.834 110.169 193.676 110.199 193.517 110.195L193.258 108.464Z" fill="#FF5652"/>
<path d="M192.324 111.432C192.448 111.425 192.571 111.409 192.692 111.384C192.711 111.379 192.728 111.367 192.74 111.351C192.751 111.334 192.756 111.314 192.754 111.294C192.753 111.285 192.75 111.276 192.746 111.267C192.741 111.259 192.734 111.252 192.726 111.246C192.718 111.241 192.709 111.238 192.7 111.236C192.69 111.235 192.681 111.236 192.672 111.24C192.376 111.317 192.066 111.32 191.769 111.25C191.472 111.179 191.197 111.036 190.967 110.834C190.953 110.821 190.935 110.814 190.916 110.814C190.897 110.814 190.878 110.821 190.864 110.834C190.857 110.841 190.851 110.849 190.847 110.857C190.843 110.866 190.841 110.876 190.841 110.886C190.841 110.895 190.843 110.905 190.847 110.914C190.851 110.923 190.857 110.931 190.864 110.937C191.06 111.118 191.29 111.256 191.542 111.341C191.793 111.426 192.06 111.457 192.324 111.432Z" fill="#263238"/>
<path d="M185.934 111.666C186.083 111.909 186.282 112.119 186.517 112.281C186.752 112.443 187.018 112.554 187.298 112.607C188.061 112.751 188.423 112.037 188.198 111.343C187.973 110.649 187.352 109.893 186.595 110.065C186.43 110.101 186.276 110.177 186.147 110.286C186.017 110.395 185.915 110.534 185.85 110.692C185.786 110.849 185.759 111.019 185.774 111.189C185.788 111.358 185.843 111.522 185.934 111.666Z" fill="#FF8B7B"/>
<path d="M189.964 107.9C189.995 107.897 190.024 107.884 190.047 107.863C190.071 107.842 190.087 107.814 190.094 107.784C190.272 107.319 190.625 106.944 191.076 106.739C191.094 106.732 191.111 106.721 191.125 106.707C191.139 106.692 191.151 106.676 191.158 106.657C191.166 106.638 191.17 106.619 191.17 106.599C191.17 106.578 191.165 106.559 191.158 106.54C191.15 106.523 191.14 106.508 191.126 106.495C191.113 106.483 191.097 106.473 191.08 106.466C191.063 106.46 191.045 106.457 191.026 106.458C191.008 106.459 190.99 106.463 190.974 106.471C190.706 106.592 190.464 106.765 190.264 106.981C190.064 107.197 189.908 107.451 189.807 107.729C189.802 107.747 189.801 107.767 189.804 107.786C189.807 107.805 189.814 107.823 189.824 107.839C189.834 107.855 189.848 107.869 189.864 107.88C189.88 107.89 189.898 107.897 189.916 107.9C189.924 107.904 189.932 107.906 189.94 107.906C189.949 107.906 189.957 107.904 189.964 107.9Z" fill="#263238"/>
<path d="M194.725 105.881C194.75 105.881 194.775 105.874 194.798 105.862C194.82 105.85 194.84 105.833 194.854 105.812C194.88 105.784 194.894 105.747 194.894 105.709C194.894 105.671 194.88 105.634 194.854 105.606C194.665 105.474 194.448 105.39 194.22 105.36C193.992 105.331 193.761 105.356 193.545 105.434C193.509 105.449 193.48 105.477 193.464 105.513C193.447 105.549 193.444 105.589 193.456 105.626C193.463 105.645 193.473 105.662 193.487 105.676C193.5 105.69 193.516 105.701 193.534 105.709C193.552 105.717 193.571 105.721 193.59 105.721C193.61 105.721 193.629 105.717 193.647 105.709C193.817 105.646 194 105.626 194.18 105.651C194.359 105.676 194.53 105.746 194.677 105.853L194.725 105.881Z" fill="#263238"/>
<path d="M191.424 107.969L191.99 107.667C191.99 107.667 191.751 108.196 191.424 107.969Z" fill="#263238"/>
<path d="M183.635 136.873L183.24 138C183.185 138.089 183.288 138.179 183.431 138.179H196.293C196.409 138.179 196.505 138.124 196.518 138.048L196.702 136.921C196.702 136.846 196.627 136.777 196.498 136.777H183.847C183.806 136.774 183.766 136.781 183.729 136.798C183.692 136.814 183.66 136.84 183.635 136.873Z" fill="#407BFF"/>
<path opacity="0.2" d="M183.635 136.873L183.24 138C183.185 138.089 183.288 138.179 183.431 138.179H196.293C196.409 138.179 196.505 138.124 196.518 138.048L196.702 136.921C196.702 136.846 196.627 136.777 196.498 136.777H183.847C183.806 136.774 183.766 136.781 183.729 136.798C183.692 136.814 183.66 136.84 183.635 136.873Z" fill="white"/>
<path d="M185.279 138.295H184.938C184.87 138.295 184.822 138.261 184.829 138.22L185.088 136.756C185.088 136.715 185.156 136.681 185.224 136.681H185.565C185.634 136.681 185.681 136.715 185.674 136.756L185.415 138.22C185.408 138.261 185.347 138.295 185.279 138.295Z" fill="#407BFF"/>
<path opacity="0.4" d="M185.279 138.295H184.938C184.87 138.295 184.822 138.261 184.829 138.22L185.088 136.756C185.088 136.715 185.156 136.681 185.224 136.681H185.565C185.634 136.681 185.681 136.715 185.674 136.756L185.415 138.22C185.408 138.261 185.347 138.295 185.279 138.295Z" fill="black"/>
<path d="M195.332 138.295H194.991C194.922 138.295 194.875 138.261 194.882 138.22L195.141 136.756C195.141 136.715 195.209 136.681 195.277 136.681H195.618C195.686 136.681 195.734 136.715 195.727 136.756L195.468 138.22C195.461 138.261 195.4 138.295 195.332 138.295Z" fill="#407BFF"/>
<path opacity="0.4" d="M195.332 138.295H194.991C194.922 138.295 194.875 138.261 194.882 138.22L195.141 136.756C195.141 136.715 195.209 136.681 195.277 136.681H195.618C195.686 136.681 195.734 136.715 195.727 136.756L195.468 138.22C195.461 138.261 195.4 138.295 195.332 138.295Z" fill="black"/>
<path d="M190.326 138.295H189.985C189.917 138.295 189.869 138.261 189.876 138.22L190.135 136.756C190.135 136.715 190.203 136.681 190.271 136.681H190.612C190.68 136.681 190.728 136.715 190.721 136.756L190.462 138.22C190.455 138.261 190.394 138.295 190.326 138.295Z" fill="#407BFF"/>
<path opacity="0.4" d="M190.326 138.295H189.985C189.917 138.295 189.869 138.261 189.876 138.22L190.135 136.756C190.135 136.715 190.203 136.681 190.271 136.681H190.612C190.68 136.681 190.728 136.715 190.721 136.756L190.462 138.22C190.455 138.261 190.394 138.295 190.326 138.295Z" fill="black"/>
<path d="M184.222 123.015C183.867 125.077 183.465 127.2 183.056 129.288C182.858 130.333 182.633 131.349 182.414 132.414L182.094 133.974L181.951 134.661C181.934 134.71 181.934 134.763 181.951 134.812C182.062 135.102 182.24 135.361 182.469 135.568C182.786 135.879 183.133 136.158 183.506 136.399C184.341 136.936 185.214 137.411 186.118 137.821C187.038 138.254 187.993 138.653 188.962 139.017C189.93 139.381 190.919 139.704 191.894 140.061L191.54 141.593C189.4 141.24 187.293 140.702 185.245 139.986C184.182 139.618 183.153 139.159 182.169 138.611C181.635 138.312 181.131 137.962 180.662 137.567C180.064 137.092 179.595 136.473 179.298 135.767C179.132 135.329 179.067 134.86 179.107 134.393C179.141 134.098 179.155 134.036 179.175 133.891L179.236 133.493L179.475 131.92C179.646 130.868 179.796 129.817 179.98 128.766C180.328 126.671 180.662 124.575 181.091 122.486L184.222 123.015Z" fill="#FF8B7B"/>
<path d="M182.83 118.811C181.555 119.196 179.755 123.538 179.755 123.538L183.847 128.079C183.847 128.079 186.411 123.407 186.002 121.779C185.593 120.151 184.29 118.371 182.83 118.811Z" fill="#407BFF"/>
</g>
<path opacity="0.3" d="M175.492 65.2006H224.378C224.833 65.1935 225.269 65.0156 225.601 64.7017C225.932 64.3879 226.136 63.9607 226.172 63.5036C226.19 63.2864 226.163 63.0677 226.092 62.8617C226.021 62.6557 225.908 62.467 225.76 62.3077C225.612 62.1485 225.433 62.0222 225.233 61.9371C225.034 61.8519 224.819 61.8098 224.603 61.8135H175.724C175.269 61.8203 174.834 61.997 174.501 62.3093C174.168 62.6216 173.962 63.0472 173.924 63.5036C173.906 63.7212 173.933 63.9402 174.004 64.1465C174.075 64.3529 174.187 64.542 174.335 64.7018C174.483 64.8616 174.662 64.9885 174.861 65.0744C175.061 65.1603 175.276 65.2033 175.492 65.2006Z" fill="#18989B"/>
<path opacity="0.3" d="M188.996 72.6482H223.853C224.308 72.6397 224.744 72.4615 225.077 72.1481C225.409 71.8347 225.615 71.4083 225.653 70.9512C225.672 70.7339 225.644 70.5152 225.573 70.3093C225.502 70.1033 225.389 69.9146 225.242 69.7553C225.094 69.596 224.914 69.4698 224.715 69.3846C224.516 69.2995 224.301 69.2574 224.085 69.2611H189.228C188.773 69.2679 188.337 69.4446 188.004 69.7569C187.672 70.0692 187.466 70.4948 187.427 70.9512C187.409 71.1688 187.436 71.3878 187.507 71.5941C187.578 71.8004 187.691 71.9896 187.839 72.1493C187.987 72.3091 188.166 72.4361 188.365 72.522C188.564 72.6079 188.779 72.6509 188.996 72.6482Z" fill="#18989B"/>
<path d="M197.139 57.7462H224.869C225.324 57.7407 225.759 57.5643 226.091 57.2516C226.423 56.9389 226.627 56.5124 226.663 56.056C226.681 55.839 226.654 55.6206 226.583 55.4148C226.513 55.2089 226.4 55.0201 226.254 54.8604C226.107 54.7008 225.928 54.5737 225.73 54.4874C225.531 54.401 225.317 54.3573 225.101 54.359H197.371C196.916 54.3662 196.48 54.5441 196.148 54.8579C195.816 55.1718 195.613 55.599 195.577 56.056C195.559 56.2727 195.586 56.4908 195.657 56.6963C195.727 56.9018 195.84 57.0902 195.987 57.2493C196.134 57.4085 196.312 57.5349 196.511 57.6205C196.709 57.706 196.923 57.7489 197.139 57.7462Z" fill="white"/>
<path opacity="0.3" d="M197.2 174.015H216.978C217.195 174.011 217.41 174.053 217.609 174.138C217.808 174.224 217.987 174.35 218.135 174.509C218.283 174.668 218.396 174.857 218.467 175.063C218.538 175.269 218.565 175.488 218.547 175.705C218.511 176.163 218.307 176.591 217.974 176.905C217.64 177.219 217.203 177.397 216.747 177.402H196.969C196.752 177.405 196.537 177.362 196.338 177.276C196.138 177.19 195.959 177.063 195.812 176.903C195.664 176.743 195.551 176.554 195.48 176.348C195.409 176.142 195.382 175.923 195.4 175.705C195.437 175.248 195.643 174.822 195.976 174.509C196.309 174.196 196.745 174.02 197.2 174.015Z" fill="#18989B"/>
<path opacity="0.3" d="M170.418 174.015H190.196C190.413 174.011 190.627 174.053 190.827 174.138C191.026 174.224 191.205 174.35 191.353 174.509C191.501 174.668 191.614 174.857 191.685 175.063C191.756 175.269 191.783 175.488 191.765 175.705C191.726 176.162 191.521 176.588 191.188 176.902C190.856 177.215 190.42 177.393 189.964 177.402H170.186C169.97 177.405 169.755 177.362 169.555 177.276C169.356 177.19 169.177 177.063 169.029 176.903C168.882 176.743 168.769 176.554 168.698 176.348C168.627 176.142 168.6 175.923 168.618 175.705C168.654 175.247 168.858 174.82 169.192 174.507C169.525 174.194 169.963 174.019 170.418 174.015Z" fill="#18989B"/>
<path opacity="0.3" d="M182.612 166.567H217.469C217.686 166.564 217.9 166.606 218.1 166.691C218.299 166.776 218.478 166.902 218.626 167.062C218.774 167.221 218.887 167.41 218.958 167.616C219.029 167.822 219.056 168.04 219.038 168.257C219.002 168.715 218.799 169.142 218.467 169.456C218.135 169.769 217.699 169.947 217.244 169.954H182.38C182.164 169.957 181.949 169.914 181.75 169.828C181.551 169.742 181.373 169.615 181.225 169.455C181.078 169.295 180.966 169.106 180.896 168.9C180.826 168.694 180.799 168.475 180.819 168.257C180.854 167.801 181.058 167.375 181.39 167.062C181.722 166.749 182.158 166.573 182.612 166.567Z" fill="#18989B"/>
<path d="M178.002 159.113H217.967C218.184 159.11 218.398 159.153 218.597 159.239C218.796 159.325 218.975 159.452 219.122 159.612C219.269 159.772 219.382 159.961 219.452 160.167C219.522 160.374 219.548 160.593 219.529 160.81C219.493 161.266 219.289 161.693 218.958 162.005C218.626 162.318 218.19 162.495 217.735 162.5H177.791C177.574 162.504 177.359 162.462 177.16 162.376C176.961 162.291 176.782 162.165 176.634 162.006C176.486 161.846 176.373 161.658 176.302 161.452C176.231 161.246 176.204 161.027 176.222 160.81C176.257 160.355 176.459 159.93 176.788 159.616C177.117 159.303 177.549 159.123 178.002 159.113Z" fill="white"/>
<path opacity="0.3" d="M261.07 123.496H224.651C224.196 123.504 223.76 123.681 223.428 123.995C223.096 124.309 222.893 124.736 222.857 125.193C222.839 125.41 222.866 125.628 222.937 125.834C223.007 126.039 223.12 126.228 223.267 126.387C223.414 126.546 223.592 126.672 223.791 126.758C223.989 126.843 224.203 126.886 224.419 126.884H260.838C261.292 126.878 261.728 126.702 262.06 126.389C262.392 126.076 262.596 125.65 262.631 125.193C262.651 124.976 262.624 124.757 262.554 124.551C262.484 124.345 262.372 124.155 262.225 123.996C262.078 123.836 261.899 123.709 261.7 123.623C261.501 123.537 261.286 123.494 261.07 123.496Z" fill="#18989B"/>
<path opacity="0.3" d="M242.342 116.049H225.156C224.701 116.056 224.265 116.234 223.933 116.548C223.601 116.862 223.397 117.289 223.362 117.746C223.344 117.963 223.371 118.182 223.442 118.388C223.513 118.594 223.626 118.782 223.774 118.942C223.922 119.101 224.101 119.227 224.3 119.312C224.499 119.398 224.714 119.44 224.93 119.436H242.11C242.565 119.429 243.001 119.252 243.333 118.94C243.666 118.628 243.872 118.202 243.911 117.746C243.929 117.528 243.901 117.309 243.83 117.103C243.76 116.897 243.647 116.707 243.499 116.548C243.351 116.388 243.172 116.261 242.973 116.175C242.774 116.089 242.559 116.046 242.342 116.049Z" fill="#18989B"/>
<path d="M252.401 108.588H225.667C225.212 108.594 224.776 108.771 224.444 109.083C224.111 109.396 223.905 109.821 223.867 110.278C223.848 110.495 223.876 110.714 223.947 110.921C224.017 111.127 224.13 111.316 224.278 111.476C224.426 111.636 224.605 111.763 224.804 111.848C225.004 111.934 225.218 111.977 225.435 111.975H252.176C252.632 111.969 253.069 111.792 253.401 111.478C253.733 111.163 253.936 110.735 253.97 110.278C253.988 110.06 253.961 109.842 253.89 109.636C253.819 109.43 253.706 109.241 253.558 109.082C253.41 108.923 253.231 108.796 253.032 108.711C252.833 108.626 252.618 108.584 252.401 108.588Z" fill="white"/>
<path opacity="0.3" d="M274.028 116.049H249.612C249.157 116.057 248.721 116.236 248.388 116.549C248.056 116.862 247.85 117.289 247.812 117.746C247.793 117.963 247.821 118.182 247.892 118.388C247.963 118.594 248.076 118.782 248.223 118.942C248.371 119.101 248.551 119.227 248.75 119.312C248.949 119.398 249.164 119.44 249.38 119.436H273.796C274.25 119.429 274.686 119.252 275.019 118.94C275.352 118.628 275.557 118.202 275.596 117.746C275.614 117.528 275.587 117.309 275.516 117.103C275.445 116.897 275.332 116.707 275.185 116.548C275.037 116.388 274.858 116.261 274.659 116.175C274.459 116.089 274.244 116.046 274.028 116.049Z" fill="#18989B"/>
<path opacity="0.3" d="M164.232 45.7916H182.496L181.528 29.488L164.232 45.7916Z" fill="#18989B"/>
<path d="M164.232 45.7916L183.785 43.4281L181.528 29.488L164.232 45.7916Z" fill="#18989B"/>
<path d="M90.556 94.0909C89.9763 95.465 89.3352 96.9902 88.7692 98.4605C88.2031 99.9308 87.6234 101.435 87.0983 102.926C86.0303 105.842 85.1532 108.826 84.4726 111.858C84.3771 112.229 84.3293 112.593 84.2611 112.957L84.1657 113.507L84.0906 113.94C84.0231 114.551 84.0094 115.167 84.0497 115.781C84.1672 117.282 84.3699 118.776 84.6567 120.254C85.2432 123.338 86.0207 126.533 86.7914 129.666L83.3268 131.143C81.6056 128.178 80.1538 125.062 78.9893 121.834C78.3665 120.137 77.8852 118.39 77.5503 116.612C77.3505 115.59 77.2614 114.549 77.2843 113.507V113.06C77.2843 112.916 77.2843 112.827 77.2843 112.703L77.3525 112.016C77.4002 111.569 77.4275 111.109 77.5025 110.642C78.008 107.177 78.8043 103.762 79.8827 100.432C80.4147 98.7903 80.9603 97.1688 81.5945 95.5818C82.2288 93.9947 82.8426 92.4351 83.6405 90.8068L90.556 94.0909Z" fill="#7F3E3B"/>
<path d="M86.6754 128.814L89.3352 131.425L83.5314 134.173C83.5314 134.173 82.1265 131.7 83.0949 129.46L86.6754 128.814Z" fill="#7F3E3B"/>
<path d="M91.4767 135.32L86.5799 137.34L83.5314 134.146L89.3352 131.425L91.4767 135.32Z" fill="#7F3E3B"/>
<path d="M218.101 120.283C225.764 101.647 216.979 80.282 198.48 72.5628C179.981 64.8436 158.773 73.6933 151.111 92.3291C143.448 110.965 152.233 132.33 170.732 140.049C189.231 147.768 210.439 138.919 218.101 120.283Z" fill="#407BFF"/>
<path d="M184.604 140.906C203.572 140.906 218.949 125.415 218.949 106.307C218.949 87.1977 203.572 71.7069 184.604 71.7069C165.635 71.7069 150.258 87.1977 150.258 106.307C150.258 125.415 165.635 140.906 184.604 140.906Z" fill="white"/>
<mask id="mask2_4_809" style="mask-type:luminance" maskUnits="userSpaceOnUse" x="150" y="71" width="69" height="70">
<path d="M184.604 140.913C203.572 140.913 218.949 125.422 218.949 106.313C218.949 87.2046 203.572 71.7138 184.604 71.7138C165.635 71.7138 150.258 87.2046 150.258 106.313C150.258 125.422 165.635 140.913 184.604 140.913Z" fill="white"/>
</mask>
<g mask="url(#mask2_4_809)">
<path d="M199.512 114.276C199.894 117.107 200.194 119.951 200.529 122.789L201.456 131.26L201.579 132.277L201.722 133.191L201.92 134.139L202.159 135.107C202.513 136.406 202.916 137.725 203.366 139.044C204.239 141.689 205.262 144.341 206.264 146.98L203.918 148.258C202.309 145.816 200.855 143.273 199.567 140.645C198.933 139.312 198.326 137.959 197.807 136.523L197.425 135.437L197.084 134.304C196.982 133.912 196.893 133.507 196.798 133.108L196.587 132.009C196.061 129.137 195.632 126.306 195.223 123.462C194.813 120.618 194.452 117.773 194.152 114.915L199.512 114.276Z" fill="#FF8B7B"/>
<path d="M197.814 108.292C199.99 108.849 201.511 117.87 201.511 117.87L193.197 123.565C193.197 123.565 189.787 112.875 191.444 110.47C193.19 107.962 194.643 107.481 197.814 108.292Z" fill="#407BFF"/>
<path opacity="0.2" d="M197.623 110.305L199.294 119.395L195.925 121.696L197.623 110.305Z" fill="black"/>
<path d="M172.485 85.0562C168.87 85.5852 162.398 103.208 175.458 111.432C188.519 119.656 197.098 110.312 197.098 110.312C197.098 110.312 188.88 101.209 189.596 95.2726C190.312 89.3365 194.534 81.8546 184.631 79.3606C177.613 77.5949 168.522 79.2988 172.485 85.0562Z" fill="#263238"/>
<path d="M197.814 108.292C197.814 108.292 200.331 109.185 195.298 140.377H173.862C174.224 131.59 174.231 126.176 170.064 108.141C173.063 107.514 176.104 107.109 179.162 106.932C182.401 106.694 185.654 106.694 188.894 106.932C193.074 107.317 197.814 108.292 197.814 108.292Z" fill="#407BFF"/>
<path opacity="0.2" d="M171.864 115.279C173.808 115.767 175.601 117.897 175.383 121.827C175.265 123.613 174.645 125.329 173.596 126.774C173.255 123.751 172.676 120.247 171.769 115.781L171.864 115.279Z" fill="black"/>
<path d="M187.768 113.843C187.768 113.843 184.256 116.756 184.256 119.855C181.337 117.705 177.402 111.837 176.986 108.086C176.973 107.935 176.99 107.782 177.037 107.638C177.084 107.494 177.16 107.36 177.259 107.246C177.358 107.132 177.48 107.039 177.616 106.973C177.751 106.907 177.899 106.87 178.05 106.863C178.311 106.849 178.571 106.814 178.827 106.76C178.937 106.736 179.05 106.739 179.159 106.766C179.268 106.793 179.369 106.845 179.455 106.918L187.768 113.843Z" fill="#FAFAFA"/>
<path d="M187.768 113.843C188.792 114.457 189.665 115.295 190.323 116.296C190.98 117.296 191.406 118.433 191.567 119.621C194.52 117.444 193.013 110.93 191.369 107.742C191.24 107.494 191.053 107.282 190.823 107.124C190.594 106.966 190.329 106.867 190.053 106.836C189.617 106.781 189.289 106.726 189.071 106.678C189.031 106.67 188.991 106.67 188.951 106.679C188.912 106.688 188.875 106.704 188.842 106.728C188.809 106.752 188.782 106.783 188.762 106.818C188.741 106.853 188.728 106.891 188.723 106.932L187.768 113.843Z" fill="#FAFAFA"/>
<path d="M180.13 95.8909C180.744 99.0445 181.358 104.823 179.162 106.932C181.54 109.795 184.467 112.146 187.768 113.843C192.113 110.353 188.894 106.932 188.894 106.932C185.402 106.094 185.484 103.497 186.104 101.03L180.13 95.8909Z" fill="#FF8B7B"/>
<path opacity="0.2" d="M182.565 97.9864L186.098 101.03C185.949 101.6 185.848 102.181 185.797 102.768C184.468 102.576 182.388 101.429 182.081 99.9651C182.078 99.2754 182.244 98.5957 182.565 97.9864Z" fill="black"/>
<path d="M174.878 90.8274C176.324 95.8978 176.829 98.0689 179.993 100.137C184.767 103.235 190.612 100.336 190.694 94.9291C190.769 90.0648 188.389 82.5622 182.947 81.6622C181.746 81.4522 180.512 81.5549 179.363 81.9604C178.213 82.3658 177.185 83.0607 176.376 83.979C175.568 84.8973 175.006 86.0085 174.744 87.2071C174.482 88.4057 174.528 89.6519 174.878 90.8274Z" fill="#FF8B7B"/>
<path d="M176.638 95.3963C179.673 92.2771 179.523 88.4296 178.623 87.2273C181.392 86.9937 188.478 85.228 187.134 82.5279C185.791 79.8278 174.483 78.3575 173.406 85.2761C169.893 88.4021 172.689 94.6886 176.638 95.3963Z" fill="#263238"/>
<path d="M183.315 90.3671C183.41 90.7862 183.704 91.0541 183.997 91.0129C184.29 90.9717 184.413 90.5663 184.324 90.1472C184.236 89.7281 183.936 89.4602 183.642 89.5014C183.349 89.5426 183.226 89.948 183.315 90.3671Z" fill="#263238"/>
<path d="M188.014 89.3503C188.109 89.7694 188.403 90.0373 188.696 89.9961C188.989 89.9549 189.112 89.5495 189.017 89.1304C188.921 88.7113 188.628 88.4434 188.335 88.4777C188.041 88.5121 187.925 88.8968 188.014 89.3503Z" fill="#263238"/>
<path d="M188.232 88.4983L189.167 87.983C189.167 87.983 188.819 88.8831 188.232 88.4983Z" fill="#263238"/>
<path d="M186.732 90.3946C187.305 91.2635 187.993 92.0494 188.778 92.7305C188.6 92.9305 188.381 93.0888 188.136 93.1944C187.891 93.3001 187.626 93.3504 187.359 93.342L186.732 90.3946Z" fill="#FF5652"/>
<path d="M185.504 95.4925C185.715 95.4782 185.925 95.4483 186.132 95.4031C186.164 95.395 186.191 95.3748 186.209 95.3467C186.227 95.3186 186.233 95.2847 186.227 95.252C186.219 95.2197 186.199 95.1918 186.171 95.1739C186.143 95.156 186.11 95.1495 186.077 95.1558C185.563 95.2817 185.026 95.2852 184.51 95.1659C183.994 95.0467 183.512 94.808 183.104 94.4688C183.08 94.446 183.048 94.4334 183.015 94.4334C182.982 94.4334 182.95 94.446 182.926 94.4688C182.914 94.4803 182.905 94.4942 182.898 94.5095C182.892 94.5249 182.888 94.5414 182.888 94.5581C182.888 94.5748 182.892 94.5913 182.898 94.6066C182.905 94.622 182.914 94.6358 182.926 94.6474C183.279 94.9539 183.688 95.1866 184.131 95.3317C184.573 95.4768 185.04 95.5315 185.504 95.4925Z" fill="#263238"/>
<path d="M174.544 95.8841C174.826 96.3019 175.186 96.6596 175.605 96.9367C176.024 97.2138 176.494 97.4047 176.986 97.4986C178.309 97.7459 178.848 96.5299 178.35 95.3344C177.927 94.2626 176.734 92.8473 175.458 93.1359C175.183 93.2102 174.93 93.352 174.723 93.5486C174.515 93.7452 174.359 93.9906 174.269 94.2627C174.178 94.5349 174.156 94.8254 174.204 95.1083C174.252 95.3912 174.369 95.6577 174.544 95.8841Z" fill="#FF8B7B"/>
<path d="M181.017 89.4464C181.068 89.4401 181.117 89.4174 181.155 89.3815C181.193 89.3457 181.218 89.2987 181.228 89.2472C181.351 88.8548 181.553 88.4924 181.822 88.1826C182.091 87.8728 182.42 87.6224 182.79 87.4471C182.82 87.4338 182.848 87.4144 182.871 87.39C182.894 87.3657 182.911 87.3368 182.923 87.3054C182.934 87.2739 182.939 87.2404 182.938 87.2069C182.936 87.1734 182.927 87.1406 182.913 87.1105C182.899 87.0803 182.879 87.0532 182.855 87.0309C182.83 87.0085 182.801 86.9914 182.77 86.9805C182.739 86.9696 182.706 86.9651 182.673 86.9674C182.64 86.9697 182.608 86.9786 182.578 86.9937C182.136 87.2006 181.742 87.5009 181.424 87.8743C181.107 88.2477 180.872 88.6854 180.737 89.1579C180.731 89.1899 180.732 89.2228 180.738 89.2547C180.745 89.2866 180.758 89.3168 180.776 89.3436C180.795 89.3704 180.818 89.3933 180.845 89.4109C180.873 89.4286 180.903 89.4407 180.935 89.4464C180.962 89.4534 180.99 89.4534 181.017 89.4464Z" fill="#263238"/>
<path d="M188.914 85.9631C188.97 85.9696 189.027 85.9564 189.074 85.9257C189.122 85.895 189.158 85.8487 189.175 85.7946C189.193 85.7405 189.192 85.6819 189.171 85.6288C189.151 85.5756 189.113 85.5311 189.064 85.5028C188.738 85.2736 188.362 85.127 187.968 85.0756C187.574 85.0241 187.173 85.0694 186.8 85.2074C186.74 85.2345 186.693 85.2841 186.669 85.3457C186.644 85.4073 186.645 85.476 186.67 85.5372C186.683 85.5677 186.702 85.5954 186.725 85.6185C186.748 85.6417 186.776 85.6599 186.807 85.6721C186.837 85.6843 186.87 85.6901 186.903 85.6894C186.935 85.6886 186.968 85.6813 186.998 85.6677C187.295 85.5631 187.613 85.5316 187.925 85.5758C188.237 85.62 188.534 85.7387 188.791 85.9219C188.827 85.9487 188.87 85.9631 188.914 85.9631Z" fill="#263238"/>
<path d="M183.526 89.5495L184.461 89.0342C184.461 89.0342 184.14 89.9342 183.526 89.5495Z" fill="#263238"/>
<path d="M173.542 139.113L172.989 141.044C172.921 141.195 173.092 141.346 173.344 141.346H195.4C195.591 141.346 195.755 141.25 195.768 141.133L195.959 139.195C195.959 139.065 195.802 138.948 195.591 138.948H173.91C173.84 138.939 173.768 138.95 173.703 138.979C173.638 139.008 173.582 139.054 173.542 139.113Z" fill="#407BFF"/>
<path opacity="0.2" d="M173.542 139.113L172.989 141.044C172.921 141.195 173.092 141.346 173.344 141.346H195.4C195.591 141.346 195.755 141.25 195.768 141.133L195.959 139.195C195.959 139.065 195.802 138.948 195.591 138.948H173.91C173.84 138.939 173.768 138.95 173.703 138.979C173.638 139.008 173.582 139.054 173.542 139.113Z" fill="white"/>
<path d="M176.529 141.566H175.956C175.84 141.566 175.752 141.504 175.758 141.428L176.031 138.921C176.031 138.845 176.14 138.783 176.256 138.783H176.836C176.952 138.783 177.041 138.845 177.034 138.921L176.761 141.428C176.747 141.497 176.638 141.566 176.529 141.566Z" fill="#407BFF"/>
<path opacity="0.4" d="M176.529 141.566H175.956C175.84 141.566 175.752 141.504 175.758 141.428L176.031 138.921C176.031 138.845 176.14 138.783 176.256 138.783H176.836C176.952 138.783 177.041 138.845 177.034 138.921L176.761 141.428C176.747 141.497 176.638 141.566 176.529 141.566Z" fill="black"/>
<path d="M193.77 141.566H193.184C193.068 141.566 192.979 141.504 192.993 141.428L193.265 138.921C193.265 138.845 193.375 138.783 193.49 138.783H194.07C194.186 138.783 194.275 138.845 194.268 138.921L193.995 141.428C193.978 141.473 193.946 141.51 193.905 141.535C193.865 141.56 193.817 141.571 193.77 141.566Z" fill="#407BFF"/>
<path opacity="0.4" d="M193.77 141.566H193.184C193.068 141.566 192.979 141.504 192.993 141.428L193.265 138.921C193.265 138.845 193.375 138.783 193.49 138.783H194.07C194.186 138.783 194.275 138.845 194.268 138.921L193.995 141.428C193.978 141.473 193.946 141.51 193.905 141.535C193.865 141.56 193.817 141.571 193.77 141.566Z" fill="black"/>
<path d="M185.184 141.566H184.604C184.488 141.566 184.399 141.504 184.406 141.428L184.679 138.921C184.679 138.845 184.788 138.783 184.904 138.783H185.504C185.62 138.783 185.709 138.845 185.702 138.921L185.429 141.428C185.402 141.497 185.3 141.566 185.184 141.566Z" fill="#407BFF"/>
<path opacity="0.4" d="M185.184 141.566H184.604C184.488 141.566 184.399 141.504 184.406 141.428L184.679 138.921C184.679 138.845 184.788 138.783 184.904 138.783H185.504C185.62 138.783 185.709 138.845 185.702 138.921L185.429 141.428C185.402 141.497 185.3 141.566 185.184 141.566Z" fill="black"/>
<path d="M172.928 115.156C172.751 116.983 172.526 118.811 172.328 120.652L171.646 126.148C171.428 127.969 171.141 129.79 170.896 131.645L170.507 134.393L170.384 135.259C170.392 135.393 170.429 135.525 170.493 135.643C170.79 136.169 171.181 136.635 171.646 137.017C172.253 137.522 172.895 137.982 173.569 138.392C175.04 139.294 176.569 140.097 178.145 140.796C179.755 141.531 181.412 142.17 183.097 142.809C184.781 143.448 186.507 144.032 188.178 144.589L187.577 147.213C183.884 146.613 180.245 145.708 176.699 144.506C174.864 143.901 173.081 143.148 171.366 142.253C170.448 141.771 169.572 141.213 168.747 140.583C167.758 139.857 166.923 138.939 166.292 137.883C165.92 137.192 165.688 136.433 165.61 135.65C165.61 135.437 165.576 135.224 165.61 135.011C165.644 134.798 165.61 134.53 165.644 134.462L165.706 133.775L165.937 131.026C166.108 129.199 166.238 127.364 166.435 125.53L166.988 120.034C167.206 118.206 167.39 116.379 167.629 114.537L172.928 115.156Z" fill="#FF8B7B"/>
<path d="M170.064 108.141C167.915 108.828 165.337 116.248 165.337 116.248L172.839 124.039C172.839 124.039 176.693 116.028 175.786 113.232C174.865 110.319 172.546 107.385 170.064 108.141Z" fill="#407BFF"/>
</g>
<path opacity="0.2" d="M151.759 115.224C150.009 108.681 150.224 101.762 152.378 95.3426C154.532 88.9228 158.527 83.2905 163.858 79.1579C169.189 75.0253 175.616 72.5781 182.328 72.1255C189.04 71.673 195.734 73.2355 201.564 76.6156C207.394 79.9956 212.098 85.0413 215.082 91.1147C218.066 97.1881 219.194 104.016 218.326 110.736C217.457 117.456 214.63 123.765 210.202 128.866C205.774 133.967 199.944 137.631 193.449 139.395C189.136 140.566 184.637 140.869 180.208 140.288C175.778 139.707 171.506 138.253 167.635 136.008C163.763 133.764 160.369 130.773 157.645 127.207C154.921 123.641 152.921 119.569 151.759 115.224Z" fill="#18989B"/>
<path opacity="0.2" d="M209.251 82.6997L181.242 140.411C183.644 140.659 186.066 140.638 188.464 140.35L213.65 88.4777C212.394 86.3979 210.92 84.4606 209.251 82.6997ZM217.435 97.3887L217.251 96.7017L197.139 138.144C204.896 135.042 211.249 129.175 214.992 121.66C218.734 114.146 219.604 105.507 217.435 97.3887ZM175.745 73.2253C169.808 74.8375 164.416 78.0405 160.142 82.4936C155.868 86.9468 152.872 92.4837 151.473 98.5154C150.074 104.547 150.323 110.848 152.195 116.748C154.067 122.648 157.492 127.927 162.105 132.023L190.96 72.6413C185.91 71.6693 180.707 71.869 175.745 73.2253Z" fill="white"/>
<path d="M146.33 102.59L145.648 102.521C145.757 101.346 145.928 100.164 146.146 99.0101L146.828 99.1407C146.63 100.274 146.446 101.435 146.33 102.59ZM147.653 95.6161L146.971 95.4237C147.869 92.3632 149.129 89.4223 150.722 86.6639L151.315 87.0074C149.758 89.7193 148.528 92.6095 147.653 95.6161Z" fill="#18989B"/>
<path d="M220.054 96.681C218.165 89.6176 214.239 83.2772 208.773 78.4613C203.307 73.6454 196.546 70.5704 189.345 69.625C182.144 68.6796 174.827 69.9063 168.318 73.15C161.81 76.3937 156.402 81.5087 152.778 87.8484C149.155 94.188 147.479 101.468 147.962 108.767C148.445 116.066 151.066 123.057 155.493 128.856C159.92 134.654 165.954 139.001 172.833 141.345C179.711 143.689 187.126 143.926 194.138 142.026C198.796 140.764 203.161 138.59 206.984 135.627C210.808 132.665 214.014 128.973 216.421 124.762C218.828 120.551 220.387 115.904 221.011 111.086C221.634 106.267 221.309 101.373 220.054 96.681ZM151.759 115.231C150.009 108.688 150.224 101.769 152.378 95.3494C154.532 88.9297 158.526 83.2974 163.857 79.1648C169.188 75.0322 175.616 72.5849 182.328 72.1324C189.039 71.6799 195.734 73.2424 201.564 76.6224C207.394 80.0025 212.098 85.0482 215.082 91.1216C218.065 97.195 219.194 104.023 218.326 110.743C217.457 117.463 214.63 123.772 210.202 128.873C205.774 133.974 199.944 137.638 193.449 139.402C189.136 140.572 184.636 140.876 180.206 140.294C175.777 139.713 171.504 138.258 167.633 136.013C163.761 133.768 160.367 130.776 157.643 127.209C154.919 123.642 152.92 119.57 151.759 115.224V115.231Z" fill="#18989B"/>
<path d="M152.304 120.893C152.304 122.466 151.902 122.672 151.472 122.72L150.238 123.05L147.762 123.737L142.811 125.056L132.888 127.619C126.263 129.295 119.63 130.928 112.987 132.517L93.0589 137.327L83.1086 139.759C79.794 140.59 76.4659 141.36 73.1855 142.321C72.8527 142.42 72.504 142.451 72.1593 142.414C71.8145 142.376 71.4805 142.271 71.1762 142.103C70.8719 141.936 70.6033 141.71 70.3858 141.438C70.1683 141.166 70.0061 140.853 69.9084 140.518C69.8108 140.183 69.7797 139.832 69.8168 139.484C69.854 139.137 69.9586 138.8 70.1249 138.494C70.2911 138.187 70.5157 137.917 70.7857 137.698C71.0557 137.478 71.366 137.315 71.6987 137.217H71.8078C75.1292 136.392 78.3891 135.369 81.6627 134.414L91.4835 131.48L111.105 125.53C117.647 123.538 124.197 121.589 130.753 119.683L140.608 116.832L145.546 115.458L148.014 114.771L149.249 114.427C149.644 114.256 150.081 114.235 150.886 115.589C151.832 117.192 152.322 119.027 152.304 120.893Z" fill="#18989B"/>
<path d="M109.393 69.6321C109.393 70.0374 109.604 70.3672 109.87 70.3672C110.136 70.3672 110.348 70.0374 110.348 69.6321C110.348 69.2267 110.136 68.89 109.87 68.89C109.604 68.89 109.393 69.2198 109.393 69.6321Z" fill="#263238"/>
<path d="M109.57 70.3672C110.049 71.6117 110.697 72.7839 111.493 73.8505C111.217 74.0493 110.902 74.1849 110.568 74.2478C110.235 74.3108 109.892 74.2994 109.563 74.2146L109.57 70.3672Z" fill="#630F0F"/>
<path d="M107.961 67.3648C107.911 67.3634 107.863 67.3465 107.824 67.3165C107.784 67.2865 107.755 67.2448 107.74 67.1972C107.725 67.1496 107.725 67.0986 107.74 67.051C107.755 67.0035 107.784 66.9619 107.824 66.932C108.125 66.7044 108.476 66.5522 108.847 66.4877C109.218 66.4232 109.599 66.4483 109.959 66.561C110.017 66.584 110.065 66.6294 110.09 66.6873C110.116 66.7452 110.117 66.8109 110.095 66.8701C110.072 66.9292 110.027 66.9767 109.97 67.0024C109.912 67.0281 109.847 67.03 109.788 67.0076C109.502 66.9218 109.2 66.9051 108.906 66.9588C108.612 67.0125 108.335 67.1351 108.097 67.3167C108.058 67.3484 108.01 67.3654 107.961 67.3648Z" fill="#263238"/>
<path d="M96.3802 72.2634C96.7416 76.2414 96.7894 83.476 94 85.8463C94 85.8463 94.6343 89.9068 101.413 90.5388C108.868 91.2259 105.342 86.9044 105.342 86.9044C101.366 85.4822 101.768 82.2531 102.757 79.285L96.3802 72.2634Z" fill="#7F3E3B"/>
<path d="M85.4751 235.217C84.8885 235.464 83.545 234.866 83.1153 234.612C83.0957 234.602 83.0798 234.586 83.07 234.566C83.0602 234.547 83.0569 234.524 83.0608 234.502C83.0625 234.479 83.0713 234.456 83.0859 234.438C83.1005 234.42 83.1202 234.406 83.1426 234.399C83.2108 234.399 84.8067 233.863 85.4546 234.241C85.5258 234.28 85.5878 234.334 85.6361 234.399C85.6844 234.464 85.7179 234.539 85.7342 234.619C85.7683 234.715 85.7715 234.819 85.7433 234.916C85.7151 235.014 85.657 235.1 85.5774 235.162C85.5456 235.184 85.5112 235.203 85.4751 235.217ZM83.4904 234.53C84.1724 234.873 85.1477 235.162 85.4341 234.956C85.4341 234.956 85.5501 234.873 85.5023 234.653C85.4923 234.607 85.4726 234.563 85.4443 234.526C85.4161 234.488 85.38 234.456 85.3386 234.434C84.7251 234.288 84.0826 234.326 83.4904 234.544V234.53Z" fill="#407BFF"/>
<path d="M83.5519 234.516C83.4395 234.563 83.3231 234.6 83.204 234.626C83.1836 234.633 83.1613 234.634 83.1405 234.628C83.1196 234.622 83.1013 234.609 83.0881 234.592C83.0779 234.573 83.0726 234.551 83.0726 234.53C83.0726 234.508 83.0779 234.487 83.0881 234.468C83.0881 234.413 83.6405 233.053 84.3362 232.764C84.4187 232.727 84.5082 232.707 84.5987 232.707C84.6892 232.707 84.7787 232.727 84.8613 232.764C84.9471 232.788 85.0217 232.842 85.0717 232.916C85.1217 232.991 85.1438 233.08 85.1341 233.169C85.0659 233.63 84.1861 234.248 83.5519 234.516ZM83.3882 234.324C84.002 234.09 84.8408 233.486 84.8817 233.149C84.8817 233.115 84.8818 233.046 84.7454 232.977C84.6921 232.951 84.6339 232.938 84.5749 232.938C84.5158 232.938 84.4576 232.951 84.4044 232.977C83.9611 233.169 83.5655 233.932 83.3882 234.317V234.324Z" fill="#407BFF"/>
<path d="M116.458 243.324C115.944 243.322 115.43 243.276 114.924 243.187C114.9 243.182 114.879 243.17 114.862 243.153C114.845 243.136 114.833 243.114 114.828 243.09C114.823 243.066 114.826 243.04 114.837 243.018C114.848 242.995 114.867 242.977 114.89 242.967C114.965 242.919 116.711 241.916 117.549 242.142C117.706 242.183 117.841 242.284 117.925 242.424C117.978 242.5 118.007 242.592 118.007 242.685C118.007 242.779 117.978 242.87 117.925 242.946C117.727 243.248 117.106 243.324 116.458 243.324ZM115.306 243.008C116.24 243.139 117.508 243.132 117.74 242.809C117.74 242.768 117.802 242.692 117.74 242.541C117.715 242.498 117.682 242.462 117.642 242.433C117.602 242.405 117.556 242.385 117.508 242.376C116.97 242.232 115.94 242.692 115.306 243.008Z" fill="#407BFF"/>
<path d="M114.944 243.187C114.922 243.193 114.898 243.193 114.876 243.187C114.859 243.174 114.846 243.158 114.837 243.138C114.829 243.119 114.826 243.098 114.828 243.077C114.828 243.022 114.972 241.661 115.606 241.132C115.7 241.053 115.809 240.994 115.926 240.959C116.043 240.924 116.166 240.912 116.288 240.926C116.608 240.961 116.704 241.125 116.724 241.263C116.82 241.833 115.619 242.926 115.019 243.2L114.944 243.187ZM116.172 241.125C116.02 241.13 115.873 241.186 115.756 241.284C115.377 241.719 115.139 242.261 115.074 242.836C115.694 242.465 116.506 241.606 116.438 241.263C116.438 241.263 116.438 241.153 116.206 241.132L116.172 241.125Z" fill="#407BFF"/>
<path d="M109.44 243.063H114.446L114.944 231.376H109.938L109.44 243.063Z" fill="#7F3E3B"/>
<path d="M77.5229 233.424L82.447 234.358L87.9917 223.51L83.0676 222.575L77.5229 233.424Z" fill="#7F3E3B"/>
<path d="M82.9858 233.843L77.598 232.208C77.5031 232.179 77.4015 232.184 77.3098 232.222C77.2181 232.259 77.1418 232.327 77.0933 232.414L74.8563 236.426C74.8029 236.524 74.7723 236.633 74.7667 236.745C74.7611 236.857 74.7807 236.969 74.824 237.072C74.8673 237.175 74.9332 237.267 75.0167 237.341C75.1003 237.414 75.1993 237.468 75.3064 237.498C77.1956 238.034 78.1436 238.185 80.5101 238.92C81.9696 239.36 85.8024 240.981 87.8211 241.579C89.8399 242.177 90.6924 240.26 89.9217 239.827C86.4708 237.896 84.5407 235.808 83.6746 234.379C83.5196 234.12 83.2738 233.928 82.9858 233.843Z" fill="#263238"/>
<path d="M114.412 242.486H108.956C108.857 242.485 108.761 242.519 108.684 242.582C108.607 242.644 108.554 242.732 108.534 242.829L107.545 247.316C107.52 247.424 107.52 247.536 107.544 247.644C107.569 247.751 107.617 247.852 107.686 247.938C107.755 248.024 107.843 248.094 107.943 248.14C108.042 248.187 108.151 248.211 108.261 248.209C110.239 248.209 113.089 248.065 115.572 248.065C118.47 248.065 120.973 248.223 124.376 248.223C126.422 248.223 127.002 246.127 126.143 245.935C122.221 245.076 119.023 244.98 115.633 242.877C115.271 242.634 114.848 242.499 114.412 242.486Z" fill="#263238"/>
<path d="M84.5679 87.1311C80.2168 89.1922 78.4299 103.318 78.4299 103.318L88.4212 107.268C89.9716 103.444 91.2256 99.5048 92.1722 95.4856C93.6044 89.1098 89.035 84.9875 84.5679 87.1311Z" fill="#407BFF"/>
<path opacity="0.3" d="M84.5679 87.1311C80.2168 89.1922 78.4299 103.318 78.4299 103.318L88.4212 107.268C89.9716 103.444 91.2256 99.5048 92.1722 95.4856C93.6044 89.1098 89.035 84.9875 84.5679 87.1311Z" fill="black"/>
<path opacity="0.2" d="M91.0674 91.274C91.4079 91.1074 91.7644 90.9762 92.1313 90.8824C92.5299 92.3888 92.544 93.9722 92.1723 95.4856C91.2257 99.5048 89.9716 103.444 88.4213 107.268L85.1272 105.97C85.7342 102.28 87.596 92.9504 91.0674 91.274Z" fill="black"/>
<path d="M113.567 87.0212C113.567 87.0212 118.9 93.0878 113.86 130.649H87.0641C86.8799 126.526 89.4647 106.286 85.4955 86.7601C88.4597 86.1858 91.4577 85.8049 94.4706 85.6196C98.2639 85.3996 102.067 85.3996 105.86 85.6196C108.461 85.8836 111.038 86.3523 113.567 87.0212Z" fill="#407BFF"/>
<path opacity="0.3" d="M113.567 87.0212C113.567 87.0212 118.9 93.0878 113.86 130.649H87.0641C86.8799 126.526 89.4647 106.286 85.4955 86.7601C88.4597 86.1858 91.4577 85.8049 94.4706 85.6196C98.2639 85.3996 102.067 85.3996 105.86 85.6196C108.461 85.8836 111.038 86.3523 113.567 87.0212Z" fill="black"/>
<path opacity="0.2" d="M108.172 95.0734C109.386 91.4045 112.305 90.2297 115.278 92.4076C115.879 95.9665 116.301 101.703 115.817 110.8L110.586 110.752C110.586 110.752 106.392 100.535 108.172 95.0734Z" fill="black"/>
<path d="M116.663 92.5656C116.922 94.139 117.208 95.8566 117.529 97.4918C117.85 99.1269 118.211 100.79 118.593 102.411C119.299 105.601 120.259 108.728 121.464 111.762C121.771 112.449 122.085 113.177 122.433 113.823L122.876 114.634C122.988 114.816 123.118 114.987 123.265 115.142C124.28 116.113 125.429 116.932 126.675 117.574C129.619 119.117 132.655 120.475 135.766 121.641L135.022 125.351C131.354 125.096 127.735 124.352 124.26 123.139C123.327 122.812 122.416 122.424 121.532 121.978C120.565 121.481 119.651 120.884 118.804 120.199C118.307 119.786 117.85 119.326 117.44 118.825L117.113 118.392L116.902 118.069C116.758 117.856 116.615 117.643 116.486 117.43C115.954 116.571 115.483 115.712 115.047 114.847C113.45 111.482 112.184 107.968 111.268 104.355C110.811 102.59 110.388 100.831 110.047 99.0513C109.706 97.2719 109.365 95.5337 109.161 93.6374L116.663 92.5656Z" fill="#7F3E3B"/>
<path d="M106.869 90.7244C105.458 95.3344 111.186 109.075 111.186 109.075L123.251 106.018C122.512 101.675 121.269 97.434 119.548 93.3832C115.633 84.8089 108.567 85.1662 106.869 90.7244Z" fill="#407BFF"/>
<path opacity="0.3" d="M106.869 90.7244C105.458 95.3344 111.186 109.075 111.186 109.075L123.251 106.018C122.512 101.675 121.269 97.434 119.548 93.3832C115.633 84.8089 108.567 85.1662 106.869 90.7244Z" fill="black"/>
<path d="M135.841 121.641L141.017 123.984L135.998 128.155C135.998 128.155 133.788 127.426 133.426 123.771L132.656 120.734L134.927 121.318C135.24 121.398 135.546 121.506 135.841 121.641Z" fill="#7F3E3B"/>
<path d="M143.766 126.513L138.726 129.542L135.998 128.127L141.01 123.957L143.766 126.513Z" fill="#7F3E3B"/>
<path d="M108.138 85.173C105.976 83.3317 100.725 82.0057 94.8457 81.676C91.4834 81.4905 88.0257 82.047 86.5867 82.6928C85.1476 83.3386 86.8526 88.0037 88.735 88.1067C87.7392 89.6869 89.1851 92.7374 91.347 93.3351C91.006 95.9734 97.6078 96.2207 101.577 94.0909C104.782 92.3939 110.729 87.3784 108.138 85.173Z" fill="#1E303C"/>
<path opacity="0.2" d="M114.944 231.383L114.692 237.409H109.679L109.932 231.383H114.944Z" fill="black"/>
<path opacity="0.2" d="M83.0608 222.582L87.9917 223.516L85.1341 229.102L80.2032 228.168L83.0608 222.582Z" fill="black"/>
<path d="M95.9165 68.7389C96.2165 73.7406 96.1347 76.6811 98.6445 79.2507C102.409 83.1119 108.54 80.8309 109.727 75.8155C110.798 71.3222 110.123 63.9021 105.267 61.9028C104.196 61.4566 103.03 61.2943 101.879 61.4315C100.728 61.5687 99.6315 62.0007 98.6937 62.6864C97.7558 63.372 97.0082 64.2884 96.522 65.348C96.0358 66.4076 95.8273 67.575 95.9165 68.7389Z" fill="#7F3E3B"/>
<path d="M105.205 71.5283C107.081 69.6183 110.163 65.4548 109.086 62.3288C107.497 57.7049 102.757 59.2714 103.514 60.192C100.786 58.3782 95.2754 58.2889 96.428 60.7211C91.4698 61.4081 91.0675 63.4349 92.4451 64.1975C88.9123 67.5915 89.0828 71.1023 91.7631 70.8412C89.7171 72.9024 93.4817 76.9834 97.6897 78.9278C99.1219 75.149 106.788 74.462 105.205 71.5283Z" fill="#1E303C"/>
<path d="M103.03 73.3352C102.999 73.3444 102.965 73.3444 102.934 73.3352C102.916 73.3222 102.9 73.3056 102.888 73.2865C102.876 73.2673 102.868 73.2459 102.864 73.2236C102.86 73.2012 102.861 73.1783 102.866 73.1562C102.871 73.1341 102.88 73.1132 102.893 73.0948C103.971 71.5008 105.021 70.2229 105.949 69.0962C107.722 66.9388 109.004 65.3792 109.113 63.2631C109.139 62.3961 108.895 61.5428 108.415 60.8222C107.936 60.1016 107.245 59.5498 106.44 59.2439C105.171 58.6668 103.807 58.6325 103.268 59.1684C102.982 59.45 102.955 59.8554 103.187 60.4188C103.197 60.4389 103.202 60.4609 103.203 60.4833C103.204 60.5057 103.2 60.5281 103.192 60.5489C103.183 60.5697 103.171 60.5885 103.154 60.6039C103.138 60.6194 103.119 60.6312 103.098 60.6386C103.077 60.6477 103.055 60.6526 103.033 60.6531C103.01 60.6535 102.988 60.6494 102.967 60.6411C102.946 60.6328 102.927 60.6204 102.911 60.6047C102.895 60.5889 102.882 60.5701 102.873 60.5493C102.722 60.2968 102.656 60.0023 102.685 59.7091C102.713 59.4159 102.834 59.1397 103.03 58.921C103.671 58.2889 105.164 58.2889 106.583 58.921C107.451 59.2529 108.195 59.8498 108.71 60.6284C109.224 61.407 109.485 62.3282 109.454 63.2631C109.338 65.496 108.029 67.09 106.215 69.2954C105.287 70.4222 104.244 71.6932 103.173 73.2803C103.155 73.3001 103.133 73.3153 103.108 73.3249C103.083 73.3344 103.056 73.338 103.03 73.3352Z" fill="#263238"/>
<path d="M103.275 70.9649C103.366 72.2054 103.86 73.3813 104.68 74.3108C105.771 75.52 106.917 74.7643 107.108 73.294C107.279 71.9611 106.924 69.7282 105.587 69.0618C104.25 68.3954 103.187 69.4672 103.275 70.9649Z" fill="#7F3E3B"/>
<path d="M104.346 130.649C104.346 130.649 106.037 164.671 102.743 179.085C97.526 201.909 87.5484 228.381 87.5484 228.381L78.2595 226.615C78.2595 226.615 86.0821 200.109 87.8075 181.105C89.3284 164.039 87.0778 144.438 87.0778 130.649H104.346Z" fill="#1E303C"/>
<path opacity="0.2" d="M101.843 140.728C102.525 139.402 103.855 143.352 104.783 148.422C104.783 155.417 104.66 163.373 104.053 170.112C99.4152 161.49 100.404 143.476 101.843 140.728Z" fill="black"/>
<path d="M89.8262 225.509C89.8671 225.509 88.3736 228.752 88.3736 228.752L77.6252 226.643L78.7983 223.379L89.8262 225.509Z" fill="#304F64"/>
<path d="M113.894 130.649C113.894 130.649 121.396 162.864 121.942 178.261C122.535 195.526 116.554 236.241 116.554 236.241H108.07C108.07 236.241 107.026 195.21 106.644 179.484C106.235 162.342 96.2506 130.649 96.2506 130.649H113.894Z" fill="#1E303C"/>
<path d="M118.191 232.833C118.232 232.833 117.713 236.385 117.713 236.385H107.388L107.108 233.218L118.191 232.833Z" fill="#304F64"/>
</svg>
